%TF.GenerationSoftware,KiCad,Pcbnew,9.0.4*%
%TF.CreationDate,2025-09-01T18:06:31-04:00*%
%TF.ProjectId,canbus-outpost,63616e62-7573-42d6-9f75-74706f73742e,v0.0.0*%
%TF.SameCoordinates,Original*%
%TF.FileFunction,Drillmap*%
%TF.FilePolarity,Positive*%
%FSLAX45Y45*%
G04 Gerber Fmt 4.5, Leading zero omitted, Abs format (unit mm)*
G04 Created by KiCad (PCBNEW 9.0.4) date 2025-09-01 18:06:31*
%MOMM*%
%LPD*%
G01*
G04 APERTURE LIST*
%ADD10C,0.050000*%
%ADD11C,0.200000*%
%ADD12C,0.160000*%
%ADD13C,0.180000*%
%ADD14C,0.320000*%
G04 APERTURE END LIST*
D10*
X4660000Y-8701000D02*
G75*
G02*
X4340000Y-8701000I-160000J0D01*
G01*
X4340000Y-8701000D02*
G75*
G02*
X4660000Y-8701000I160000J0D01*
G01*
X300000Y-1000D02*
X4500000Y-1000D01*
X460000Y-8701000D02*
G75*
G02*
X140000Y-8701000I-160000J0D01*
G01*
X140000Y-8701000D02*
G75*
G02*
X460000Y-8701000I160000J0D01*
G01*
X4800000Y-301000D02*
X4800000Y-8701000D01*
X0Y-8701000D02*
X0Y-301000D01*
X4660000Y-301000D02*
G75*
G02*
X4340000Y-301000I-160000J0D01*
G01*
X4340000Y-301000D02*
G75*
G02*
X4660000Y-301000I160000J0D01*
G01*
X4500000Y-1000D02*
G75*
G02*
X4800000Y-301000I0J-300000D01*
G01*
X4800000Y-8701000D02*
G75*
G02*
X4500000Y-9001000I-300000J0D01*
G01*
X460000Y-301000D02*
G75*
G02*
X140000Y-301000I-160000J0D01*
G01*
X140000Y-301000D02*
G75*
G02*
X460000Y-301000I160000J0D01*
G01*
X300000Y-9001000D02*
G75*
G02*
X0Y-8701000I0J300000D01*
G01*
X300000Y-9001000D02*
X4500000Y-9001000D01*
X0Y-301000D02*
G75*
G02*
X300000Y-1000I300000J0D01*
G01*
D11*
D12*
X2320000Y-8550000D02*
X2480000Y-8710000D01*
X2480000Y-8550000D02*
X2320000Y-8710000D01*
D13*
X2490000Y-8180000D02*
G75*
G02*
X2310000Y-8180000I-90000J0D01*
G01*
X2310000Y-8180000D02*
G75*
G02*
X2490000Y-8180000I90000J0D01*
G01*
D14*
X984000Y-356000D02*
X984000Y-676000D01*
X824000Y-516000D02*
X1144000Y-516000D01*
X2127000Y-356000D02*
X2127000Y-676000D01*
X1967000Y-516000D02*
X2287000Y-516000D01*
X2674000Y-356000D02*
X2674000Y-676000D01*
X2514000Y-516000D02*
X2834000Y-516000D01*
X3817000Y-356000D02*
X3817000Y-676000D01*
X3657000Y-516000D02*
X3977000Y-516000D01*
D11*
X258277Y-9314984D02*
X258277Y-9114984D01*
X258277Y-9114984D02*
X305896Y-9114984D01*
X305896Y-9114984D02*
X334467Y-9124508D01*
X334467Y-9124508D02*
X353515Y-9143555D01*
X353515Y-9143555D02*
X363039Y-9162603D01*
X363039Y-9162603D02*
X372562Y-9200698D01*
X372562Y-9200698D02*
X372562Y-9229270D01*
X372562Y-9229270D02*
X363039Y-9267365D01*
X363039Y-9267365D02*
X353515Y-9286412D01*
X353515Y-9286412D02*
X334467Y-9305460D01*
X334467Y-9305460D02*
X305896Y-9314984D01*
X305896Y-9314984D02*
X258277Y-9314984D01*
X458277Y-9314984D02*
X458277Y-9181650D01*
X458277Y-9219746D02*
X467801Y-9200698D01*
X467801Y-9200698D02*
X477324Y-9191174D01*
X477324Y-9191174D02*
X496372Y-9181650D01*
X496372Y-9181650D02*
X515420Y-9181650D01*
X582086Y-9314984D02*
X582086Y-9181650D01*
X582086Y-9114984D02*
X572563Y-9124508D01*
X572563Y-9124508D02*
X582086Y-9134031D01*
X582086Y-9134031D02*
X591610Y-9124508D01*
X591610Y-9124508D02*
X582086Y-9114984D01*
X582086Y-9114984D02*
X582086Y-9134031D01*
X705896Y-9314984D02*
X686848Y-9305460D01*
X686848Y-9305460D02*
X677324Y-9286412D01*
X677324Y-9286412D02*
X677324Y-9114984D01*
X810658Y-9314984D02*
X791610Y-9305460D01*
X791610Y-9305460D02*
X782086Y-9286412D01*
X782086Y-9286412D02*
X782086Y-9114984D01*
X1039229Y-9314984D02*
X1039229Y-9114984D01*
X1039229Y-9114984D02*
X1105896Y-9257841D01*
X1105896Y-9257841D02*
X1172563Y-9114984D01*
X1172563Y-9114984D02*
X1172563Y-9314984D01*
X1353515Y-9314984D02*
X1353515Y-9210222D01*
X1353515Y-9210222D02*
X1343991Y-9191174D01*
X1343991Y-9191174D02*
X1324944Y-9181650D01*
X1324944Y-9181650D02*
X1286848Y-9181650D01*
X1286848Y-9181650D02*
X1267801Y-9191174D01*
X1353515Y-9305460D02*
X1334467Y-9314984D01*
X1334467Y-9314984D02*
X1286848Y-9314984D01*
X1286848Y-9314984D02*
X1267801Y-9305460D01*
X1267801Y-9305460D02*
X1258277Y-9286412D01*
X1258277Y-9286412D02*
X1258277Y-9267365D01*
X1258277Y-9267365D02*
X1267801Y-9248317D01*
X1267801Y-9248317D02*
X1286848Y-9238793D01*
X1286848Y-9238793D02*
X1334467Y-9238793D01*
X1334467Y-9238793D02*
X1353515Y-9229270D01*
X1448753Y-9181650D02*
X1448753Y-9381650D01*
X1448753Y-9191174D02*
X1467801Y-9181650D01*
X1467801Y-9181650D02*
X1505896Y-9181650D01*
X1505896Y-9181650D02*
X1524943Y-9191174D01*
X1524943Y-9191174D02*
X1534467Y-9200698D01*
X1534467Y-9200698D02*
X1543991Y-9219746D01*
X1543991Y-9219746D02*
X1543991Y-9276889D01*
X1543991Y-9276889D02*
X1534467Y-9295936D01*
X1534467Y-9295936D02*
X1524943Y-9305460D01*
X1524943Y-9305460D02*
X1505896Y-9314984D01*
X1505896Y-9314984D02*
X1467801Y-9314984D01*
X1467801Y-9314984D02*
X1448753Y-9305460D01*
X1629705Y-9295936D02*
X1639229Y-9305460D01*
X1639229Y-9305460D02*
X1629705Y-9314984D01*
X1629705Y-9314984D02*
X1620182Y-9305460D01*
X1620182Y-9305460D02*
X1629705Y-9295936D01*
X1629705Y-9295936D02*
X1629705Y-9314984D01*
X1629705Y-9191174D02*
X1639229Y-9200698D01*
X1639229Y-9200698D02*
X1629705Y-9210222D01*
X1629705Y-9210222D02*
X1620182Y-9200698D01*
X1620182Y-9200698D02*
X1629705Y-9191174D01*
X1629705Y-9191174D02*
X1629705Y-9210222D01*
D12*
X-162500Y-9563500D02*
X-2500Y-9723500D01*
X-2500Y-9563500D02*
X-162500Y-9723500D01*
D11*
X363039Y-9734984D02*
X248753Y-9734984D01*
X305896Y-9734984D02*
X305896Y-9534984D01*
X305896Y-9534984D02*
X286848Y-9563555D01*
X286848Y-9563555D02*
X267801Y-9582603D01*
X267801Y-9582603D02*
X248753Y-9592127D01*
X448753Y-9715936D02*
X458277Y-9725460D01*
X458277Y-9725460D02*
X448753Y-9734984D01*
X448753Y-9734984D02*
X439229Y-9725460D01*
X439229Y-9725460D02*
X448753Y-9715936D01*
X448753Y-9715936D02*
X448753Y-9734984D01*
X629705Y-9534984D02*
X591610Y-9534984D01*
X591610Y-9534984D02*
X572563Y-9544508D01*
X572563Y-9544508D02*
X563039Y-9554031D01*
X563039Y-9554031D02*
X543991Y-9582603D01*
X543991Y-9582603D02*
X534467Y-9620698D01*
X534467Y-9620698D02*
X534467Y-9696889D01*
X534467Y-9696889D02*
X543991Y-9715936D01*
X543991Y-9715936D02*
X553515Y-9725460D01*
X553515Y-9725460D02*
X572563Y-9734984D01*
X572563Y-9734984D02*
X610658Y-9734984D01*
X610658Y-9734984D02*
X629705Y-9725460D01*
X629705Y-9725460D02*
X639229Y-9715936D01*
X639229Y-9715936D02*
X648753Y-9696889D01*
X648753Y-9696889D02*
X648753Y-9649270D01*
X648753Y-9649270D02*
X639229Y-9630222D01*
X639229Y-9630222D02*
X629705Y-9620698D01*
X629705Y-9620698D02*
X610658Y-9611174D01*
X610658Y-9611174D02*
X572563Y-9611174D01*
X572563Y-9611174D02*
X553515Y-9620698D01*
X553515Y-9620698D02*
X543991Y-9630222D01*
X543991Y-9630222D02*
X534467Y-9649270D01*
X772562Y-9534984D02*
X791610Y-9534984D01*
X791610Y-9534984D02*
X810658Y-9544508D01*
X810658Y-9544508D02*
X820182Y-9554031D01*
X820182Y-9554031D02*
X829705Y-9573079D01*
X829705Y-9573079D02*
X839229Y-9611174D01*
X839229Y-9611174D02*
X839229Y-9658793D01*
X839229Y-9658793D02*
X829705Y-9696889D01*
X829705Y-9696889D02*
X820182Y-9715936D01*
X820182Y-9715936D02*
X810658Y-9725460D01*
X810658Y-9725460D02*
X791610Y-9734984D01*
X791610Y-9734984D02*
X772562Y-9734984D01*
X772562Y-9734984D02*
X753515Y-9725460D01*
X753515Y-9725460D02*
X743991Y-9715936D01*
X743991Y-9715936D02*
X734467Y-9696889D01*
X734467Y-9696889D02*
X724943Y-9658793D01*
X724943Y-9658793D02*
X724943Y-9611174D01*
X724943Y-9611174D02*
X734467Y-9573079D01*
X734467Y-9573079D02*
X743991Y-9554031D01*
X743991Y-9554031D02*
X753515Y-9544508D01*
X753515Y-9544508D02*
X772562Y-9534984D01*
X963039Y-9534984D02*
X982086Y-9534984D01*
X982086Y-9534984D02*
X1001134Y-9544508D01*
X1001134Y-9544508D02*
X1010658Y-9554031D01*
X1010658Y-9554031D02*
X1020182Y-9573079D01*
X1020182Y-9573079D02*
X1029705Y-9611174D01*
X1029705Y-9611174D02*
X1029705Y-9658793D01*
X1029705Y-9658793D02*
X1020182Y-9696889D01*
X1020182Y-9696889D02*
X1010658Y-9715936D01*
X1010658Y-9715936D02*
X1001134Y-9725460D01*
X1001134Y-9725460D02*
X982086Y-9734984D01*
X982086Y-9734984D02*
X963039Y-9734984D01*
X963039Y-9734984D02*
X943991Y-9725460D01*
X943991Y-9725460D02*
X934467Y-9715936D01*
X934467Y-9715936D02*
X924943Y-9696889D01*
X924943Y-9696889D02*
X915420Y-9658793D01*
X915420Y-9658793D02*
X915420Y-9611174D01*
X915420Y-9611174D02*
X924943Y-9573079D01*
X924943Y-9573079D02*
X934467Y-9554031D01*
X934467Y-9554031D02*
X943991Y-9544508D01*
X943991Y-9544508D02*
X963039Y-9534984D01*
X1115420Y-9734984D02*
X1115420Y-9601650D01*
X1115420Y-9620698D02*
X1124944Y-9611174D01*
X1124944Y-9611174D02*
X1143991Y-9601650D01*
X1143991Y-9601650D02*
X1172563Y-9601650D01*
X1172563Y-9601650D02*
X1191610Y-9611174D01*
X1191610Y-9611174D02*
X1201134Y-9630222D01*
X1201134Y-9630222D02*
X1201134Y-9734984D01*
X1201134Y-9630222D02*
X1210658Y-9611174D01*
X1210658Y-9611174D02*
X1229705Y-9601650D01*
X1229705Y-9601650D02*
X1258277Y-9601650D01*
X1258277Y-9601650D02*
X1277325Y-9611174D01*
X1277325Y-9611174D02*
X1286848Y-9630222D01*
X1286848Y-9630222D02*
X1286848Y-9734984D01*
X1382086Y-9734984D02*
X1382086Y-9601650D01*
X1382086Y-9620698D02*
X1391610Y-9611174D01*
X1391610Y-9611174D02*
X1410658Y-9601650D01*
X1410658Y-9601650D02*
X1439229Y-9601650D01*
X1439229Y-9601650D02*
X1458277Y-9611174D01*
X1458277Y-9611174D02*
X1467801Y-9630222D01*
X1467801Y-9630222D02*
X1467801Y-9734984D01*
X1467801Y-9630222D02*
X1477324Y-9611174D01*
X1477324Y-9611174D02*
X1496372Y-9601650D01*
X1496372Y-9601650D02*
X1524943Y-9601650D01*
X1524943Y-9601650D02*
X1543991Y-9611174D01*
X1543991Y-9611174D02*
X1553515Y-9630222D01*
X1553515Y-9630222D02*
X1553515Y-9734984D01*
X1943991Y-9525460D02*
X1772563Y-9782603D01*
X2201134Y-9534984D02*
X2220182Y-9534984D01*
X2220182Y-9534984D02*
X2239229Y-9544508D01*
X2239229Y-9544508D02*
X2248753Y-9554031D01*
X2248753Y-9554031D02*
X2258277Y-9573079D01*
X2258277Y-9573079D02*
X2267801Y-9611174D01*
X2267801Y-9611174D02*
X2267801Y-9658793D01*
X2267801Y-9658793D02*
X2258277Y-9696889D01*
X2258277Y-9696889D02*
X2248753Y-9715936D01*
X2248753Y-9715936D02*
X2239229Y-9725460D01*
X2239229Y-9725460D02*
X2220182Y-9734984D01*
X2220182Y-9734984D02*
X2201134Y-9734984D01*
X2201134Y-9734984D02*
X2182087Y-9725460D01*
X2182087Y-9725460D02*
X2172563Y-9715936D01*
X2172563Y-9715936D02*
X2163039Y-9696889D01*
X2163039Y-9696889D02*
X2153515Y-9658793D01*
X2153515Y-9658793D02*
X2153515Y-9611174D01*
X2153515Y-9611174D02*
X2163039Y-9573079D01*
X2163039Y-9573079D02*
X2172563Y-9554031D01*
X2172563Y-9554031D02*
X2182087Y-9544508D01*
X2182087Y-9544508D02*
X2201134Y-9534984D01*
X2353515Y-9715936D02*
X2363039Y-9725460D01*
X2363039Y-9725460D02*
X2353515Y-9734984D01*
X2353515Y-9734984D02*
X2343991Y-9725460D01*
X2343991Y-9725460D02*
X2353515Y-9715936D01*
X2353515Y-9715936D02*
X2353515Y-9734984D01*
X2486848Y-9534984D02*
X2505896Y-9534984D01*
X2505896Y-9534984D02*
X2524944Y-9544508D01*
X2524944Y-9544508D02*
X2534468Y-9554031D01*
X2534468Y-9554031D02*
X2543991Y-9573079D01*
X2543991Y-9573079D02*
X2553515Y-9611174D01*
X2553515Y-9611174D02*
X2553515Y-9658793D01*
X2553515Y-9658793D02*
X2543991Y-9696889D01*
X2543991Y-9696889D02*
X2534468Y-9715936D01*
X2534468Y-9715936D02*
X2524944Y-9725460D01*
X2524944Y-9725460D02*
X2505896Y-9734984D01*
X2505896Y-9734984D02*
X2486848Y-9734984D01*
X2486848Y-9734984D02*
X2467801Y-9725460D01*
X2467801Y-9725460D02*
X2458277Y-9715936D01*
X2458277Y-9715936D02*
X2448753Y-9696889D01*
X2448753Y-9696889D02*
X2439229Y-9658793D01*
X2439229Y-9658793D02*
X2439229Y-9611174D01*
X2439229Y-9611174D02*
X2448753Y-9573079D01*
X2448753Y-9573079D02*
X2458277Y-9554031D01*
X2458277Y-9554031D02*
X2467801Y-9544508D01*
X2467801Y-9544508D02*
X2486848Y-9534984D01*
X2724944Y-9534984D02*
X2686848Y-9534984D01*
X2686848Y-9534984D02*
X2667801Y-9544508D01*
X2667801Y-9544508D02*
X2658277Y-9554031D01*
X2658277Y-9554031D02*
X2639229Y-9582603D01*
X2639229Y-9582603D02*
X2629706Y-9620698D01*
X2629706Y-9620698D02*
X2629706Y-9696889D01*
X2629706Y-9696889D02*
X2639229Y-9715936D01*
X2639229Y-9715936D02*
X2648753Y-9725460D01*
X2648753Y-9725460D02*
X2667801Y-9734984D01*
X2667801Y-9734984D02*
X2705896Y-9734984D01*
X2705896Y-9734984D02*
X2724944Y-9725460D01*
X2724944Y-9725460D02*
X2734468Y-9715936D01*
X2734468Y-9715936D02*
X2743991Y-9696889D01*
X2743991Y-9696889D02*
X2743991Y-9649270D01*
X2743991Y-9649270D02*
X2734468Y-9630222D01*
X2734468Y-9630222D02*
X2724944Y-9620698D01*
X2724944Y-9620698D02*
X2705896Y-9611174D01*
X2705896Y-9611174D02*
X2667801Y-9611174D01*
X2667801Y-9611174D02*
X2648753Y-9620698D01*
X2648753Y-9620698D02*
X2639229Y-9630222D01*
X2639229Y-9630222D02*
X2629706Y-9649270D01*
X2810658Y-9534984D02*
X2934467Y-9534984D01*
X2934467Y-9534984D02*
X2867801Y-9611174D01*
X2867801Y-9611174D02*
X2896372Y-9611174D01*
X2896372Y-9611174D02*
X2915420Y-9620698D01*
X2915420Y-9620698D02*
X2924944Y-9630222D01*
X2924944Y-9630222D02*
X2934467Y-9649270D01*
X2934467Y-9649270D02*
X2934467Y-9696889D01*
X2934467Y-9696889D02*
X2924944Y-9715936D01*
X2924944Y-9715936D02*
X2915420Y-9725460D01*
X2915420Y-9725460D02*
X2896372Y-9734984D01*
X2896372Y-9734984D02*
X2839229Y-9734984D01*
X2839229Y-9734984D02*
X2820182Y-9725460D01*
X2820182Y-9725460D02*
X2810658Y-9715936D01*
X3058277Y-9534984D02*
X3077325Y-9534984D01*
X3077325Y-9534984D02*
X3096372Y-9544508D01*
X3096372Y-9544508D02*
X3105896Y-9554031D01*
X3105896Y-9554031D02*
X3115420Y-9573079D01*
X3115420Y-9573079D02*
X3124944Y-9611174D01*
X3124944Y-9611174D02*
X3124944Y-9658793D01*
X3124944Y-9658793D02*
X3115420Y-9696889D01*
X3115420Y-9696889D02*
X3105896Y-9715936D01*
X3105896Y-9715936D02*
X3096372Y-9725460D01*
X3096372Y-9725460D02*
X3077325Y-9734984D01*
X3077325Y-9734984D02*
X3058277Y-9734984D01*
X3058277Y-9734984D02*
X3039229Y-9725460D01*
X3039229Y-9725460D02*
X3029706Y-9715936D01*
X3029706Y-9715936D02*
X3020182Y-9696889D01*
X3020182Y-9696889D02*
X3010658Y-9658793D01*
X3010658Y-9658793D02*
X3010658Y-9611174D01*
X3010658Y-9611174D02*
X3020182Y-9573079D01*
X3020182Y-9573079D02*
X3029706Y-9554031D01*
X3029706Y-9554031D02*
X3039229Y-9544508D01*
X3039229Y-9544508D02*
X3058277Y-9534984D01*
X3201134Y-9534984D02*
X3201134Y-9573079D01*
X3277325Y-9534984D02*
X3277325Y-9573079D01*
X3572563Y-9811174D02*
X3563039Y-9801650D01*
X3563039Y-9801650D02*
X3543991Y-9773079D01*
X3543991Y-9773079D02*
X3534468Y-9754031D01*
X3534468Y-9754031D02*
X3524944Y-9725460D01*
X3524944Y-9725460D02*
X3515420Y-9677841D01*
X3515420Y-9677841D02*
X3515420Y-9639746D01*
X3515420Y-9639746D02*
X3524944Y-9592127D01*
X3524944Y-9592127D02*
X3534468Y-9563555D01*
X3534468Y-9563555D02*
X3543991Y-9544508D01*
X3543991Y-9544508D02*
X3563039Y-9515936D01*
X3563039Y-9515936D02*
X3572563Y-9506412D01*
X3753515Y-9734984D02*
X3639229Y-9734984D01*
X3696372Y-9734984D02*
X3696372Y-9534984D01*
X3696372Y-9534984D02*
X3677325Y-9563555D01*
X3677325Y-9563555D02*
X3658277Y-9582603D01*
X3658277Y-9582603D02*
X3639229Y-9592127D01*
X3991610Y-9734984D02*
X3991610Y-9534984D01*
X4077325Y-9734984D02*
X4077325Y-9630222D01*
X4077325Y-9630222D02*
X4067801Y-9611174D01*
X4067801Y-9611174D02*
X4048753Y-9601650D01*
X4048753Y-9601650D02*
X4020182Y-9601650D01*
X4020182Y-9601650D02*
X4001134Y-9611174D01*
X4001134Y-9611174D02*
X3991610Y-9620698D01*
X4201134Y-9734984D02*
X4182087Y-9725460D01*
X4182087Y-9725460D02*
X4172563Y-9715936D01*
X4172563Y-9715936D02*
X4163039Y-9696889D01*
X4163039Y-9696889D02*
X4163039Y-9639746D01*
X4163039Y-9639746D02*
X4172563Y-9620698D01*
X4172563Y-9620698D02*
X4182087Y-9611174D01*
X4182087Y-9611174D02*
X4201134Y-9601650D01*
X4201134Y-9601650D02*
X4229706Y-9601650D01*
X4229706Y-9601650D02*
X4248753Y-9611174D01*
X4248753Y-9611174D02*
X4258277Y-9620698D01*
X4258277Y-9620698D02*
X4267801Y-9639746D01*
X4267801Y-9639746D02*
X4267801Y-9696889D01*
X4267801Y-9696889D02*
X4258277Y-9715936D01*
X4258277Y-9715936D02*
X4248753Y-9725460D01*
X4248753Y-9725460D02*
X4229706Y-9734984D01*
X4229706Y-9734984D02*
X4201134Y-9734984D01*
X4382087Y-9734984D02*
X4363039Y-9725460D01*
X4363039Y-9725460D02*
X4353515Y-9706412D01*
X4353515Y-9706412D02*
X4353515Y-9534984D01*
X4534468Y-9725460D02*
X4515420Y-9734984D01*
X4515420Y-9734984D02*
X4477325Y-9734984D01*
X4477325Y-9734984D02*
X4458277Y-9725460D01*
X4458277Y-9725460D02*
X4448753Y-9706412D01*
X4448753Y-9706412D02*
X4448753Y-9630222D01*
X4448753Y-9630222D02*
X4458277Y-9611174D01*
X4458277Y-9611174D02*
X4477325Y-9601650D01*
X4477325Y-9601650D02*
X4515420Y-9601650D01*
X4515420Y-9601650D02*
X4534468Y-9611174D01*
X4534468Y-9611174D02*
X4543992Y-9630222D01*
X4543992Y-9630222D02*
X4543992Y-9649270D01*
X4543992Y-9649270D02*
X4448753Y-9668317D01*
X4610658Y-9811174D02*
X4620182Y-9801650D01*
X4620182Y-9801650D02*
X4639230Y-9773079D01*
X4639230Y-9773079D02*
X4648753Y-9754031D01*
X4648753Y-9754031D02*
X4658277Y-9725460D01*
X4658277Y-9725460D02*
X4667801Y-9677841D01*
X4667801Y-9677841D02*
X4667801Y-9639746D01*
X4667801Y-9639746D02*
X4658277Y-9592127D01*
X4658277Y-9592127D02*
X4648753Y-9563555D01*
X4648753Y-9563555D02*
X4639230Y-9544508D01*
X4639230Y-9544508D02*
X4620182Y-9515936D01*
X4620182Y-9515936D02*
X4610658Y-9506412D01*
X4972563Y-9811174D02*
X4963039Y-9801650D01*
X4963039Y-9801650D02*
X4943992Y-9773079D01*
X4943992Y-9773079D02*
X4934468Y-9754031D01*
X4934468Y-9754031D02*
X4924944Y-9725460D01*
X4924944Y-9725460D02*
X4915420Y-9677841D01*
X4915420Y-9677841D02*
X4915420Y-9639746D01*
X4915420Y-9639746D02*
X4924944Y-9592127D01*
X4924944Y-9592127D02*
X4934468Y-9563555D01*
X4934468Y-9563555D02*
X4943992Y-9544508D01*
X4943992Y-9544508D02*
X4963039Y-9515936D01*
X4963039Y-9515936D02*
X4972563Y-9506412D01*
X5048753Y-9601650D02*
X5048753Y-9734984D01*
X5048753Y-9620698D02*
X5058277Y-9611174D01*
X5058277Y-9611174D02*
X5077325Y-9601650D01*
X5077325Y-9601650D02*
X5105896Y-9601650D01*
X5105896Y-9601650D02*
X5124944Y-9611174D01*
X5124944Y-9611174D02*
X5134468Y-9630222D01*
X5134468Y-9630222D02*
X5134468Y-9734984D01*
X5258277Y-9734984D02*
X5239230Y-9725460D01*
X5239230Y-9725460D02*
X5229706Y-9715936D01*
X5229706Y-9715936D02*
X5220182Y-9696889D01*
X5220182Y-9696889D02*
X5220182Y-9639746D01*
X5220182Y-9639746D02*
X5229706Y-9620698D01*
X5229706Y-9620698D02*
X5239230Y-9611174D01*
X5239230Y-9611174D02*
X5258277Y-9601650D01*
X5258277Y-9601650D02*
X5286849Y-9601650D01*
X5286849Y-9601650D02*
X5305896Y-9611174D01*
X5305896Y-9611174D02*
X5315420Y-9620698D01*
X5315420Y-9620698D02*
X5324944Y-9639746D01*
X5324944Y-9639746D02*
X5324944Y-9696889D01*
X5324944Y-9696889D02*
X5315420Y-9715936D01*
X5315420Y-9715936D02*
X5305896Y-9725460D01*
X5305896Y-9725460D02*
X5286849Y-9734984D01*
X5286849Y-9734984D02*
X5258277Y-9734984D01*
X5382087Y-9601650D02*
X5458277Y-9601650D01*
X5410658Y-9534984D02*
X5410658Y-9706412D01*
X5410658Y-9706412D02*
X5420182Y-9725460D01*
X5420182Y-9725460D02*
X5439230Y-9734984D01*
X5439230Y-9734984D02*
X5458277Y-9734984D01*
X5677325Y-9601650D02*
X5677325Y-9801650D01*
X5677325Y-9611174D02*
X5696372Y-9601650D01*
X5696372Y-9601650D02*
X5734468Y-9601650D01*
X5734468Y-9601650D02*
X5753515Y-9611174D01*
X5753515Y-9611174D02*
X5763039Y-9620698D01*
X5763039Y-9620698D02*
X5772563Y-9639746D01*
X5772563Y-9639746D02*
X5772563Y-9696889D01*
X5772563Y-9696889D02*
X5763039Y-9715936D01*
X5763039Y-9715936D02*
X5753515Y-9725460D01*
X5753515Y-9725460D02*
X5734468Y-9734984D01*
X5734468Y-9734984D02*
X5696372Y-9734984D01*
X5696372Y-9734984D02*
X5677325Y-9725460D01*
X5886849Y-9734984D02*
X5867801Y-9725460D01*
X5867801Y-9725460D02*
X5858277Y-9706412D01*
X5858277Y-9706412D02*
X5858277Y-9534984D01*
X6048753Y-9734984D02*
X6048753Y-9630222D01*
X6048753Y-9630222D02*
X6039230Y-9611174D01*
X6039230Y-9611174D02*
X6020182Y-9601650D01*
X6020182Y-9601650D02*
X5982087Y-9601650D01*
X5982087Y-9601650D02*
X5963039Y-9611174D01*
X6048753Y-9725460D02*
X6029706Y-9734984D01*
X6029706Y-9734984D02*
X5982087Y-9734984D01*
X5982087Y-9734984D02*
X5963039Y-9725460D01*
X5963039Y-9725460D02*
X5953515Y-9706412D01*
X5953515Y-9706412D02*
X5953515Y-9687365D01*
X5953515Y-9687365D02*
X5963039Y-9668317D01*
X5963039Y-9668317D02*
X5982087Y-9658793D01*
X5982087Y-9658793D02*
X6029706Y-9658793D01*
X6029706Y-9658793D02*
X6048753Y-9649270D01*
X6115420Y-9601650D02*
X6191611Y-9601650D01*
X6143992Y-9534984D02*
X6143992Y-9706412D01*
X6143992Y-9706412D02*
X6153515Y-9725460D01*
X6153515Y-9725460D02*
X6172563Y-9734984D01*
X6172563Y-9734984D02*
X6191611Y-9734984D01*
X6334468Y-9725460D02*
X6315420Y-9734984D01*
X6315420Y-9734984D02*
X6277325Y-9734984D01*
X6277325Y-9734984D02*
X6258277Y-9725460D01*
X6258277Y-9725460D02*
X6248753Y-9706412D01*
X6248753Y-9706412D02*
X6248753Y-9630222D01*
X6248753Y-9630222D02*
X6258277Y-9611174D01*
X6258277Y-9611174D02*
X6277325Y-9601650D01*
X6277325Y-9601650D02*
X6315420Y-9601650D01*
X6315420Y-9601650D02*
X6334468Y-9611174D01*
X6334468Y-9611174D02*
X6343992Y-9630222D01*
X6343992Y-9630222D02*
X6343992Y-9649270D01*
X6343992Y-9649270D02*
X6248753Y-9668317D01*
X6515420Y-9734984D02*
X6515420Y-9534984D01*
X6515420Y-9725460D02*
X6496373Y-9734984D01*
X6496373Y-9734984D02*
X6458277Y-9734984D01*
X6458277Y-9734984D02*
X6439230Y-9725460D01*
X6439230Y-9725460D02*
X6429706Y-9715936D01*
X6429706Y-9715936D02*
X6420182Y-9696889D01*
X6420182Y-9696889D02*
X6420182Y-9639746D01*
X6420182Y-9639746D02*
X6429706Y-9620698D01*
X6429706Y-9620698D02*
X6439230Y-9611174D01*
X6439230Y-9611174D02*
X6458277Y-9601650D01*
X6458277Y-9601650D02*
X6496373Y-9601650D01*
X6496373Y-9601650D02*
X6515420Y-9611174D01*
X6591611Y-9811174D02*
X6601134Y-9801650D01*
X6601134Y-9801650D02*
X6620182Y-9773079D01*
X6620182Y-9773079D02*
X6629706Y-9754031D01*
X6629706Y-9754031D02*
X6639230Y-9725460D01*
X6639230Y-9725460D02*
X6648753Y-9677841D01*
X6648753Y-9677841D02*
X6648753Y-9639746D01*
X6648753Y-9639746D02*
X6639230Y-9592127D01*
X6639230Y-9592127D02*
X6629706Y-9563555D01*
X6629706Y-9563555D02*
X6620182Y-9544508D01*
X6620182Y-9544508D02*
X6601134Y-9515936D01*
X6601134Y-9515936D02*
X6591611Y-9506412D01*
D13*
X-2500Y-9923500D02*
G75*
G02*
X-182500Y-9923500I-90000J0D01*
G01*
X-182500Y-9923500D02*
G75*
G02*
X-2500Y-9923500I90000J0D01*
G01*
D11*
X363039Y-10014984D02*
X248753Y-10014984D01*
X305896Y-10014984D02*
X305896Y-9814984D01*
X305896Y-9814984D02*
X286848Y-9843555D01*
X286848Y-9843555D02*
X267801Y-9862603D01*
X267801Y-9862603D02*
X248753Y-9872127D01*
X448753Y-9995936D02*
X458277Y-10005460D01*
X458277Y-10005460D02*
X448753Y-10014984D01*
X448753Y-10014984D02*
X439229Y-10005460D01*
X439229Y-10005460D02*
X448753Y-9995936D01*
X448753Y-9995936D02*
X448753Y-10014984D01*
X572563Y-9900698D02*
X553515Y-9891174D01*
X553515Y-9891174D02*
X543991Y-9881650D01*
X543991Y-9881650D02*
X534467Y-9862603D01*
X534467Y-9862603D02*
X534467Y-9853079D01*
X534467Y-9853079D02*
X543991Y-9834031D01*
X543991Y-9834031D02*
X553515Y-9824508D01*
X553515Y-9824508D02*
X572563Y-9814984D01*
X572563Y-9814984D02*
X610658Y-9814984D01*
X610658Y-9814984D02*
X629705Y-9824508D01*
X629705Y-9824508D02*
X639229Y-9834031D01*
X639229Y-9834031D02*
X648753Y-9853079D01*
X648753Y-9853079D02*
X648753Y-9862603D01*
X648753Y-9862603D02*
X639229Y-9881650D01*
X639229Y-9881650D02*
X629705Y-9891174D01*
X629705Y-9891174D02*
X610658Y-9900698D01*
X610658Y-9900698D02*
X572563Y-9900698D01*
X572563Y-9900698D02*
X553515Y-9910222D01*
X553515Y-9910222D02*
X543991Y-9919746D01*
X543991Y-9919746D02*
X534467Y-9938793D01*
X534467Y-9938793D02*
X534467Y-9976889D01*
X534467Y-9976889D02*
X543991Y-9995936D01*
X543991Y-9995936D02*
X553515Y-10005460D01*
X553515Y-10005460D02*
X572563Y-10014984D01*
X572563Y-10014984D02*
X610658Y-10014984D01*
X610658Y-10014984D02*
X629705Y-10005460D01*
X629705Y-10005460D02*
X639229Y-9995936D01*
X639229Y-9995936D02*
X648753Y-9976889D01*
X648753Y-9976889D02*
X648753Y-9938793D01*
X648753Y-9938793D02*
X639229Y-9919746D01*
X639229Y-9919746D02*
X629705Y-9910222D01*
X629705Y-9910222D02*
X610658Y-9900698D01*
X772562Y-9814984D02*
X791610Y-9814984D01*
X791610Y-9814984D02*
X810658Y-9824508D01*
X810658Y-9824508D02*
X820182Y-9834031D01*
X820182Y-9834031D02*
X829705Y-9853079D01*
X829705Y-9853079D02*
X839229Y-9891174D01*
X839229Y-9891174D02*
X839229Y-9938793D01*
X839229Y-9938793D02*
X829705Y-9976889D01*
X829705Y-9976889D02*
X820182Y-9995936D01*
X820182Y-9995936D02*
X810658Y-10005460D01*
X810658Y-10005460D02*
X791610Y-10014984D01*
X791610Y-10014984D02*
X772562Y-10014984D01*
X772562Y-10014984D02*
X753515Y-10005460D01*
X753515Y-10005460D02*
X743991Y-9995936D01*
X743991Y-9995936D02*
X734467Y-9976889D01*
X734467Y-9976889D02*
X724943Y-9938793D01*
X724943Y-9938793D02*
X724943Y-9891174D01*
X724943Y-9891174D02*
X734467Y-9853079D01*
X734467Y-9853079D02*
X743991Y-9834031D01*
X743991Y-9834031D02*
X753515Y-9824508D01*
X753515Y-9824508D02*
X772562Y-9814984D01*
X963039Y-9814984D02*
X982086Y-9814984D01*
X982086Y-9814984D02*
X1001134Y-9824508D01*
X1001134Y-9824508D02*
X1010658Y-9834031D01*
X1010658Y-9834031D02*
X1020182Y-9853079D01*
X1020182Y-9853079D02*
X1029705Y-9891174D01*
X1029705Y-9891174D02*
X1029705Y-9938793D01*
X1029705Y-9938793D02*
X1020182Y-9976889D01*
X1020182Y-9976889D02*
X1010658Y-9995936D01*
X1010658Y-9995936D02*
X1001134Y-10005460D01*
X1001134Y-10005460D02*
X982086Y-10014984D01*
X982086Y-10014984D02*
X963039Y-10014984D01*
X963039Y-10014984D02*
X943991Y-10005460D01*
X943991Y-10005460D02*
X934467Y-9995936D01*
X934467Y-9995936D02*
X924943Y-9976889D01*
X924943Y-9976889D02*
X915420Y-9938793D01*
X915420Y-9938793D02*
X915420Y-9891174D01*
X915420Y-9891174D02*
X924943Y-9853079D01*
X924943Y-9853079D02*
X934467Y-9834031D01*
X934467Y-9834031D02*
X943991Y-9824508D01*
X943991Y-9824508D02*
X963039Y-9814984D01*
X1115420Y-10014984D02*
X1115420Y-9881650D01*
X1115420Y-9900698D02*
X1124944Y-9891174D01*
X1124944Y-9891174D02*
X1143991Y-9881650D01*
X1143991Y-9881650D02*
X1172563Y-9881650D01*
X1172563Y-9881650D02*
X1191610Y-9891174D01*
X1191610Y-9891174D02*
X1201134Y-9910222D01*
X1201134Y-9910222D02*
X1201134Y-10014984D01*
X1201134Y-9910222D02*
X1210658Y-9891174D01*
X1210658Y-9891174D02*
X1229705Y-9881650D01*
X1229705Y-9881650D02*
X1258277Y-9881650D01*
X1258277Y-9881650D02*
X1277325Y-9891174D01*
X1277325Y-9891174D02*
X1286848Y-9910222D01*
X1286848Y-9910222D02*
X1286848Y-10014984D01*
X1382086Y-10014984D02*
X1382086Y-9881650D01*
X1382086Y-9900698D02*
X1391610Y-9891174D01*
X1391610Y-9891174D02*
X1410658Y-9881650D01*
X1410658Y-9881650D02*
X1439229Y-9881650D01*
X1439229Y-9881650D02*
X1458277Y-9891174D01*
X1458277Y-9891174D02*
X1467801Y-9910222D01*
X1467801Y-9910222D02*
X1467801Y-10014984D01*
X1467801Y-9910222D02*
X1477324Y-9891174D01*
X1477324Y-9891174D02*
X1496372Y-9881650D01*
X1496372Y-9881650D02*
X1524943Y-9881650D01*
X1524943Y-9881650D02*
X1543991Y-9891174D01*
X1543991Y-9891174D02*
X1553515Y-9910222D01*
X1553515Y-9910222D02*
X1553515Y-10014984D01*
X1943991Y-9805460D02*
X1772563Y-10062603D01*
X2201134Y-9814984D02*
X2220182Y-9814984D01*
X2220182Y-9814984D02*
X2239229Y-9824508D01*
X2239229Y-9824508D02*
X2248753Y-9834031D01*
X2248753Y-9834031D02*
X2258277Y-9853079D01*
X2258277Y-9853079D02*
X2267801Y-9891174D01*
X2267801Y-9891174D02*
X2267801Y-9938793D01*
X2267801Y-9938793D02*
X2258277Y-9976889D01*
X2258277Y-9976889D02*
X2248753Y-9995936D01*
X2248753Y-9995936D02*
X2239229Y-10005460D01*
X2239229Y-10005460D02*
X2220182Y-10014984D01*
X2220182Y-10014984D02*
X2201134Y-10014984D01*
X2201134Y-10014984D02*
X2182087Y-10005460D01*
X2182087Y-10005460D02*
X2172563Y-9995936D01*
X2172563Y-9995936D02*
X2163039Y-9976889D01*
X2163039Y-9976889D02*
X2153515Y-9938793D01*
X2153515Y-9938793D02*
X2153515Y-9891174D01*
X2153515Y-9891174D02*
X2163039Y-9853079D01*
X2163039Y-9853079D02*
X2172563Y-9834031D01*
X2172563Y-9834031D02*
X2182087Y-9824508D01*
X2182087Y-9824508D02*
X2201134Y-9814984D01*
X2353515Y-9995936D02*
X2363039Y-10005460D01*
X2363039Y-10005460D02*
X2353515Y-10014984D01*
X2353515Y-10014984D02*
X2343991Y-10005460D01*
X2343991Y-10005460D02*
X2353515Y-9995936D01*
X2353515Y-9995936D02*
X2353515Y-10014984D01*
X2486848Y-9814984D02*
X2505896Y-9814984D01*
X2505896Y-9814984D02*
X2524944Y-9824508D01*
X2524944Y-9824508D02*
X2534468Y-9834031D01*
X2534468Y-9834031D02*
X2543991Y-9853079D01*
X2543991Y-9853079D02*
X2553515Y-9891174D01*
X2553515Y-9891174D02*
X2553515Y-9938793D01*
X2553515Y-9938793D02*
X2543991Y-9976889D01*
X2543991Y-9976889D02*
X2534468Y-9995936D01*
X2534468Y-9995936D02*
X2524944Y-10005460D01*
X2524944Y-10005460D02*
X2505896Y-10014984D01*
X2505896Y-10014984D02*
X2486848Y-10014984D01*
X2486848Y-10014984D02*
X2467801Y-10005460D01*
X2467801Y-10005460D02*
X2458277Y-9995936D01*
X2458277Y-9995936D02*
X2448753Y-9976889D01*
X2448753Y-9976889D02*
X2439229Y-9938793D01*
X2439229Y-9938793D02*
X2439229Y-9891174D01*
X2439229Y-9891174D02*
X2448753Y-9853079D01*
X2448753Y-9853079D02*
X2458277Y-9834031D01*
X2458277Y-9834031D02*
X2467801Y-9824508D01*
X2467801Y-9824508D02*
X2486848Y-9814984D01*
X2620182Y-9814984D02*
X2753515Y-9814984D01*
X2753515Y-9814984D02*
X2667801Y-10014984D01*
X2867801Y-9814984D02*
X2886848Y-9814984D01*
X2886848Y-9814984D02*
X2905896Y-9824508D01*
X2905896Y-9824508D02*
X2915420Y-9834031D01*
X2915420Y-9834031D02*
X2924944Y-9853079D01*
X2924944Y-9853079D02*
X2934467Y-9891174D01*
X2934467Y-9891174D02*
X2934467Y-9938793D01*
X2934467Y-9938793D02*
X2924944Y-9976889D01*
X2924944Y-9976889D02*
X2915420Y-9995936D01*
X2915420Y-9995936D02*
X2905896Y-10005460D01*
X2905896Y-10005460D02*
X2886848Y-10014984D01*
X2886848Y-10014984D02*
X2867801Y-10014984D01*
X2867801Y-10014984D02*
X2848753Y-10005460D01*
X2848753Y-10005460D02*
X2839229Y-9995936D01*
X2839229Y-9995936D02*
X2829706Y-9976889D01*
X2829706Y-9976889D02*
X2820182Y-9938793D01*
X2820182Y-9938793D02*
X2820182Y-9891174D01*
X2820182Y-9891174D02*
X2829706Y-9853079D01*
X2829706Y-9853079D02*
X2839229Y-9834031D01*
X2839229Y-9834031D02*
X2848753Y-9824508D01*
X2848753Y-9824508D02*
X2867801Y-9814984D01*
X3029706Y-10014984D02*
X3067801Y-10014984D01*
X3067801Y-10014984D02*
X3086848Y-10005460D01*
X3086848Y-10005460D02*
X3096372Y-9995936D01*
X3096372Y-9995936D02*
X3115420Y-9967365D01*
X3115420Y-9967365D02*
X3124944Y-9929270D01*
X3124944Y-9929270D02*
X3124944Y-9853079D01*
X3124944Y-9853079D02*
X3115420Y-9834031D01*
X3115420Y-9834031D02*
X3105896Y-9824508D01*
X3105896Y-9824508D02*
X3086848Y-9814984D01*
X3086848Y-9814984D02*
X3048753Y-9814984D01*
X3048753Y-9814984D02*
X3029706Y-9824508D01*
X3029706Y-9824508D02*
X3020182Y-9834031D01*
X3020182Y-9834031D02*
X3010658Y-9853079D01*
X3010658Y-9853079D02*
X3010658Y-9900698D01*
X3010658Y-9900698D02*
X3020182Y-9919746D01*
X3020182Y-9919746D02*
X3029706Y-9929270D01*
X3029706Y-9929270D02*
X3048753Y-9938793D01*
X3048753Y-9938793D02*
X3086848Y-9938793D01*
X3086848Y-9938793D02*
X3105896Y-9929270D01*
X3105896Y-9929270D02*
X3115420Y-9919746D01*
X3115420Y-9919746D02*
X3124944Y-9900698D01*
X3201134Y-9814984D02*
X3201134Y-9853079D01*
X3277325Y-9814984D02*
X3277325Y-9853079D01*
X3572563Y-10091174D02*
X3563039Y-10081650D01*
X3563039Y-10081650D02*
X3543991Y-10053079D01*
X3543991Y-10053079D02*
X3534468Y-10034031D01*
X3534468Y-10034031D02*
X3524944Y-10005460D01*
X3524944Y-10005460D02*
X3515420Y-9957841D01*
X3515420Y-9957841D02*
X3515420Y-9919746D01*
X3515420Y-9919746D02*
X3524944Y-9872127D01*
X3524944Y-9872127D02*
X3534468Y-9843555D01*
X3534468Y-9843555D02*
X3543991Y-9824508D01*
X3543991Y-9824508D02*
X3563039Y-9795936D01*
X3563039Y-9795936D02*
X3572563Y-9786412D01*
X3753515Y-10014984D02*
X3639229Y-10014984D01*
X3696372Y-10014984D02*
X3696372Y-9814984D01*
X3696372Y-9814984D02*
X3677325Y-9843555D01*
X3677325Y-9843555D02*
X3658277Y-9862603D01*
X3658277Y-9862603D02*
X3639229Y-9872127D01*
X3991610Y-10014984D02*
X3991610Y-9814984D01*
X4077325Y-10014984D02*
X4077325Y-9910222D01*
X4077325Y-9910222D02*
X4067801Y-9891174D01*
X4067801Y-9891174D02*
X4048753Y-9881650D01*
X4048753Y-9881650D02*
X4020182Y-9881650D01*
X4020182Y-9881650D02*
X4001134Y-9891174D01*
X4001134Y-9891174D02*
X3991610Y-9900698D01*
X4201134Y-10014984D02*
X4182087Y-10005460D01*
X4182087Y-10005460D02*
X4172563Y-9995936D01*
X4172563Y-9995936D02*
X4163039Y-9976889D01*
X4163039Y-9976889D02*
X4163039Y-9919746D01*
X4163039Y-9919746D02*
X4172563Y-9900698D01*
X4172563Y-9900698D02*
X4182087Y-9891174D01*
X4182087Y-9891174D02*
X4201134Y-9881650D01*
X4201134Y-9881650D02*
X4229706Y-9881650D01*
X4229706Y-9881650D02*
X4248753Y-9891174D01*
X4248753Y-9891174D02*
X4258277Y-9900698D01*
X4258277Y-9900698D02*
X4267801Y-9919746D01*
X4267801Y-9919746D02*
X4267801Y-9976889D01*
X4267801Y-9976889D02*
X4258277Y-9995936D01*
X4258277Y-9995936D02*
X4248753Y-10005460D01*
X4248753Y-10005460D02*
X4229706Y-10014984D01*
X4229706Y-10014984D02*
X4201134Y-10014984D01*
X4382087Y-10014984D02*
X4363039Y-10005460D01*
X4363039Y-10005460D02*
X4353515Y-9986412D01*
X4353515Y-9986412D02*
X4353515Y-9814984D01*
X4534468Y-10005460D02*
X4515420Y-10014984D01*
X4515420Y-10014984D02*
X4477325Y-10014984D01*
X4477325Y-10014984D02*
X4458277Y-10005460D01*
X4458277Y-10005460D02*
X4448753Y-9986412D01*
X4448753Y-9986412D02*
X4448753Y-9910222D01*
X4448753Y-9910222D02*
X4458277Y-9891174D01*
X4458277Y-9891174D02*
X4477325Y-9881650D01*
X4477325Y-9881650D02*
X4515420Y-9881650D01*
X4515420Y-9881650D02*
X4534468Y-9891174D01*
X4534468Y-9891174D02*
X4543992Y-9910222D01*
X4543992Y-9910222D02*
X4543992Y-9929270D01*
X4543992Y-9929270D02*
X4448753Y-9948317D01*
X4610658Y-10091174D02*
X4620182Y-10081650D01*
X4620182Y-10081650D02*
X4639230Y-10053079D01*
X4639230Y-10053079D02*
X4648753Y-10034031D01*
X4648753Y-10034031D02*
X4658277Y-10005460D01*
X4658277Y-10005460D02*
X4667801Y-9957841D01*
X4667801Y-9957841D02*
X4667801Y-9919746D01*
X4667801Y-9919746D02*
X4658277Y-9872127D01*
X4658277Y-9872127D02*
X4648753Y-9843555D01*
X4648753Y-9843555D02*
X4639230Y-9824508D01*
X4639230Y-9824508D02*
X4620182Y-9795936D01*
X4620182Y-9795936D02*
X4610658Y-9786412D01*
X4972563Y-10091174D02*
X4963039Y-10081650D01*
X4963039Y-10081650D02*
X4943992Y-10053079D01*
X4943992Y-10053079D02*
X4934468Y-10034031D01*
X4934468Y-10034031D02*
X4924944Y-10005460D01*
X4924944Y-10005460D02*
X4915420Y-9957841D01*
X4915420Y-9957841D02*
X4915420Y-9919746D01*
X4915420Y-9919746D02*
X4924944Y-9872127D01*
X4924944Y-9872127D02*
X4934468Y-9843555D01*
X4934468Y-9843555D02*
X4943992Y-9824508D01*
X4943992Y-9824508D02*
X4963039Y-9795936D01*
X4963039Y-9795936D02*
X4972563Y-9786412D01*
X5048753Y-9881650D02*
X5048753Y-10014984D01*
X5048753Y-9900698D02*
X5058277Y-9891174D01*
X5058277Y-9891174D02*
X5077325Y-9881650D01*
X5077325Y-9881650D02*
X5105896Y-9881650D01*
X5105896Y-9881650D02*
X5124944Y-9891174D01*
X5124944Y-9891174D02*
X5134468Y-9910222D01*
X5134468Y-9910222D02*
X5134468Y-10014984D01*
X5258277Y-10014984D02*
X5239230Y-10005460D01*
X5239230Y-10005460D02*
X5229706Y-9995936D01*
X5229706Y-9995936D02*
X5220182Y-9976889D01*
X5220182Y-9976889D02*
X5220182Y-9919746D01*
X5220182Y-9919746D02*
X5229706Y-9900698D01*
X5229706Y-9900698D02*
X5239230Y-9891174D01*
X5239230Y-9891174D02*
X5258277Y-9881650D01*
X5258277Y-9881650D02*
X5286849Y-9881650D01*
X5286849Y-9881650D02*
X5305896Y-9891174D01*
X5305896Y-9891174D02*
X5315420Y-9900698D01*
X5315420Y-9900698D02*
X5324944Y-9919746D01*
X5324944Y-9919746D02*
X5324944Y-9976889D01*
X5324944Y-9976889D02*
X5315420Y-9995936D01*
X5315420Y-9995936D02*
X5305896Y-10005460D01*
X5305896Y-10005460D02*
X5286849Y-10014984D01*
X5286849Y-10014984D02*
X5258277Y-10014984D01*
X5382087Y-9881650D02*
X5458277Y-9881650D01*
X5410658Y-9814984D02*
X5410658Y-9986412D01*
X5410658Y-9986412D02*
X5420182Y-10005460D01*
X5420182Y-10005460D02*
X5439230Y-10014984D01*
X5439230Y-10014984D02*
X5458277Y-10014984D01*
X5677325Y-9881650D02*
X5677325Y-10081650D01*
X5677325Y-9891174D02*
X5696372Y-9881650D01*
X5696372Y-9881650D02*
X5734468Y-9881650D01*
X5734468Y-9881650D02*
X5753515Y-9891174D01*
X5753515Y-9891174D02*
X5763039Y-9900698D01*
X5763039Y-9900698D02*
X5772563Y-9919746D01*
X5772563Y-9919746D02*
X5772563Y-9976889D01*
X5772563Y-9976889D02*
X5763039Y-9995936D01*
X5763039Y-9995936D02*
X5753515Y-10005460D01*
X5753515Y-10005460D02*
X5734468Y-10014984D01*
X5734468Y-10014984D02*
X5696372Y-10014984D01*
X5696372Y-10014984D02*
X5677325Y-10005460D01*
X5886849Y-10014984D02*
X5867801Y-10005460D01*
X5867801Y-10005460D02*
X5858277Y-9986412D01*
X5858277Y-9986412D02*
X5858277Y-9814984D01*
X6048753Y-10014984D02*
X6048753Y-9910222D01*
X6048753Y-9910222D02*
X6039230Y-9891174D01*
X6039230Y-9891174D02*
X6020182Y-9881650D01*
X6020182Y-9881650D02*
X5982087Y-9881650D01*
X5982087Y-9881650D02*
X5963039Y-9891174D01*
X6048753Y-10005460D02*
X6029706Y-10014984D01*
X6029706Y-10014984D02*
X5982087Y-10014984D01*
X5982087Y-10014984D02*
X5963039Y-10005460D01*
X5963039Y-10005460D02*
X5953515Y-9986412D01*
X5953515Y-9986412D02*
X5953515Y-9967365D01*
X5953515Y-9967365D02*
X5963039Y-9948317D01*
X5963039Y-9948317D02*
X5982087Y-9938793D01*
X5982087Y-9938793D02*
X6029706Y-9938793D01*
X6029706Y-9938793D02*
X6048753Y-9929270D01*
X6115420Y-9881650D02*
X6191611Y-9881650D01*
X6143992Y-9814984D02*
X6143992Y-9986412D01*
X6143992Y-9986412D02*
X6153515Y-10005460D01*
X6153515Y-10005460D02*
X6172563Y-10014984D01*
X6172563Y-10014984D02*
X6191611Y-10014984D01*
X6334468Y-10005460D02*
X6315420Y-10014984D01*
X6315420Y-10014984D02*
X6277325Y-10014984D01*
X6277325Y-10014984D02*
X6258277Y-10005460D01*
X6258277Y-10005460D02*
X6248753Y-9986412D01*
X6248753Y-9986412D02*
X6248753Y-9910222D01*
X6248753Y-9910222D02*
X6258277Y-9891174D01*
X6258277Y-9891174D02*
X6277325Y-9881650D01*
X6277325Y-9881650D02*
X6315420Y-9881650D01*
X6315420Y-9881650D02*
X6334468Y-9891174D01*
X6334468Y-9891174D02*
X6343992Y-9910222D01*
X6343992Y-9910222D02*
X6343992Y-9929270D01*
X6343992Y-9929270D02*
X6248753Y-9948317D01*
X6515420Y-10014984D02*
X6515420Y-9814984D01*
X6515420Y-10005460D02*
X6496373Y-10014984D01*
X6496373Y-10014984D02*
X6458277Y-10014984D01*
X6458277Y-10014984D02*
X6439230Y-10005460D01*
X6439230Y-10005460D02*
X6429706Y-9995936D01*
X6429706Y-9995936D02*
X6420182Y-9976889D01*
X6420182Y-9976889D02*
X6420182Y-9919746D01*
X6420182Y-9919746D02*
X6429706Y-9900698D01*
X6429706Y-9900698D02*
X6439230Y-9891174D01*
X6439230Y-9891174D02*
X6458277Y-9881650D01*
X6458277Y-9881650D02*
X6496373Y-9881650D01*
X6496373Y-9881650D02*
X6515420Y-9891174D01*
X6591611Y-10091174D02*
X6601134Y-10081650D01*
X6601134Y-10081650D02*
X6620182Y-10053079D01*
X6620182Y-10053079D02*
X6629706Y-10034031D01*
X6629706Y-10034031D02*
X6639230Y-10005460D01*
X6639230Y-10005460D02*
X6648753Y-9957841D01*
X6648753Y-9957841D02*
X6648753Y-9919746D01*
X6648753Y-9919746D02*
X6639230Y-9872127D01*
X6639230Y-9872127D02*
X6629706Y-9843555D01*
X6629706Y-9843555D02*
X6620182Y-9824508D01*
X6620182Y-9824508D02*
X6601134Y-9795936D01*
X6601134Y-9795936D02*
X6591611Y-9786412D01*
X-102500Y-10123500D02*
X-102500Y-10323500D01*
X-202500Y-10223500D02*
X-2500Y-10223500D01*
X239229Y-10114984D02*
X363039Y-10114984D01*
X363039Y-10114984D02*
X296372Y-10191174D01*
X296372Y-10191174D02*
X324944Y-10191174D01*
X324944Y-10191174D02*
X343991Y-10200698D01*
X343991Y-10200698D02*
X353515Y-10210222D01*
X353515Y-10210222D02*
X363039Y-10229270D01*
X363039Y-10229270D02*
X363039Y-10276889D01*
X363039Y-10276889D02*
X353515Y-10295936D01*
X353515Y-10295936D02*
X343991Y-10305460D01*
X343991Y-10305460D02*
X324944Y-10314984D01*
X324944Y-10314984D02*
X267801Y-10314984D01*
X267801Y-10314984D02*
X248753Y-10305460D01*
X248753Y-10305460D02*
X239229Y-10295936D01*
X448753Y-10295936D02*
X458277Y-10305460D01*
X458277Y-10305460D02*
X448753Y-10314984D01*
X448753Y-10314984D02*
X439229Y-10305460D01*
X439229Y-10305460D02*
X448753Y-10295936D01*
X448753Y-10295936D02*
X448753Y-10314984D01*
X534467Y-10134031D02*
X543991Y-10124508D01*
X543991Y-10124508D02*
X563039Y-10114984D01*
X563039Y-10114984D02*
X610658Y-10114984D01*
X610658Y-10114984D02*
X629705Y-10124508D01*
X629705Y-10124508D02*
X639229Y-10134031D01*
X639229Y-10134031D02*
X648753Y-10153079D01*
X648753Y-10153079D02*
X648753Y-10172127D01*
X648753Y-10172127D02*
X639229Y-10200698D01*
X639229Y-10200698D02*
X524944Y-10314984D01*
X524944Y-10314984D02*
X648753Y-10314984D01*
X772562Y-10114984D02*
X791610Y-10114984D01*
X791610Y-10114984D02*
X810658Y-10124508D01*
X810658Y-10124508D02*
X820182Y-10134031D01*
X820182Y-10134031D02*
X829705Y-10153079D01*
X829705Y-10153079D02*
X839229Y-10191174D01*
X839229Y-10191174D02*
X839229Y-10238793D01*
X839229Y-10238793D02*
X829705Y-10276889D01*
X829705Y-10276889D02*
X820182Y-10295936D01*
X820182Y-10295936D02*
X810658Y-10305460D01*
X810658Y-10305460D02*
X791610Y-10314984D01*
X791610Y-10314984D02*
X772562Y-10314984D01*
X772562Y-10314984D02*
X753515Y-10305460D01*
X753515Y-10305460D02*
X743991Y-10295936D01*
X743991Y-10295936D02*
X734467Y-10276889D01*
X734467Y-10276889D02*
X724943Y-10238793D01*
X724943Y-10238793D02*
X724943Y-10191174D01*
X724943Y-10191174D02*
X734467Y-10153079D01*
X734467Y-10153079D02*
X743991Y-10134031D01*
X743991Y-10134031D02*
X753515Y-10124508D01*
X753515Y-10124508D02*
X772562Y-10114984D01*
X963039Y-10114984D02*
X982086Y-10114984D01*
X982086Y-10114984D02*
X1001134Y-10124508D01*
X1001134Y-10124508D02*
X1010658Y-10134031D01*
X1010658Y-10134031D02*
X1020182Y-10153079D01*
X1020182Y-10153079D02*
X1029705Y-10191174D01*
X1029705Y-10191174D02*
X1029705Y-10238793D01*
X1029705Y-10238793D02*
X1020182Y-10276889D01*
X1020182Y-10276889D02*
X1010658Y-10295936D01*
X1010658Y-10295936D02*
X1001134Y-10305460D01*
X1001134Y-10305460D02*
X982086Y-10314984D01*
X982086Y-10314984D02*
X963039Y-10314984D01*
X963039Y-10314984D02*
X943991Y-10305460D01*
X943991Y-10305460D02*
X934467Y-10295936D01*
X934467Y-10295936D02*
X924943Y-10276889D01*
X924943Y-10276889D02*
X915420Y-10238793D01*
X915420Y-10238793D02*
X915420Y-10191174D01*
X915420Y-10191174D02*
X924943Y-10153079D01*
X924943Y-10153079D02*
X934467Y-10134031D01*
X934467Y-10134031D02*
X943991Y-10124508D01*
X943991Y-10124508D02*
X963039Y-10114984D01*
X1115420Y-10314984D02*
X1115420Y-10181650D01*
X1115420Y-10200698D02*
X1124944Y-10191174D01*
X1124944Y-10191174D02*
X1143991Y-10181650D01*
X1143991Y-10181650D02*
X1172563Y-10181650D01*
X1172563Y-10181650D02*
X1191610Y-10191174D01*
X1191610Y-10191174D02*
X1201134Y-10210222D01*
X1201134Y-10210222D02*
X1201134Y-10314984D01*
X1201134Y-10210222D02*
X1210658Y-10191174D01*
X1210658Y-10191174D02*
X1229705Y-10181650D01*
X1229705Y-10181650D02*
X1258277Y-10181650D01*
X1258277Y-10181650D02*
X1277325Y-10191174D01*
X1277325Y-10191174D02*
X1286848Y-10210222D01*
X1286848Y-10210222D02*
X1286848Y-10314984D01*
X1382086Y-10314984D02*
X1382086Y-10181650D01*
X1382086Y-10200698D02*
X1391610Y-10191174D01*
X1391610Y-10191174D02*
X1410658Y-10181650D01*
X1410658Y-10181650D02*
X1439229Y-10181650D01*
X1439229Y-10181650D02*
X1458277Y-10191174D01*
X1458277Y-10191174D02*
X1467801Y-10210222D01*
X1467801Y-10210222D02*
X1467801Y-10314984D01*
X1467801Y-10210222D02*
X1477324Y-10191174D01*
X1477324Y-10191174D02*
X1496372Y-10181650D01*
X1496372Y-10181650D02*
X1524943Y-10181650D01*
X1524943Y-10181650D02*
X1543991Y-10191174D01*
X1543991Y-10191174D02*
X1553515Y-10210222D01*
X1553515Y-10210222D02*
X1553515Y-10314984D01*
X1943991Y-10105460D02*
X1772563Y-10362603D01*
X2201134Y-10114984D02*
X2220182Y-10114984D01*
X2220182Y-10114984D02*
X2239229Y-10124508D01*
X2239229Y-10124508D02*
X2248753Y-10134031D01*
X2248753Y-10134031D02*
X2258277Y-10153079D01*
X2258277Y-10153079D02*
X2267801Y-10191174D01*
X2267801Y-10191174D02*
X2267801Y-10238793D01*
X2267801Y-10238793D02*
X2258277Y-10276889D01*
X2258277Y-10276889D02*
X2248753Y-10295936D01*
X2248753Y-10295936D02*
X2239229Y-10305460D01*
X2239229Y-10305460D02*
X2220182Y-10314984D01*
X2220182Y-10314984D02*
X2201134Y-10314984D01*
X2201134Y-10314984D02*
X2182087Y-10305460D01*
X2182087Y-10305460D02*
X2172563Y-10295936D01*
X2172563Y-10295936D02*
X2163039Y-10276889D01*
X2163039Y-10276889D02*
X2153515Y-10238793D01*
X2153515Y-10238793D02*
X2153515Y-10191174D01*
X2153515Y-10191174D02*
X2163039Y-10153079D01*
X2163039Y-10153079D02*
X2172563Y-10134031D01*
X2172563Y-10134031D02*
X2182087Y-10124508D01*
X2182087Y-10124508D02*
X2201134Y-10114984D01*
X2353515Y-10295936D02*
X2363039Y-10305460D01*
X2363039Y-10305460D02*
X2353515Y-10314984D01*
X2353515Y-10314984D02*
X2343991Y-10305460D01*
X2343991Y-10305460D02*
X2353515Y-10295936D01*
X2353515Y-10295936D02*
X2353515Y-10314984D01*
X2553515Y-10314984D02*
X2439229Y-10314984D01*
X2496372Y-10314984D02*
X2496372Y-10114984D01*
X2496372Y-10114984D02*
X2477325Y-10143555D01*
X2477325Y-10143555D02*
X2458277Y-10162603D01*
X2458277Y-10162603D02*
X2439229Y-10172127D01*
X2629706Y-10134031D02*
X2639229Y-10124508D01*
X2639229Y-10124508D02*
X2658277Y-10114984D01*
X2658277Y-10114984D02*
X2705896Y-10114984D01*
X2705896Y-10114984D02*
X2724944Y-10124508D01*
X2724944Y-10124508D02*
X2734468Y-10134031D01*
X2734468Y-10134031D02*
X2743991Y-10153079D01*
X2743991Y-10153079D02*
X2743991Y-10172127D01*
X2743991Y-10172127D02*
X2734468Y-10200698D01*
X2734468Y-10200698D02*
X2620182Y-10314984D01*
X2620182Y-10314984D02*
X2743991Y-10314984D01*
X2915420Y-10114984D02*
X2877325Y-10114984D01*
X2877325Y-10114984D02*
X2858277Y-10124508D01*
X2858277Y-10124508D02*
X2848753Y-10134031D01*
X2848753Y-10134031D02*
X2829706Y-10162603D01*
X2829706Y-10162603D02*
X2820182Y-10200698D01*
X2820182Y-10200698D02*
X2820182Y-10276889D01*
X2820182Y-10276889D02*
X2829706Y-10295936D01*
X2829706Y-10295936D02*
X2839229Y-10305460D01*
X2839229Y-10305460D02*
X2858277Y-10314984D01*
X2858277Y-10314984D02*
X2896372Y-10314984D01*
X2896372Y-10314984D02*
X2915420Y-10305460D01*
X2915420Y-10305460D02*
X2924944Y-10295936D01*
X2924944Y-10295936D02*
X2934467Y-10276889D01*
X2934467Y-10276889D02*
X2934467Y-10229270D01*
X2934467Y-10229270D02*
X2924944Y-10210222D01*
X2924944Y-10210222D02*
X2915420Y-10200698D01*
X2915420Y-10200698D02*
X2896372Y-10191174D01*
X2896372Y-10191174D02*
X2858277Y-10191174D01*
X2858277Y-10191174D02*
X2839229Y-10200698D01*
X2839229Y-10200698D02*
X2829706Y-10210222D01*
X2829706Y-10210222D02*
X2820182Y-10229270D01*
X3058277Y-10114984D02*
X3077325Y-10114984D01*
X3077325Y-10114984D02*
X3096372Y-10124508D01*
X3096372Y-10124508D02*
X3105896Y-10134031D01*
X3105896Y-10134031D02*
X3115420Y-10153079D01*
X3115420Y-10153079D02*
X3124944Y-10191174D01*
X3124944Y-10191174D02*
X3124944Y-10238793D01*
X3124944Y-10238793D02*
X3115420Y-10276889D01*
X3115420Y-10276889D02*
X3105896Y-10295936D01*
X3105896Y-10295936D02*
X3096372Y-10305460D01*
X3096372Y-10305460D02*
X3077325Y-10314984D01*
X3077325Y-10314984D02*
X3058277Y-10314984D01*
X3058277Y-10314984D02*
X3039229Y-10305460D01*
X3039229Y-10305460D02*
X3029706Y-10295936D01*
X3029706Y-10295936D02*
X3020182Y-10276889D01*
X3020182Y-10276889D02*
X3010658Y-10238793D01*
X3010658Y-10238793D02*
X3010658Y-10191174D01*
X3010658Y-10191174D02*
X3020182Y-10153079D01*
X3020182Y-10153079D02*
X3029706Y-10134031D01*
X3029706Y-10134031D02*
X3039229Y-10124508D01*
X3039229Y-10124508D02*
X3058277Y-10114984D01*
X3201134Y-10114984D02*
X3201134Y-10153079D01*
X3277325Y-10114984D02*
X3277325Y-10153079D01*
X3572563Y-10391174D02*
X3563039Y-10381650D01*
X3563039Y-10381650D02*
X3543991Y-10353079D01*
X3543991Y-10353079D02*
X3534468Y-10334031D01*
X3534468Y-10334031D02*
X3524944Y-10305460D01*
X3524944Y-10305460D02*
X3515420Y-10257841D01*
X3515420Y-10257841D02*
X3515420Y-10219746D01*
X3515420Y-10219746D02*
X3524944Y-10172127D01*
X3524944Y-10172127D02*
X3534468Y-10143555D01*
X3534468Y-10143555D02*
X3543991Y-10124508D01*
X3543991Y-10124508D02*
X3563039Y-10095936D01*
X3563039Y-10095936D02*
X3572563Y-10086412D01*
X3734468Y-10181650D02*
X3734468Y-10314984D01*
X3686848Y-10105460D02*
X3639229Y-10248317D01*
X3639229Y-10248317D02*
X3763039Y-10248317D01*
X3991610Y-10314984D02*
X3991610Y-10114984D01*
X4077325Y-10314984D02*
X4077325Y-10210222D01*
X4077325Y-10210222D02*
X4067801Y-10191174D01*
X4067801Y-10191174D02*
X4048753Y-10181650D01*
X4048753Y-10181650D02*
X4020182Y-10181650D01*
X4020182Y-10181650D02*
X4001134Y-10191174D01*
X4001134Y-10191174D02*
X3991610Y-10200698D01*
X4201134Y-10314984D02*
X4182087Y-10305460D01*
X4182087Y-10305460D02*
X4172563Y-10295936D01*
X4172563Y-10295936D02*
X4163039Y-10276889D01*
X4163039Y-10276889D02*
X4163039Y-10219746D01*
X4163039Y-10219746D02*
X4172563Y-10200698D01*
X4172563Y-10200698D02*
X4182087Y-10191174D01*
X4182087Y-10191174D02*
X4201134Y-10181650D01*
X4201134Y-10181650D02*
X4229706Y-10181650D01*
X4229706Y-10181650D02*
X4248753Y-10191174D01*
X4248753Y-10191174D02*
X4258277Y-10200698D01*
X4258277Y-10200698D02*
X4267801Y-10219746D01*
X4267801Y-10219746D02*
X4267801Y-10276889D01*
X4267801Y-10276889D02*
X4258277Y-10295936D01*
X4258277Y-10295936D02*
X4248753Y-10305460D01*
X4248753Y-10305460D02*
X4229706Y-10314984D01*
X4229706Y-10314984D02*
X4201134Y-10314984D01*
X4382087Y-10314984D02*
X4363039Y-10305460D01*
X4363039Y-10305460D02*
X4353515Y-10286412D01*
X4353515Y-10286412D02*
X4353515Y-10114984D01*
X4534468Y-10305460D02*
X4515420Y-10314984D01*
X4515420Y-10314984D02*
X4477325Y-10314984D01*
X4477325Y-10314984D02*
X4458277Y-10305460D01*
X4458277Y-10305460D02*
X4448753Y-10286412D01*
X4448753Y-10286412D02*
X4448753Y-10210222D01*
X4448753Y-10210222D02*
X4458277Y-10191174D01*
X4458277Y-10191174D02*
X4477325Y-10181650D01*
X4477325Y-10181650D02*
X4515420Y-10181650D01*
X4515420Y-10181650D02*
X4534468Y-10191174D01*
X4534468Y-10191174D02*
X4543992Y-10210222D01*
X4543992Y-10210222D02*
X4543992Y-10229270D01*
X4543992Y-10229270D02*
X4448753Y-10248317D01*
X4620182Y-10305460D02*
X4639230Y-10314984D01*
X4639230Y-10314984D02*
X4677325Y-10314984D01*
X4677325Y-10314984D02*
X4696373Y-10305460D01*
X4696373Y-10305460D02*
X4705896Y-10286412D01*
X4705896Y-10286412D02*
X4705896Y-10276889D01*
X4705896Y-10276889D02*
X4696373Y-10257841D01*
X4696373Y-10257841D02*
X4677325Y-10248317D01*
X4677325Y-10248317D02*
X4648753Y-10248317D01*
X4648753Y-10248317D02*
X4629706Y-10238793D01*
X4629706Y-10238793D02*
X4620182Y-10219746D01*
X4620182Y-10219746D02*
X4620182Y-10210222D01*
X4620182Y-10210222D02*
X4629706Y-10191174D01*
X4629706Y-10191174D02*
X4648753Y-10181650D01*
X4648753Y-10181650D02*
X4677325Y-10181650D01*
X4677325Y-10181650D02*
X4696373Y-10191174D01*
X4772563Y-10391174D02*
X4782087Y-10381650D01*
X4782087Y-10381650D02*
X4801134Y-10353079D01*
X4801134Y-10353079D02*
X4810658Y-10334031D01*
X4810658Y-10334031D02*
X4820182Y-10305460D01*
X4820182Y-10305460D02*
X4829706Y-10257841D01*
X4829706Y-10257841D02*
X4829706Y-10219746D01*
X4829706Y-10219746D02*
X4820182Y-10172127D01*
X4820182Y-10172127D02*
X4810658Y-10143555D01*
X4810658Y-10143555D02*
X4801134Y-10124508D01*
X4801134Y-10124508D02*
X4782087Y-10095936D01*
X4782087Y-10095936D02*
X4772563Y-10086412D01*
X5134468Y-10391174D02*
X5124944Y-10381650D01*
X5124944Y-10381650D02*
X5105896Y-10353079D01*
X5105896Y-10353079D02*
X5096373Y-10334031D01*
X5096373Y-10334031D02*
X5086849Y-10305460D01*
X5086849Y-10305460D02*
X5077325Y-10257841D01*
X5077325Y-10257841D02*
X5077325Y-10219746D01*
X5077325Y-10219746D02*
X5086849Y-10172127D01*
X5086849Y-10172127D02*
X5096373Y-10143555D01*
X5096373Y-10143555D02*
X5105896Y-10124508D01*
X5105896Y-10124508D02*
X5124944Y-10095936D01*
X5124944Y-10095936D02*
X5134468Y-10086412D01*
X5210658Y-10181650D02*
X5210658Y-10314984D01*
X5210658Y-10200698D02*
X5220182Y-10191174D01*
X5220182Y-10191174D02*
X5239230Y-10181650D01*
X5239230Y-10181650D02*
X5267801Y-10181650D01*
X5267801Y-10181650D02*
X5286849Y-10191174D01*
X5286849Y-10191174D02*
X5296373Y-10210222D01*
X5296373Y-10210222D02*
X5296373Y-10314984D01*
X5420182Y-10314984D02*
X5401134Y-10305460D01*
X5401134Y-10305460D02*
X5391611Y-10295936D01*
X5391611Y-10295936D02*
X5382087Y-10276889D01*
X5382087Y-10276889D02*
X5382087Y-10219746D01*
X5382087Y-10219746D02*
X5391611Y-10200698D01*
X5391611Y-10200698D02*
X5401134Y-10191174D01*
X5401134Y-10191174D02*
X5420182Y-10181650D01*
X5420182Y-10181650D02*
X5448754Y-10181650D01*
X5448754Y-10181650D02*
X5467801Y-10191174D01*
X5467801Y-10191174D02*
X5477325Y-10200698D01*
X5477325Y-10200698D02*
X5486849Y-10219746D01*
X5486849Y-10219746D02*
X5486849Y-10276889D01*
X5486849Y-10276889D02*
X5477325Y-10295936D01*
X5477325Y-10295936D02*
X5467801Y-10305460D01*
X5467801Y-10305460D02*
X5448754Y-10314984D01*
X5448754Y-10314984D02*
X5420182Y-10314984D01*
X5543992Y-10181650D02*
X5620182Y-10181650D01*
X5572563Y-10114984D02*
X5572563Y-10286412D01*
X5572563Y-10286412D02*
X5582087Y-10305460D01*
X5582087Y-10305460D02*
X5601134Y-10314984D01*
X5601134Y-10314984D02*
X5620182Y-10314984D01*
X5839230Y-10181650D02*
X5839230Y-10381650D01*
X5839230Y-10191174D02*
X5858277Y-10181650D01*
X5858277Y-10181650D02*
X5896373Y-10181650D01*
X5896373Y-10181650D02*
X5915420Y-10191174D01*
X5915420Y-10191174D02*
X5924944Y-10200698D01*
X5924944Y-10200698D02*
X5934468Y-10219746D01*
X5934468Y-10219746D02*
X5934468Y-10276889D01*
X5934468Y-10276889D02*
X5924944Y-10295936D01*
X5924944Y-10295936D02*
X5915420Y-10305460D01*
X5915420Y-10305460D02*
X5896373Y-10314984D01*
X5896373Y-10314984D02*
X5858277Y-10314984D01*
X5858277Y-10314984D02*
X5839230Y-10305460D01*
X6048753Y-10314984D02*
X6029706Y-10305460D01*
X6029706Y-10305460D02*
X6020182Y-10286412D01*
X6020182Y-10286412D02*
X6020182Y-10114984D01*
X6210658Y-10314984D02*
X6210658Y-10210222D01*
X6210658Y-10210222D02*
X6201134Y-10191174D01*
X6201134Y-10191174D02*
X6182087Y-10181650D01*
X6182087Y-10181650D02*
X6143992Y-10181650D01*
X6143992Y-10181650D02*
X6124944Y-10191174D01*
X6210658Y-10305460D02*
X6191611Y-10314984D01*
X6191611Y-10314984D02*
X6143992Y-10314984D01*
X6143992Y-10314984D02*
X6124944Y-10305460D01*
X6124944Y-10305460D02*
X6115420Y-10286412D01*
X6115420Y-10286412D02*
X6115420Y-10267365D01*
X6115420Y-10267365D02*
X6124944Y-10248317D01*
X6124944Y-10248317D02*
X6143992Y-10238793D01*
X6143992Y-10238793D02*
X6191611Y-10238793D01*
X6191611Y-10238793D02*
X6210658Y-10229270D01*
X6277325Y-10181650D02*
X6353515Y-10181650D01*
X6305896Y-10114984D02*
X6305896Y-10286412D01*
X6305896Y-10286412D02*
X6315420Y-10305460D01*
X6315420Y-10305460D02*
X6334468Y-10314984D01*
X6334468Y-10314984D02*
X6353515Y-10314984D01*
X6496373Y-10305460D02*
X6477325Y-10314984D01*
X6477325Y-10314984D02*
X6439230Y-10314984D01*
X6439230Y-10314984D02*
X6420182Y-10305460D01*
X6420182Y-10305460D02*
X6410658Y-10286412D01*
X6410658Y-10286412D02*
X6410658Y-10210222D01*
X6410658Y-10210222D02*
X6420182Y-10191174D01*
X6420182Y-10191174D02*
X6439230Y-10181650D01*
X6439230Y-10181650D02*
X6477325Y-10181650D01*
X6477325Y-10181650D02*
X6496373Y-10191174D01*
X6496373Y-10191174D02*
X6505896Y-10210222D01*
X6505896Y-10210222D02*
X6505896Y-10229270D01*
X6505896Y-10229270D02*
X6410658Y-10248317D01*
X6677325Y-10314984D02*
X6677325Y-10114984D01*
X6677325Y-10305460D02*
X6658277Y-10314984D01*
X6658277Y-10314984D02*
X6620182Y-10314984D01*
X6620182Y-10314984D02*
X6601134Y-10305460D01*
X6601134Y-10305460D02*
X6591611Y-10295936D01*
X6591611Y-10295936D02*
X6582087Y-10276889D01*
X6582087Y-10276889D02*
X6582087Y-10219746D01*
X6582087Y-10219746D02*
X6591611Y-10200698D01*
X6591611Y-10200698D02*
X6601134Y-10191174D01*
X6601134Y-10191174D02*
X6620182Y-10181650D01*
X6620182Y-10181650D02*
X6658277Y-10181650D01*
X6658277Y-10181650D02*
X6677325Y-10191174D01*
X6753515Y-10391174D02*
X6763039Y-10381650D01*
X6763039Y-10381650D02*
X6782087Y-10353079D01*
X6782087Y-10353079D02*
X6791611Y-10334031D01*
X6791611Y-10334031D02*
X6801134Y-10305460D01*
X6801134Y-10305460D02*
X6810658Y-10257841D01*
X6810658Y-10257841D02*
X6810658Y-10219746D01*
X6810658Y-10219746D02*
X6801134Y-10172127D01*
X6801134Y-10172127D02*
X6791611Y-10143555D01*
X6791611Y-10143555D02*
X6782087Y-10124508D01*
X6782087Y-10124508D02*
X6763039Y-10095936D01*
X6763039Y-10095936D02*
X6753515Y-10086412D01*
M02*
