G04 #@! TF.GenerationSoftware,KiCad,Pcbnew,9.0.4*
G04 #@! TF.CreationDate,2025-09-01T18:40:25-04:00*
G04 #@! TF.ProjectId,canbus-outpost,63616e62-7573-42d6-9f75-74706f73742e,v0.0.0*
G04 #@! TF.SameCoordinates,Original*
G04 #@! TF.FileFunction,Soldermask,Bot*
G04 #@! TF.FilePolarity,Negative*
%FSLAX46Y46*%
G04 Gerber Fmt 4.6, Leading zero omitted, Abs format (unit mm)*
G04 Created by KiCad (PCBNEW 9.0.4) date 2025-09-01 18:40:25*
%MOMM*%
%LPD*%
G01*
G04 APERTURE LIST*
G04 Aperture macros list*
%AMRoundRect*
0 Rectangle with rounded corners*
0 $1 Rounding radius*
0 $2 $3 $4 $5 $6 $7 $8 $9 X,Y pos of 4 corners*
0 Add a 4 corners polygon primitive as box body*
4,1,4,$2,$3,$4,$5,$6,$7,$8,$9,$2,$3,0*
0 Add four circle primitives for the rounded corners*
1,1,$1+$1,$2,$3*
1,1,$1+$1,$4,$5*
1,1,$1+$1,$6,$7*
1,1,$1+$1,$8,$9*
0 Add four rect primitives between the rounded corners*
20,1,$1+$1,$2,$3,$4,$5,0*
20,1,$1+$1,$4,$5,$6,$7,0*
20,1,$1+$1,$6,$7,$8,$9,0*
20,1,$1+$1,$8,$9,$2,$3,0*%
G04 Aperture macros list end*
%ADD10C,0.120000*%
%ADD11R,1.700000X1.700000*%
%ADD12O,1.700000X1.700000*%
%ADD13C,3.200000*%
%ADD14R,1.500000X1.500000*%
%ADD15C,1.500000*%
%ADD16C,1.700000*%
%ADD17RoundRect,0.250000X1.550000X-0.650000X1.550000X0.650000X-1.550000X0.650000X-1.550000X-0.650000X0*%
%ADD18O,3.600000X1.800000*%
%ADD19C,1.800000*%
%ADD20C,1.600000*%
%ADD21RoundRect,0.250000X0.750000X-0.600000X0.750000X0.600000X-0.750000X0.600000X-0.750000X-0.600000X0*%
%ADD22O,2.000000X1.700000*%
%ADD23RoundRect,0.150000X-0.150000X0.825000X-0.150000X-0.825000X0.150000X-0.825000X0.150000X0.825000X0*%
%ADD24R,1.000000X1.500000*%
G04 APERTURE END LIST*
D10*
G04 #@! TO.C,J8*
X24900000Y-81800000D02*
G75*
G02*
X23100000Y-81800000I-900000J0D01*
G01*
X23100000Y-81800000D02*
G75*
G02*
X24900000Y-81800000I900000J0D01*
G01*
X24800000Y-86300000D02*
G75*
G02*
X23200000Y-86300000I-800000J0D01*
G01*
X23200000Y-86300000D02*
G75*
G02*
X24800000Y-86300000I800000J0D01*
G01*
G04 #@! TO.C,JP3*
G36*
X7750000Y-13250000D02*
G01*
X7450000Y-13250000D01*
X7450000Y-14750000D01*
X7750000Y-14750000D01*
X7750000Y-13250000D01*
G37*
G04 #@! TO.C,JP2*
G36*
X7750000Y-10150000D02*
G01*
X7450000Y-10150000D01*
X7450000Y-11650000D01*
X7750000Y-11650000D01*
X7750000Y-10150000D01*
G37*
G04 #@! TD*
D11*
G04 #@! TO.C,J11*
X3700000Y-63800000D03*
D12*
X3700000Y-66340000D03*
X3700000Y-68880000D03*
G04 #@! TD*
D13*
G04 #@! TO.C,J10*
X38170000Y-5160000D03*
X26740000Y-5160000D03*
D14*
X36900000Y-11510000D03*
D15*
X35630000Y-14050000D03*
X34360000Y-11510000D03*
X33090000Y-14050000D03*
X31820000Y-11510000D03*
X30550000Y-14050000D03*
X29280000Y-11510000D03*
X28010000Y-14050000D03*
G04 #@! TD*
D11*
G04 #@! TO.C,JP1*
X2500000Y-17700000D03*
D16*
X5040000Y-17700000D03*
G04 #@! TD*
D11*
G04 #@! TO.C,J9*
X16950000Y-36900000D03*
D12*
X14410000Y-36900000D03*
X11870000Y-36900000D03*
X9330000Y-36900000D03*
G04 #@! TD*
D17*
G04 #@! TO.C,J3*
X39760000Y-22620000D03*
D18*
X39760000Y-19120000D03*
G04 #@! TD*
D13*
G04 #@! TO.C,J13*
X21270000Y-5160000D03*
X9840000Y-5160000D03*
D14*
X20000000Y-11510000D03*
D15*
X18730000Y-14050000D03*
X17460000Y-11510000D03*
X16190000Y-14050000D03*
X14920000Y-11510000D03*
X13650000Y-14050000D03*
X12380000Y-11510000D03*
X11110000Y-14050000D03*
G04 #@! TD*
D17*
G04 #@! TO.C,J5*
X39750000Y-50160000D03*
D18*
X39750000Y-46660000D03*
G04 #@! TD*
D19*
G04 #@! TO.C,J8*
X24000000Y-81800000D03*
D20*
X24000000Y-86300000D03*
G04 #@! TD*
D11*
G04 #@! TO.C,J12*
X3700000Y-54010000D03*
D12*
X3700000Y-56550000D03*
X3700000Y-59090000D03*
G04 #@! TD*
D17*
G04 #@! TO.C,J4*
X39770000Y-40630000D03*
D18*
X39770000Y-37130000D03*
G04 #@! TD*
D11*
G04 #@! TO.C,J14*
X7650000Y-54050000D03*
D12*
X7650000Y-56590000D03*
X7650000Y-59130000D03*
X7650000Y-61670000D03*
G04 #@! TD*
D11*
G04 #@! TO.C,J1*
X32650000Y-82270000D03*
D12*
X32650000Y-79730000D03*
X32650000Y-77190000D03*
X32650000Y-74650000D03*
X37730000Y-74650000D03*
X37730000Y-77190000D03*
X37730000Y-79730000D03*
X37730000Y-82270000D03*
X35190000Y-74650000D03*
X35190000Y-77190000D03*
X35190000Y-79730000D03*
X35190000Y-82270000D03*
G04 #@! TD*
D21*
G04 #@! TO.C,J2*
X38550000Y-31160000D03*
D22*
X38550000Y-28660000D03*
G04 #@! TD*
D17*
G04 #@! TO.C,J6*
X39750000Y-59705000D03*
D18*
X39750000Y-56205000D03*
G04 #@! TD*
D17*
G04 #@! TO.C,J7*
X39750000Y-69210000D03*
D18*
X39750000Y-65710000D03*
G04 #@! TD*
D23*
G04 #@! TO.C,U7*
X31295000Y-45925000D03*
X32565000Y-45925000D03*
X33835000Y-45925000D03*
X35105000Y-45925000D03*
X35105000Y-50875000D03*
X33835000Y-50875000D03*
X32565000Y-50875000D03*
X31295000Y-50875000D03*
G04 #@! TD*
G04 #@! TO.C,U9*
X31295000Y-64925000D03*
X32565000Y-64925000D03*
X33835000Y-64925000D03*
X35105000Y-64925000D03*
X35105000Y-69875000D03*
X33835000Y-69875000D03*
X32565000Y-69875000D03*
X31295000Y-69875000D03*
G04 #@! TD*
D24*
G04 #@! TO.C,JP3*
X8250000Y-14000000D03*
X6950000Y-14000000D03*
G04 #@! TD*
D23*
G04 #@! TO.C,U6*
X31295000Y-36425000D03*
X32565000Y-36425000D03*
X33835000Y-36425000D03*
X35105000Y-36425000D03*
X35105000Y-41375000D03*
X33835000Y-41375000D03*
X32565000Y-41375000D03*
X31295000Y-41375000D03*
G04 #@! TD*
G04 #@! TO.C,U8*
X31295000Y-55525000D03*
X32565000Y-55525000D03*
X33835000Y-55525000D03*
X35105000Y-55525000D03*
X35105000Y-60475000D03*
X33835000Y-60475000D03*
X32565000Y-60475000D03*
X31295000Y-60475000D03*
G04 #@! TD*
D24*
G04 #@! TO.C,JP2*
X8250000Y-10900000D03*
X6950000Y-10900000D03*
G04 #@! TD*
M02*
