G04 #@! TF.GenerationSoftware,KiCad,Pcbnew,9.0.4*
G04 #@! TF.CreationDate,2025-09-01T18:06:31-04:00*
G04 #@! TF.ProjectId,canbus-outpost,63616e62-7573-42d6-9f75-74706f73742e,v0.0.0*
G04 #@! TF.SameCoordinates,Original*
G04 #@! TF.FileFunction,Soldermask,Top*
G04 #@! TF.FilePolarity,Negative*
%FSLAX46Y46*%
G04 Gerber Fmt 4.6, Leading zero omitted, Abs format (unit mm)*
G04 Created by KiCad (PCBNEW 9.0.4) date 2025-09-01 18:06:31*
%MOMM*%
%LPD*%
G01*
G04 APERTURE LIST*
G04 Aperture macros list*
%AMRoundRect*
0 Rectangle with rounded corners*
0 $1 Rounding radius*
0 $2 $3 $4 $5 $6 $7 $8 $9 X,Y pos of 4 corners*
0 Add a 4 corners polygon primitive as box body*
4,1,4,$2,$3,$4,$5,$6,$7,$8,$9,$2,$3,0*
0 Add four circle primitives for the rounded corners*
1,1,$1+$1,$2,$3*
1,1,$1+$1,$4,$5*
1,1,$1+$1,$6,$7*
1,1,$1+$1,$8,$9*
0 Add four rect primitives between the rounded corners*
20,1,$1+$1,$2,$3,$4,$5,0*
20,1,$1+$1,$4,$5,$6,$7,0*
20,1,$1+$1,$6,$7,$8,$9,0*
20,1,$1+$1,$8,$9,$2,$3,0*%
G04 Aperture macros list end*
%ADD10RoundRect,0.250000X-1.500000X-0.550000X1.500000X-0.550000X1.500000X0.550000X-1.500000X0.550000X0*%
%ADD11RoundRect,0.140000X-0.170000X0.140000X-0.170000X-0.140000X0.170000X-0.140000X0.170000X0.140000X0*%
%ADD12R,1.700000X1.700000*%
%ADD13O,1.700000X1.700000*%
%ADD14R,1.500000X1.500000*%
%ADD15C,1.500000*%
%ADD16RoundRect,0.135000X0.185000X-0.135000X0.185000X0.135000X-0.185000X0.135000X-0.185000X-0.135000X0*%
%ADD17RoundRect,0.135000X-0.185000X0.135000X-0.185000X-0.135000X0.185000X-0.135000X0.185000X0.135000X0*%
%ADD18RoundRect,0.250000X-0.312500X-0.625000X0.312500X-0.625000X0.312500X0.625000X-0.312500X0.625000X0*%
%ADD19RoundRect,0.250000X-1.000000X-0.650000X1.000000X-0.650000X1.000000X0.650000X-1.000000X0.650000X0*%
%ADD20RoundRect,0.140000X-0.140000X-0.170000X0.140000X-0.170000X0.140000X0.170000X-0.140000X0.170000X0*%
%ADD21RoundRect,0.140000X0.140000X0.170000X-0.140000X0.170000X-0.140000X-0.170000X0.140000X-0.170000X0*%
%ADD22RoundRect,0.250000X1.000000X0.650000X-1.000000X0.650000X-1.000000X-0.650000X1.000000X-0.650000X0*%
%ADD23C,1.700000*%
%ADD24RoundRect,0.250000X1.550000X-0.650000X1.550000X0.650000X-1.550000X0.650000X-1.550000X-0.650000X0*%
%ADD25O,3.600000X1.800000*%
%ADD26RoundRect,0.135000X-0.135000X-0.185000X0.135000X-0.185000X0.135000X0.185000X-0.135000X0.185000X0*%
%ADD27RoundRect,0.150000X0.825000X0.150000X-0.825000X0.150000X-0.825000X-0.150000X0.825000X-0.150000X0*%
%ADD28RoundRect,0.140000X0.170000X-0.140000X0.170000X0.140000X-0.170000X0.140000X-0.170000X-0.140000X0*%
%ADD29R,0.650000X1.050000*%
%ADD30RoundRect,0.250000X-0.750000X-0.750000X0.750000X-0.750000X0.750000X0.750000X-0.750000X0.750000X0*%
%ADD31RoundRect,0.162500X-0.650000X-0.162500X0.650000X-0.162500X0.650000X0.162500X-0.650000X0.162500X0*%
%ADD32RoundRect,0.218750X0.026517X-0.335876X0.335876X-0.026517X-0.026517X0.335876X-0.335876X0.026517X0*%
%ADD33RoundRect,0.250000X-2.475000X0.712500X-2.475000X-0.712500X2.475000X-0.712500X2.475000X0.712500X0*%
%ADD34R,0.700000X1.700000*%
%ADD35RoundRect,0.250000X-0.550000X1.500000X-0.550000X-1.500000X0.550000X-1.500000X0.550000X1.500000X0*%
%ADD36RoundRect,0.150000X0.150000X-0.825000X0.150000X0.825000X-0.150000X0.825000X-0.150000X-0.825000X0*%
%ADD37RoundRect,0.135000X0.135000X0.185000X-0.135000X0.185000X-0.135000X-0.185000X0.135000X-0.185000X0*%
%ADD38RoundRect,0.250000X-0.250000X-0.475000X0.250000X-0.475000X0.250000X0.475000X-0.250000X0.475000X0*%
%ADD39RoundRect,0.250000X-0.650000X1.000000X-0.650000X-1.000000X0.650000X-1.000000X0.650000X1.000000X0*%
%ADD40RoundRect,0.250000X-0.475000X0.250000X-0.475000X-0.250000X0.475000X-0.250000X0.475000X0.250000X0*%
%ADD41RoundRect,0.250000X0.750000X-0.600000X0.750000X0.600000X-0.750000X0.600000X-0.750000X-0.600000X0*%
%ADD42O,2.000000X1.700000*%
%ADD43RoundRect,0.250000X-0.925000X-1.500000X0.925000X-1.500000X0.925000X1.500000X-0.925000X1.500000X0*%
%ADD44R,0.600000X1.550000*%
%ADD45R,3.100000X2.600000*%
%ADD46R,0.470000X0.530000*%
%ADD47RoundRect,0.150000X0.150000X-0.512500X0.150000X0.512500X-0.150000X0.512500X-0.150000X-0.512500X0*%
%ADD48RoundRect,0.250000X0.650000X-1.000000X0.650000X1.000000X-0.650000X1.000000X-0.650000X-1.000000X0*%
%ADD49RoundRect,0.050000X-0.350000X-0.050000X0.350000X-0.050000X0.350000X0.050000X-0.350000X0.050000X0*%
%ADD50RoundRect,0.050000X-0.050000X-0.350000X0.050000X-0.350000X0.050000X0.350000X-0.050000X0.350000X0*%
%ADD51R,3.400000X3.400000*%
%ADD52R,1.400000X1.200000*%
%ADD53RoundRect,0.225000X-0.225000X-0.250000X0.225000X-0.250000X0.225000X0.250000X-0.225000X0.250000X0*%
G04 APERTURE END LIST*
D10*
G04 #@! TO.C,C23*
X22950000Y-27090000D03*
X28350000Y-27090000D03*
G04 #@! TD*
D11*
G04 #@! TO.C,C34*
X29800000Y-28590000D03*
X29800000Y-29550000D03*
G04 #@! TD*
D12*
G04 #@! TO.C,J11*
X3700000Y-63800000D03*
D13*
X3700000Y-66340000D03*
X3700000Y-68880000D03*
G04 #@! TD*
D14*
G04 #@! TO.C,J10*
X36900000Y-11510000D03*
D15*
X35630000Y-14050000D03*
X34360000Y-11510000D03*
X33090000Y-14050000D03*
X31820000Y-11510000D03*
X30550000Y-14050000D03*
X29280000Y-11510000D03*
X28010000Y-14050000D03*
G04 #@! TD*
D16*
G04 #@! TO.C,R9*
X11501432Y-25946834D03*
X11501432Y-24926834D03*
G04 #@! TD*
D11*
G04 #@! TO.C,C33*
X28700000Y-72270000D03*
X28700000Y-73230000D03*
G04 #@! TD*
D17*
G04 #@! TO.C,R5*
X13245000Y-45200000D03*
X13245000Y-46220000D03*
G04 #@! TD*
G04 #@! TO.C,R30*
X11500000Y-66990000D03*
X11500000Y-68010000D03*
G04 #@! TD*
D16*
G04 #@! TO.C,R6*
X18545000Y-46520000D03*
X18545000Y-45500000D03*
G04 #@! TD*
D18*
G04 #@! TO.C,R21*
X31637500Y-64100000D03*
X34562500Y-64100000D03*
G04 #@! TD*
D19*
G04 #@! TO.C,D6*
X31200000Y-42000000D03*
X35200000Y-42000000D03*
G04 #@! TD*
D18*
G04 #@! TO.C,R20*
X31737500Y-54600000D03*
X34662500Y-54600000D03*
G04 #@! TD*
D20*
G04 #@! TO.C,C28*
X22623283Y-53127213D03*
X23583283Y-53127213D03*
G04 #@! TD*
D21*
G04 #@! TO.C,C11*
X9810000Y-49280000D03*
X8850000Y-49280000D03*
G04 #@! TD*
D19*
G04 #@! TO.C,D12*
X31162500Y-70515846D03*
X35162500Y-70515846D03*
G04 #@! TD*
D11*
G04 #@! TO.C,C6*
X15250000Y-58330000D03*
X15250000Y-59290000D03*
G04 #@! TD*
D22*
G04 #@! TO.C,D9*
X35200000Y-48000000D03*
X31200000Y-48000000D03*
G04 #@! TD*
D21*
G04 #@! TO.C,C30*
X23730000Y-62600000D03*
X22770000Y-62600000D03*
G04 #@! TD*
D12*
G04 #@! TO.C,JP1*
X2500000Y-17700000D03*
D23*
X5040000Y-17700000D03*
G04 #@! TD*
D12*
G04 #@! TO.C,J9*
X16950000Y-36900000D03*
D13*
X14410000Y-36900000D03*
X11870000Y-36900000D03*
X9330000Y-36900000D03*
G04 #@! TD*
D24*
G04 #@! TO.C,J3*
X39760000Y-22620000D03*
D25*
X39760000Y-19120000D03*
G04 #@! TD*
D26*
G04 #@! TO.C,R3*
X22740000Y-63700000D03*
X23760000Y-63700000D03*
G04 #@! TD*
D14*
G04 #@! TO.C,J13*
X20000000Y-11510000D03*
D15*
X18730000Y-14050000D03*
X17460000Y-11510000D03*
X16190000Y-14050000D03*
X14920000Y-11510000D03*
X13650000Y-14050000D03*
X12380000Y-11510000D03*
X11110000Y-14050000D03*
G04 #@! TD*
D24*
G04 #@! TO.C,J5*
X39750000Y-50160000D03*
D25*
X39750000Y-46660000D03*
G04 #@! TD*
D27*
G04 #@! TO.C,U12*
X28208283Y-51855000D03*
X28208283Y-50585000D03*
X28208283Y-49315000D03*
X28208283Y-48045000D03*
X23258283Y-48045000D03*
X23258283Y-49315000D03*
X23258283Y-50585000D03*
X23258283Y-51855000D03*
G04 #@! TD*
D28*
G04 #@! TO.C,C25*
X29800000Y-31380000D03*
X29800000Y-30420000D03*
G04 #@! TD*
D29*
G04 #@! TO.C,SW2*
X18875000Y-63675000D03*
X18875000Y-59525000D03*
X21025000Y-63675000D03*
X21025000Y-59525000D03*
G04 #@! TD*
D30*
G04 #@! TO.C,J8*
X18500000Y-80150000D03*
X18500000Y-86300000D03*
X29500000Y-86300000D03*
X29500000Y-80150000D03*
G04 #@! TD*
D21*
G04 #@! TO.C,C1*
X6530000Y-38300000D03*
X5570000Y-38300000D03*
G04 #@! TD*
D12*
G04 #@! TO.C,J12*
X3700000Y-54010000D03*
D13*
X3700000Y-56550000D03*
X3700000Y-59090000D03*
G04 #@! TD*
D24*
G04 #@! TO.C,J4*
X39770000Y-40630000D03*
D25*
X39770000Y-37130000D03*
G04 #@! TD*
D31*
G04 #@! TO.C,U1*
X3597920Y-39823175D03*
X3597920Y-41093175D03*
X3597920Y-42363175D03*
X3597920Y-43633175D03*
X10772920Y-43633175D03*
X10772920Y-42363175D03*
X10772920Y-41093175D03*
X10772920Y-39823175D03*
G04 #@! TD*
D21*
G04 #@! TO.C,C31*
X23730000Y-65600000D03*
X22770000Y-65600000D03*
G04 #@! TD*
D11*
G04 #@! TO.C,C13*
X18545000Y-47380000D03*
X18545000Y-48340000D03*
G04 #@! TD*
D28*
G04 #@! TO.C,C15*
X12295000Y-46190000D03*
X12295000Y-45230000D03*
G04 #@! TD*
D16*
G04 #@! TO.C,R7*
X13400000Y-68010000D03*
X13400000Y-66990000D03*
G04 #@! TD*
D12*
G04 #@! TO.C,J14*
X7650000Y-54050000D03*
D13*
X7650000Y-56590000D03*
X7650000Y-59130000D03*
X7650000Y-61670000D03*
G04 #@! TD*
D32*
G04 #@! TO.C,D1*
X11143153Y-74606847D03*
X12256847Y-73493153D03*
G04 #@! TD*
D33*
G04 #@! TO.C,F1*
X34100000Y-17508945D03*
X34100000Y-24283945D03*
G04 #@! TD*
D27*
G04 #@! TO.C,U13*
X28196593Y-61314593D03*
X28196593Y-60044593D03*
X28196593Y-58774593D03*
X28196593Y-57504593D03*
X23246593Y-57504593D03*
X23246593Y-58774593D03*
X23246593Y-60044593D03*
X23246593Y-61314593D03*
G04 #@! TD*
D20*
G04 #@! TO.C,C27*
X22670000Y-43700000D03*
X23630000Y-43700000D03*
G04 #@! TD*
D27*
G04 #@! TO.C,U10*
X28100000Y-42420000D03*
X28100000Y-41150000D03*
X28100000Y-39880000D03*
X28100000Y-38610000D03*
X23150000Y-38610000D03*
X23150000Y-39880000D03*
X23150000Y-41150000D03*
X23150000Y-42420000D03*
G04 #@! TD*
D34*
G04 #@! TO.C,L1*
X15645000Y-45748211D03*
X17045000Y-45748211D03*
G04 #@! TD*
D35*
G04 #@! TO.C,C24*
X18150000Y-68600000D03*
X18150000Y-74000000D03*
G04 #@! TD*
D16*
G04 #@! TO.C,R24*
X27735205Y-54297213D03*
X27735205Y-53277213D03*
G04 #@! TD*
D22*
G04 #@! TO.C,D13*
X35162500Y-67000000D03*
X31162500Y-67000000D03*
G04 #@! TD*
D21*
G04 #@! TO.C,C20*
X2426407Y-15479077D03*
X1466407Y-15479077D03*
G04 #@! TD*
D36*
G04 #@! TO.C,U4*
X2345000Y-13775000D03*
X3615000Y-13775000D03*
X4885000Y-13775000D03*
X6155000Y-13775000D03*
X6155000Y-8825000D03*
X4885000Y-8825000D03*
X3615000Y-8825000D03*
X2345000Y-8825000D03*
G04 #@! TD*
D37*
G04 #@! TO.C,R14*
X26563376Y-22050000D03*
X25543376Y-22050000D03*
G04 #@! TD*
D38*
G04 #@! TO.C,C21*
X19000000Y-43800000D03*
X20900000Y-43800000D03*
G04 #@! TD*
D39*
G04 #@! TO.C,D5*
X29000000Y-17710000D03*
X29000000Y-21710000D03*
G04 #@! TD*
D21*
G04 #@! TO.C,C7*
X8680000Y-51750000D03*
X7720000Y-51750000D03*
G04 #@! TD*
D16*
G04 #@! TO.C,R25*
X26785205Y-54297213D03*
X26785205Y-53277213D03*
G04 #@! TD*
D26*
G04 #@! TO.C,R15*
X25543376Y-21100000D03*
X26563376Y-21100000D03*
G04 #@! TD*
D12*
G04 #@! TO.C,J1*
X32650000Y-82270000D03*
D13*
X32650000Y-79730000D03*
X32650000Y-77190000D03*
X32650000Y-74650000D03*
X37730000Y-74650000D03*
X37730000Y-77190000D03*
X37730000Y-79730000D03*
X37730000Y-82270000D03*
X35190000Y-74650000D03*
X35190000Y-77190000D03*
X35190000Y-79730000D03*
X35190000Y-82270000D03*
G04 #@! TD*
D16*
G04 #@! TO.C,R26*
X27721554Y-63823787D03*
X27721554Y-62803787D03*
G04 #@! TD*
D40*
G04 #@! TO.C,C19*
X15100000Y-39450000D03*
X15100000Y-41350000D03*
G04 #@! TD*
D32*
G04 #@! TO.C,D15*
X12200000Y-75650000D03*
X13313694Y-74536306D03*
G04 #@! TD*
D10*
G04 #@! TO.C,C18*
X13251432Y-30576834D03*
X18651432Y-30576834D03*
G04 #@! TD*
D41*
G04 #@! TO.C,J2*
X38550000Y-31160000D03*
D42*
X38550000Y-28660000D03*
G04 #@! TD*
D16*
G04 #@! TO.C,R8*
X11501432Y-27836834D03*
X11501432Y-26816834D03*
G04 #@! TD*
D43*
G04 #@! TO.C,L2*
X3376432Y-31226834D03*
X9426432Y-31226834D03*
G04 #@! TD*
D18*
G04 #@! TO.C,R18*
X31700000Y-35600000D03*
X34625000Y-35600000D03*
G04 #@! TD*
D11*
G04 #@! TO.C,C29*
X28685205Y-53307213D03*
X28685205Y-54267213D03*
G04 #@! TD*
D37*
G04 #@! TO.C,R16*
X26563376Y-20150000D03*
X25543376Y-20150000D03*
G04 #@! TD*
D20*
G04 #@! TO.C,C2*
X14650000Y-60430000D03*
X15610000Y-60430000D03*
G04 #@! TD*
D16*
G04 #@! TO.C,R27*
X27750000Y-73270000D03*
X27750000Y-72250000D03*
G04 #@! TD*
D20*
G04 #@! TO.C,C16*
X18920000Y-56560000D03*
X19880000Y-56560000D03*
G04 #@! TD*
D26*
G04 #@! TO.C,R17*
X25543376Y-19200000D03*
X26563376Y-19200000D03*
G04 #@! TD*
D44*
G04 #@! TO.C,U3*
X6346432Y-26476834D03*
X7616432Y-26476834D03*
X8886432Y-26476834D03*
X10156432Y-26476834D03*
X10156432Y-21076834D03*
X8886432Y-21076834D03*
X7616432Y-21076834D03*
X6346432Y-21076834D03*
D45*
X8251432Y-23776834D03*
G04 #@! TD*
D26*
G04 #@! TO.C,R10*
X5790000Y-7100000D03*
X6810000Y-7100000D03*
G04 #@! TD*
D46*
G04 #@! TO.C,C3*
X15830000Y-47410000D03*
X16860000Y-47410000D03*
G04 #@! TD*
D16*
G04 #@! TO.C,R22*
X27652627Y-44908144D03*
X27652627Y-43888144D03*
G04 #@! TD*
D36*
G04 #@! TO.C,U11*
X31145000Y-32425000D03*
X32415000Y-32425000D03*
X33685000Y-32425000D03*
X34955000Y-32425000D03*
X34955000Y-27475000D03*
X33685000Y-27475000D03*
X32415000Y-27475000D03*
X31145000Y-27475000D03*
G04 #@! TD*
D11*
G04 #@! TO.C,C32*
X28671554Y-62833787D03*
X28671554Y-63793787D03*
G04 #@! TD*
D20*
G04 #@! TO.C,C8*
X19620734Y-51860000D03*
X20580734Y-51860000D03*
G04 #@! TD*
D11*
G04 #@! TO.C,C26*
X28602627Y-43918144D03*
X28602627Y-44878144D03*
G04 #@! TD*
D26*
G04 #@! TO.C,R12*
X25553376Y-17300000D03*
X26573376Y-17300000D03*
G04 #@! TD*
G04 #@! TO.C,R13*
X25543376Y-18248120D03*
X26563376Y-18248120D03*
G04 #@! TD*
D24*
G04 #@! TO.C,J6*
X39750000Y-59705000D03*
D25*
X39750000Y-56205000D03*
G04 #@! TD*
D47*
G04 #@! TO.C,U5*
X16831103Y-41887500D03*
X18731103Y-41887500D03*
X17781103Y-39612500D03*
G04 #@! TD*
D48*
G04 #@! TO.C,D4*
X42450000Y-14500000D03*
X42450000Y-10500000D03*
G04 #@! TD*
D32*
G04 #@! TO.C,D3*
X10093153Y-73556847D03*
X11206847Y-72443153D03*
G04 #@! TD*
D22*
G04 #@! TO.C,D11*
X35200000Y-57500000D03*
X31200000Y-57500000D03*
G04 #@! TD*
D19*
G04 #@! TO.C,D8*
X31200000Y-51500000D03*
X35200000Y-51500000D03*
G04 #@! TD*
D39*
G04 #@! TO.C,D2*
X3751432Y-21026834D03*
X3751432Y-25026834D03*
G04 #@! TD*
D16*
G04 #@! TO.C,R29*
X26800000Y-73260000D03*
X26800000Y-72240000D03*
G04 #@! TD*
G04 #@! TO.C,R1*
X14250000Y-59320000D03*
X14250000Y-58300000D03*
G04 #@! TD*
D37*
G04 #@! TO.C,R2*
X3610000Y-45850000D03*
X2590000Y-45850000D03*
G04 #@! TD*
D10*
G04 #@! TO.C,C22*
X22950000Y-34200000D03*
X28350000Y-34200000D03*
G04 #@! TD*
D49*
G04 #@! TO.C,U2*
X10895000Y-50100000D03*
X10895000Y-50500000D03*
X10895000Y-50900000D03*
X10895000Y-51300000D03*
X10895000Y-51700000D03*
X10895000Y-52100000D03*
X10895000Y-52500000D03*
X10895000Y-52900000D03*
X10895000Y-53300000D03*
X10895000Y-53700000D03*
X10895000Y-54100000D03*
X10895000Y-54500000D03*
X10895000Y-54900000D03*
X10895000Y-55300000D03*
X10895000Y-55700000D03*
D50*
X11545000Y-56350000D03*
X11945000Y-56350000D03*
X12345000Y-56350000D03*
X12745000Y-56350000D03*
X13145000Y-56350000D03*
X13545000Y-56350000D03*
X13945000Y-56350000D03*
X14345000Y-56350000D03*
X14745000Y-56350000D03*
X15145000Y-56350000D03*
X15545000Y-56350000D03*
X15945000Y-56350000D03*
X16345000Y-56350000D03*
X16745000Y-56350000D03*
X17145000Y-56350000D03*
D49*
X17795000Y-55700000D03*
X17795000Y-55300000D03*
X17795000Y-54900000D03*
X17795000Y-54500000D03*
X17795000Y-54100000D03*
X17795000Y-53700000D03*
X17795000Y-53300000D03*
X17795000Y-52900000D03*
X17795000Y-52500000D03*
X17795000Y-52100000D03*
X17795000Y-51700000D03*
X17795000Y-51300000D03*
X17795000Y-50900000D03*
X17795000Y-50500000D03*
X17795000Y-50100000D03*
D50*
X17145000Y-49450000D03*
X16745000Y-49450000D03*
X16345000Y-49450000D03*
X15945000Y-49450000D03*
X15545000Y-49450000D03*
X15145000Y-49450000D03*
X14745000Y-49450000D03*
X14345000Y-49450000D03*
X13945000Y-49450000D03*
X13545000Y-49450000D03*
X13145000Y-49450000D03*
X12745000Y-49450000D03*
X12345000Y-49450000D03*
X11945000Y-49450000D03*
X11545000Y-49450000D03*
D51*
X14345000Y-52900000D03*
G04 #@! TD*
D16*
G04 #@! TO.C,R28*
X26771554Y-63823787D03*
X26771554Y-62803787D03*
G04 #@! TD*
D52*
G04 #@! TO.C,Y1*
X12810000Y-63940000D03*
X15010000Y-63940000D03*
X15010000Y-62240000D03*
X12810000Y-62240000D03*
G04 #@! TD*
D20*
G04 #@! TO.C,C9*
X19620734Y-52860000D03*
X20580734Y-52860000D03*
G04 #@! TD*
D18*
G04 #@! TO.C,R19*
X31737500Y-45100000D03*
X34662500Y-45100000D03*
G04 #@! TD*
D19*
G04 #@! TO.C,D10*
X31200000Y-61000000D03*
X35200000Y-61000000D03*
G04 #@! TD*
D17*
G04 #@! TO.C,R11*
X12450000Y-66990000D03*
X12450000Y-68010000D03*
G04 #@! TD*
D11*
G04 #@! TO.C,C14*
X12950000Y-58330000D03*
X12950000Y-59290000D03*
G04 #@! TD*
D53*
G04 #@! TO.C,C12*
X7526432Y-19286834D03*
X9076432Y-19286834D03*
G04 #@! TD*
D22*
G04 #@! TO.C,D7*
X35200000Y-38500000D03*
X31200000Y-38500000D03*
G04 #@! TD*
D24*
G04 #@! TO.C,J7*
X39750000Y-69210000D03*
D25*
X39750000Y-65710000D03*
G04 #@! TD*
D29*
G04 #@! TO.C,SW1*
X2625000Y-51325000D03*
X2625000Y-47175000D03*
X4775000Y-51325000D03*
X4775000Y-47175000D03*
G04 #@! TD*
D48*
G04 #@! TO.C,D14*
X23100000Y-21710000D03*
X23100000Y-17710000D03*
G04 #@! TD*
D21*
G04 #@! TO.C,C17*
X3181432Y-27066834D03*
X2221432Y-27066834D03*
G04 #@! TD*
D16*
G04 #@! TO.C,R23*
X26702627Y-44908144D03*
X26702627Y-43888144D03*
G04 #@! TD*
D21*
G04 #@! TO.C,C5*
X13140000Y-60430000D03*
X12180000Y-60430000D03*
G04 #@! TD*
D27*
G04 #@! TO.C,U14*
X28175000Y-70805000D03*
X28175000Y-69535000D03*
X28175000Y-68265000D03*
X28175000Y-66995000D03*
X23225000Y-66995000D03*
X23225000Y-68265000D03*
X23225000Y-69535000D03*
X23225000Y-70805000D03*
G04 #@! TD*
D46*
G04 #@! TO.C,C4*
X16860000Y-48335000D03*
X15830000Y-48335000D03*
G04 #@! TD*
D10*
G04 #@! TO.C,C10*
X13351432Y-21226834D03*
X18751432Y-21226834D03*
G04 #@! TD*
D17*
G04 #@! TO.C,R4*
X14195000Y-45200000D03*
X14195000Y-46220000D03*
G04 #@! TD*
M02*
