G04 #@! TF.GenerationSoftware,KiCad,Pcbnew,9.0.4*
G04 #@! TF.CreationDate,2025-09-01T18:06:31-04:00*
G04 #@! TF.ProjectId,canbus-outpost,63616e62-7573-42d6-9f75-74706f73742e,v0.0.0*
G04 #@! TF.SameCoordinates,Original*
G04 #@! TF.FileFunction,Copper,L2,Bot*
G04 #@! TF.FilePolarity,Positive*
%FSLAX46Y46*%
G04 Gerber Fmt 4.6, Leading zero omitted, Abs format (unit mm)*
G04 Created by KiCad (PCBNEW 9.0.4) date 2025-09-01 18:06:31*
%MOMM*%
%LPD*%
G01*
G04 APERTURE LIST*
G04 Aperture macros list*
%AMRoundRect*
0 Rectangle with rounded corners*
0 $1 Rounding radius*
0 $2 $3 $4 $5 $6 $7 $8 $9 X,Y pos of 4 corners*
0 Add a 4 corners polygon primitive as box body*
4,1,4,$2,$3,$4,$5,$6,$7,$8,$9,$2,$3,0*
0 Add four circle primitives for the rounded corners*
1,1,$1+$1,$2,$3*
1,1,$1+$1,$4,$5*
1,1,$1+$1,$6,$7*
1,1,$1+$1,$8,$9*
0 Add four rect primitives between the rounded corners*
20,1,$1+$1,$2,$3,$4,$5,0*
20,1,$1+$1,$4,$5,$6,$7,0*
20,1,$1+$1,$6,$7,$8,$9,0*
20,1,$1+$1,$8,$9,$2,$3,0*%
G04 Aperture macros list end*
G04 #@! TA.AperFunction,EtchedComponent*
%ADD10C,0.000000*%
G04 #@! TD*
G04 #@! TA.AperFunction,ComponentPad*
%ADD11R,1.700000X1.700000*%
G04 #@! TD*
G04 #@! TA.AperFunction,ComponentPad*
%ADD12O,1.700000X1.700000*%
G04 #@! TD*
G04 #@! TA.AperFunction,ComponentPad*
%ADD13R,1.500000X1.500000*%
G04 #@! TD*
G04 #@! TA.AperFunction,ComponentPad*
%ADD14C,1.500000*%
G04 #@! TD*
G04 #@! TA.AperFunction,ComponentPad*
%ADD15C,1.700000*%
G04 #@! TD*
G04 #@! TA.AperFunction,ComponentPad*
%ADD16RoundRect,0.250000X1.550000X-0.650000X1.550000X0.650000X-1.550000X0.650000X-1.550000X-0.650000X0*%
G04 #@! TD*
G04 #@! TA.AperFunction,ComponentPad*
%ADD17O,3.600000X1.800000*%
G04 #@! TD*
G04 #@! TA.AperFunction,ComponentPad*
%ADD18RoundRect,0.250000X0.750000X-0.600000X0.750000X0.600000X-0.750000X0.600000X-0.750000X-0.600000X0*%
G04 #@! TD*
G04 #@! TA.AperFunction,ComponentPad*
%ADD19O,2.000000X1.700000*%
G04 #@! TD*
G04 #@! TA.AperFunction,ComponentPad*
%ADD20C,0.600000*%
G04 #@! TD*
G04 #@! TA.AperFunction,SMDPad,CuDef*
%ADD21R,4.500000X2.950000*%
G04 #@! TD*
G04 #@! TA.AperFunction,SMDPad,CuDef*
%ADD22RoundRect,0.150000X-0.150000X0.825000X-0.150000X-0.825000X0.150000X-0.825000X0.150000X0.825000X0*%
G04 #@! TD*
G04 #@! TA.AperFunction,SMDPad,CuDef*
%ADD23R,1.000000X1.500000*%
G04 #@! TD*
G04 #@! TA.AperFunction,ViaPad*
%ADD24C,0.600000*%
G04 #@! TD*
G04 #@! TA.AperFunction,ViaPad*
%ADD25C,0.500000*%
G04 #@! TD*
G04 #@! TA.AperFunction,ViaPad*
%ADD26C,0.450000*%
G04 #@! TD*
G04 #@! TA.AperFunction,Conductor*
%ADD27C,0.200000*%
G04 #@! TD*
G04 #@! TA.AperFunction,Conductor*
%ADD28C,0.150000*%
G04 #@! TD*
G04 #@! TA.AperFunction,Conductor*
%ADD29C,0.400000*%
G04 #@! TD*
G04 #@! TA.AperFunction,Conductor*
%ADD30C,0.600000*%
G04 #@! TD*
G04 APERTURE END LIST*
D10*
G04 #@! TA.AperFunction,EtchedComponent*
G04 #@! TO.C,JP3*
G36*
X7850000Y-14300000D02*
G01*
X7350000Y-14300000D01*
X7350000Y-13700000D01*
X7850000Y-13700000D01*
X7850000Y-14300000D01*
G37*
G04 #@! TD.AperFunction*
G04 #@! TA.AperFunction,EtchedComponent*
G04 #@! TO.C,JP2*
G36*
X7850000Y-11200000D02*
G01*
X7350000Y-11200000D01*
X7350000Y-10600000D01*
X7850000Y-10600000D01*
X7850000Y-11200000D01*
G37*
G04 #@! TD.AperFunction*
G04 #@! TD*
D11*
G04 #@! TO.P,J11,1,Pin_1*
G04 #@! TO.N,/SWCLK*
X3700000Y-63800000D03*
D12*
G04 #@! TO.P,J11,2,Pin_2*
G04 #@! TO.N,GND*
X3700000Y-66340000D03*
G04 #@! TO.P,J11,3,Pin_3*
G04 #@! TO.N,/SWDIO*
X3700000Y-68880000D03*
G04 #@! TD*
D13*
G04 #@! TO.P,J10,1*
G04 #@! TO.N,/CAN_H*
X36900000Y-11510000D03*
D14*
G04 #@! TO.P,J10,2*
G04 #@! TO.N,/CAN_L*
X35630000Y-14050000D03*
G04 #@! TO.P,J10,3*
G04 #@! TO.N,/CAN_GND*
X34360000Y-11510000D03*
G04 #@! TO.P,J10,4*
G04 #@! TO.N,/ALT_L*
X33090000Y-14050000D03*
G04 #@! TO.P,J10,5*
G04 #@! TO.N,/ALT_H*
X31820000Y-11510000D03*
G04 #@! TO.P,J10,6*
G04 #@! TO.N,/CAN_GND*
X30550000Y-14050000D03*
G04 #@! TO.P,J10,7*
X29280000Y-11510000D03*
G04 #@! TO.P,J10,8*
G04 #@! TO.N,/PWR_POS*
X28010000Y-14050000D03*
G04 #@! TD*
D11*
G04 #@! TO.P,JP1,1,A*
G04 #@! TO.N,/PWR_POS*
X2500000Y-17700000D03*
D15*
G04 #@! TO.P,JP1,2,B*
G04 #@! TO.N,VDC*
X5040000Y-17700000D03*
G04 #@! TD*
D11*
G04 #@! TO.P,J9,1,Pin_1*
G04 #@! TO.N,+5V*
X16950000Y-36900000D03*
D12*
G04 #@! TO.P,J9,2,Pin_2*
G04 #@! TO.N,/D-*
X14410000Y-36900000D03*
G04 #@! TO.P,J9,3,Pin_3*
G04 #@! TO.N,/D+*
X11870000Y-36900000D03*
G04 #@! TO.P,J9,4,Pin_4*
G04 #@! TO.N,GND*
X9330000Y-36900000D03*
G04 #@! TD*
D16*
G04 #@! TO.P,J3,1,Pin_1*
G04 #@! TO.N,/BOOSTER_L*
X39760000Y-22620000D03*
D17*
G04 #@! TO.P,J3,2,Pin_2*
G04 #@! TO.N,Net-(J3-Pin_2)*
X39760000Y-19120000D03*
G04 #@! TD*
D13*
G04 #@! TO.P,J13,1*
G04 #@! TO.N,/CAN_H*
X20000000Y-11510000D03*
D14*
G04 #@! TO.P,J13,2*
G04 #@! TO.N,/CAN_L*
X18730000Y-14050000D03*
G04 #@! TO.P,J13,3*
G04 #@! TO.N,/CAN_GND*
X17460000Y-11510000D03*
G04 #@! TO.P,J13,4*
G04 #@! TO.N,/ALT_L*
X16190000Y-14050000D03*
G04 #@! TO.P,J13,5*
G04 #@! TO.N,/ALT_H*
X14920000Y-11510000D03*
G04 #@! TO.P,J13,6*
G04 #@! TO.N,/CAN_GND*
X13650000Y-14050000D03*
G04 #@! TO.P,J13,7*
X12380000Y-11510000D03*
G04 #@! TO.P,J13,8*
G04 #@! TO.N,/PWR_POS*
X11110000Y-14050000D03*
G04 #@! TD*
D16*
G04 #@! TO.P,J5,1,Pin_1*
G04 #@! TO.N,/BOOSTER_L*
X39750000Y-50160000D03*
D17*
G04 #@! TO.P,J5,2,Pin_2*
G04 #@! TO.N,/TRACK_R3*
X39750000Y-46660000D03*
G04 #@! TD*
D11*
G04 #@! TO.P,J12,1,Pin_1*
G04 #@! TO.N,/TX*
X3700000Y-54010000D03*
D12*
G04 #@! TO.P,J12,2,Pin_2*
G04 #@! TO.N,GND*
X3700000Y-56550000D03*
G04 #@! TO.P,J12,3,Pin_3*
G04 #@! TO.N,/RX*
X3700000Y-59090000D03*
G04 #@! TD*
D16*
G04 #@! TO.P,J4,1,Pin_1*
G04 #@! TO.N,/BOOSTER_L*
X39770000Y-40630000D03*
D17*
G04 #@! TO.P,J4,2,Pin_2*
G04 #@! TO.N,/TRACK_R4*
X39770000Y-37130000D03*
G04 #@! TD*
D11*
G04 #@! TO.P,J14,1,Pin_1*
G04 #@! TO.N,/GPIO4*
X7650000Y-54050000D03*
D12*
G04 #@! TO.P,J14,2,Pin_2*
G04 #@! TO.N,/GPIO5*
X7650000Y-56590000D03*
G04 #@! TO.P,J14,3,Pin_3*
G04 #@! TO.N,/GPIO6*
X7650000Y-59130000D03*
G04 #@! TO.P,J14,4,Pin_4*
G04 #@! TO.N,/GPIO7*
X7650000Y-61670000D03*
G04 #@! TD*
D11*
G04 #@! TO.P,J1,1,Pin_1*
G04 #@! TO.N,/SERVO1*
X32650000Y-82270000D03*
D12*
G04 #@! TO.P,J1,2,Pin_2*
G04 #@! TO.N,/SERVO2*
X32650000Y-79730000D03*
G04 #@! TO.P,J1,3,Pin_3*
G04 #@! TO.N,/SERVO3*
X32650000Y-77190000D03*
G04 #@! TO.P,J1,4,Pin_4*
G04 #@! TO.N,/SERVO4*
X32650000Y-74650000D03*
G04 #@! TO.P,J1,GND,Pin_6*
G04 #@! TO.N,GND*
X37730000Y-74650000D03*
X37730000Y-77190000D03*
X37730000Y-79730000D03*
X37730000Y-82270000D03*
G04 #@! TO.P,J1,PWR,Pin_5*
G04 #@! TO.N,+5V*
X35190000Y-74650000D03*
X35190000Y-77190000D03*
X35190000Y-79730000D03*
X35190000Y-82270000D03*
G04 #@! TD*
D18*
G04 #@! TO.P,J2,1,Pin_1*
G04 #@! TO.N,/ALT_L*
X38550000Y-31160000D03*
D19*
G04 #@! TO.P,J2,2,Pin_2*
G04 #@! TO.N,/ALT_H*
X38550000Y-28660000D03*
G04 #@! TD*
D20*
G04 #@! TO.P,U3,9,GNDPAD*
G04 #@! TO.N,GND*
X6451432Y-24376834D03*
X7651432Y-24376834D03*
X8951432Y-24376834D03*
X10051432Y-24376834D03*
D21*
X8251432Y-23776834D03*
D20*
X6451432Y-23176834D03*
X7651432Y-23176834D03*
X8951432Y-23176834D03*
X10051432Y-23176834D03*
G04 #@! TD*
D16*
G04 #@! TO.P,J6,1,Pin_1*
G04 #@! TO.N,/BOOSTER_L*
X39750000Y-59705000D03*
D17*
G04 #@! TO.P,J6,2,Pin_2*
G04 #@! TO.N,/TRACK_R2*
X39750000Y-56205000D03*
G04 #@! TD*
D16*
G04 #@! TO.P,J7,1,Pin_1*
G04 #@! TO.N,/BOOSTER_L*
X39750000Y-69210000D03*
D17*
G04 #@! TO.P,J7,2,Pin_2*
G04 #@! TO.N,/TRACK_R1*
X39750000Y-65710000D03*
G04 #@! TD*
D22*
G04 #@! TO.P,U7,1*
G04 #@! TO.N,/CMP_3B*
X31295000Y-45925000D03*
G04 #@! TO.P,U7,2,-*
G04 #@! TO.N,/TRACK_R3*
X32565000Y-45925000D03*
G04 #@! TO.P,U7,3,+*
G04 #@! TO.N,/RC_REF_H*
X33835000Y-45925000D03*
G04 #@! TO.P,U7,4,V-*
G04 #@! TO.N,GNDA*
X35105000Y-45925000D03*
G04 #@! TO.P,U7,5,+*
G04 #@! TO.N,/TRACK_R3*
X35105000Y-50875000D03*
G04 #@! TO.P,U7,6,-*
G04 #@! TO.N,/RC_REF_L*
X33835000Y-50875000D03*
G04 #@! TO.P,U7,7*
G04 #@! TO.N,/CMP_3A*
X32565000Y-50875000D03*
G04 #@! TO.P,U7,8,V+*
G04 #@! TO.N,+5VR*
X31295000Y-50875000D03*
G04 #@! TD*
G04 #@! TO.P,U9,1*
G04 #@! TO.N,/CMP_1B*
X31295000Y-64925000D03*
G04 #@! TO.P,U9,2,-*
G04 #@! TO.N,/TRACK_R1*
X32565000Y-64925000D03*
G04 #@! TO.P,U9,3,+*
G04 #@! TO.N,/RC_REF_H*
X33835000Y-64925000D03*
G04 #@! TO.P,U9,4,V-*
G04 #@! TO.N,GNDA*
X35105000Y-64925000D03*
G04 #@! TO.P,U9,5,+*
G04 #@! TO.N,/TRACK_R1*
X35105000Y-69875000D03*
G04 #@! TO.P,U9,6,-*
G04 #@! TO.N,/RC_REF_L*
X33835000Y-69875000D03*
G04 #@! TO.P,U9,7*
G04 #@! TO.N,/CMP_1A*
X32565000Y-69875000D03*
G04 #@! TO.P,U9,8,V+*
G04 #@! TO.N,+5VR*
X31295000Y-69875000D03*
G04 #@! TD*
D23*
G04 #@! TO.P,JP3,1,A*
G04 #@! TO.N,/PWR_POS*
X8250000Y-14000000D03*
G04 #@! TO.P,JP3,2,B*
G04 #@! TO.N,VDC*
X6950000Y-14000000D03*
G04 #@! TD*
D22*
G04 #@! TO.P,U6,1*
G04 #@! TO.N,/CMP_4B*
X31295000Y-36425000D03*
G04 #@! TO.P,U6,2,-*
G04 #@! TO.N,/TRACK_R4*
X32565000Y-36425000D03*
G04 #@! TO.P,U6,3,+*
G04 #@! TO.N,/RC_REF_H*
X33835000Y-36425000D03*
G04 #@! TO.P,U6,4,V-*
G04 #@! TO.N,GNDA*
X35105000Y-36425000D03*
G04 #@! TO.P,U6,5,+*
G04 #@! TO.N,/TRACK_R4*
X35105000Y-41375000D03*
G04 #@! TO.P,U6,6,-*
G04 #@! TO.N,/RC_REF_L*
X33835000Y-41375000D03*
G04 #@! TO.P,U6,7*
G04 #@! TO.N,/CMP_4A*
X32565000Y-41375000D03*
G04 #@! TO.P,U6,8,V+*
G04 #@! TO.N,+5VR*
X31295000Y-41375000D03*
G04 #@! TD*
G04 #@! TO.P,U8,1*
G04 #@! TO.N,/CMP_2B*
X31295000Y-55525000D03*
G04 #@! TO.P,U8,2,-*
G04 #@! TO.N,/TRACK_R2*
X32565000Y-55525000D03*
G04 #@! TO.P,U8,3,+*
G04 #@! TO.N,/RC_REF_H*
X33835000Y-55525000D03*
G04 #@! TO.P,U8,4,V-*
G04 #@! TO.N,GNDA*
X35105000Y-55525000D03*
G04 #@! TO.P,U8,5,+*
G04 #@! TO.N,/TRACK_R2*
X35105000Y-60475000D03*
G04 #@! TO.P,U8,6,-*
G04 #@! TO.N,/RC_REF_L*
X33835000Y-60475000D03*
G04 #@! TO.P,U8,7*
G04 #@! TO.N,/CMP_2A*
X32565000Y-60475000D03*
G04 #@! TO.P,U8,8,V+*
G04 #@! TO.N,+5VR*
X31295000Y-60475000D03*
G04 #@! TD*
D23*
G04 #@! TO.P,JP2,1,A*
G04 #@! TO.N,/CAN_GND*
X8250000Y-10900000D03*
G04 #@! TO.P,JP2,2,B*
G04 #@! TO.N,GND*
X6950000Y-10900000D03*
G04 #@! TD*
D24*
G04 #@! TO.N,GND*
X18550000Y-32000000D03*
X15700000Y-54260000D03*
X18800000Y-19900000D03*
D25*
X23750000Y-64550000D03*
D24*
X12950000Y-54260000D03*
X27700000Y-80150000D03*
X14360000Y-51510000D03*
X20550000Y-53610000D03*
D25*
X3650000Y-11900000D03*
D24*
X17445000Y-47460000D03*
X18193229Y-48904235D03*
X19900000Y-57310000D03*
X5150000Y-43650000D03*
X12960000Y-51510000D03*
X13040000Y-44110000D03*
X14350000Y-52880000D03*
X15050000Y-43250000D03*
X15710000Y-51510000D03*
X17500000Y-32000000D03*
D25*
X23246593Y-56600000D03*
D24*
X12950000Y-52880000D03*
D25*
X23258283Y-47100000D03*
D24*
X15900000Y-59310000D03*
D25*
X23150000Y-37700000D03*
D24*
X19800000Y-19900000D03*
X27700000Y-86300000D03*
X14350000Y-54260000D03*
X20550000Y-51150000D03*
X16360000Y-60430000D03*
X17750000Y-19900000D03*
D25*
X4750000Y-49250000D03*
D24*
X19650000Y-32000000D03*
X11450000Y-60410000D03*
X16850000Y-43250000D03*
X17445000Y-48060000D03*
X26800000Y-80150000D03*
X16000000Y-43250000D03*
D25*
X21900000Y-62600000D03*
D24*
X26800000Y-86300000D03*
X15700000Y-52880000D03*
X20900000Y-44900000D03*
D25*
G04 #@! TO.N,+3.3V*
X12295000Y-46950000D03*
X19650000Y-53675000D03*
X22650000Y-44400000D03*
X3300000Y-15510000D03*
X9600000Y-39823175D03*
X22600000Y-53800000D03*
X20900000Y-45750000D03*
D24*
X3700000Y-34950000D03*
D25*
G04 #@! TO.N,+5V*
X11500000Y-66400000D03*
G04 #@! TO.N,/BOOSTER_L*
X24500000Y-17400000D03*
G04 #@! TO.N,/TRACK_R1*
X33200000Y-67000000D03*
D24*
X35162500Y-68500000D03*
D25*
G04 #@! TO.N,/TRACK_R2*
X35200000Y-59150000D03*
X33200000Y-57400000D03*
D24*
G04 #@! TO.N,+1V1*
X12190000Y-52110000D03*
X14845000Y-47160000D03*
X14845000Y-47760000D03*
X14500000Y-55050002D03*
X14500000Y-57560000D03*
X14849641Y-50749998D03*
X9334651Y-52106547D03*
X16500000Y-52260000D03*
X19000000Y-52260000D03*
D25*
G04 #@! TO.N,VDC*
X3716038Y-37116038D03*
X3256417Y-37575659D03*
G04 #@! TO.N,/TRACK_R3*
X35200000Y-49550000D03*
X33150000Y-48000000D03*
G04 #@! TO.N,/TRACK_R4*
X33100000Y-38500000D03*
X35200000Y-40050000D03*
D26*
G04 #@! TO.N,/SWCLK*
X16075094Y-58270964D03*
G04 #@! TO.N,/SWDIO*
X16700027Y-58280299D03*
D25*
G04 #@! TO.N,/ALT_H*
X40026591Y-15280517D03*
G04 #@! TO.N,/ALT_L*
X39566970Y-15740138D03*
G04 #@! TO.N,/CAN_GND*
X34350000Y-14050000D03*
X17450000Y-14050000D03*
X29300000Y-14050000D03*
X37500000Y-14050000D03*
X21650000Y-14050000D03*
D26*
G04 #@! TO.N,/SERVO1*
X9295029Y-70895546D03*
G04 #@! TO.N,/SERVO3*
X10281342Y-70350000D03*
G04 #@! TO.N,/SERVO2*
X9600000Y-70350000D03*
G04 #@! TO.N,/SERVO4*
X10602061Y-70886440D03*
D25*
G04 #@! TO.N,/CMP_1B*
X27053751Y-68703751D03*
G04 #@! TO.N,/CMP_1A*
X27050000Y-70000000D03*
G04 #@! TO.N,/CMP_2B*
X27081843Y-59231843D03*
G04 #@! TO.N,/CMP_2A*
X27100000Y-60500000D03*
D26*
G04 #@! TO.N,/CAN_TX*
X9550000Y-50910000D03*
X2900000Y-13760000D03*
G04 #@! TO.N,/CAN_RX*
X8924997Y-50910000D03*
X5600000Y-12600000D03*
D25*
G04 #@! TO.N,/CMP_3B*
X27050000Y-49750000D03*
G04 #@! TO.N,/CMP_3A*
X27062500Y-50987500D03*
G04 #@! TO.N,/CMP_4B*
X26943955Y-40343955D03*
G04 #@! TO.N,/CMP_4A*
X27075000Y-41525000D03*
G04 #@! TO.N,/RC_REF_L*
X25000000Y-21600000D03*
G04 #@! TO.N,/RC_REF_H*
X24959215Y-20624242D03*
G04 #@! TO.N,Net-(U2-GPIO25)*
X13400000Y-66400000D03*
X19050000Y-53400000D03*
G04 #@! TO.N,+5VR*
X29450000Y-60750000D03*
X29379819Y-41820181D03*
X29800000Y-32100000D03*
X29400000Y-70300000D03*
X29400000Y-35500000D03*
X26550000Y-22700000D03*
X29450000Y-51250000D03*
G04 #@! TO.N,Net-(C23-Pad2)*
X24950000Y-18250000D03*
X23850000Y-24750000D03*
G04 #@! TO.N,GNDD*
X29458143Y-72550000D03*
X26031627Y-72142206D03*
G04 #@! TO.N,GNDA*
X27400000Y-18248120D03*
G04 #@! TD*
D27*
G04 #@! TO.N,+3.3V*
X20850000Y-45750000D02*
X20900000Y-45750000D01*
X21000000Y-45750000D02*
X20850000Y-45750000D01*
X20136000Y-54161000D02*
X19650000Y-53675000D01*
X21300000Y-45750000D02*
X21000000Y-45750000D01*
D28*
X3700000Y-15910000D02*
X3300000Y-15510000D01*
D27*
X22600000Y-53800000D02*
X22239000Y-54161000D01*
D28*
X12295000Y-42518175D02*
X9600000Y-39823175D01*
X12295000Y-46950000D02*
X12295000Y-42518175D01*
D27*
X22650000Y-44400000D02*
X21300000Y-45750000D01*
X22239000Y-54161000D02*
X20136000Y-54161000D01*
D28*
X3700000Y-34950000D02*
X3700000Y-15910000D01*
D29*
G04 #@! TO.N,+5V*
X35190000Y-74650000D02*
X33890000Y-73350000D01*
X24350000Y-44300000D02*
X16950000Y-36900000D01*
X24350000Y-66050000D02*
X24350000Y-44300000D01*
X24350000Y-71600000D02*
X24350000Y-66050000D01*
D28*
X22700000Y-67700000D02*
X24350000Y-66050000D01*
X12800000Y-67700000D02*
X22700000Y-67700000D01*
D29*
X26100000Y-73350000D02*
X24350000Y-71600000D01*
D28*
X11500000Y-66400000D02*
X12800000Y-67700000D01*
D29*
X33890000Y-73350000D02*
X26100000Y-73350000D01*
D27*
G04 #@! TO.N,/BOOSTER_L*
X30600000Y-17100000D02*
X36120000Y-22620000D01*
X24800000Y-17100000D02*
X30600000Y-17100000D01*
X24500000Y-17400000D02*
X24800000Y-17100000D01*
X36120000Y-22620000D02*
X39760000Y-22620000D01*
D28*
G04 #@! TO.N,/TRACK_R1*
X32565000Y-66365000D02*
X32565000Y-64925000D01*
X35105000Y-68557500D02*
X35162500Y-68500000D01*
X33200000Y-67000000D02*
X32565000Y-66365000D01*
X35105000Y-69875000D02*
X35105000Y-68557500D01*
G04 #@! TO.N,/TRACK_R2*
X35200000Y-59150000D02*
X35150000Y-59150000D01*
X32565000Y-56765000D02*
X32565000Y-55525000D01*
X35150000Y-59150000D02*
X35105000Y-59195000D01*
X33200000Y-57400000D02*
X32565000Y-56765000D01*
X35105000Y-59195000D02*
X35105000Y-60475000D01*
D30*
G04 #@! TO.N,+1V1*
X14857230Y-50747770D02*
X14857230Y-47172230D01*
X9338104Y-52110000D02*
X12190000Y-52110000D01*
X14500000Y-55050002D02*
X14500000Y-57560000D01*
X19000000Y-52260000D02*
X16500000Y-52260000D01*
X9334651Y-52106547D02*
X9338104Y-52110000D01*
X14857230Y-47172230D02*
X14845000Y-47160000D01*
G04 #@! TO.N,VDC*
X5100000Y-17640000D02*
X5040000Y-17700000D01*
X4500000Y-36332075D02*
X4500000Y-20300000D01*
X5100000Y-17760000D02*
X5040000Y-17700000D01*
X6950000Y-14000000D02*
X6400000Y-14000000D01*
X4500000Y-20300000D02*
X5100000Y-19700000D01*
X5100000Y-15300000D02*
X5100000Y-17640000D01*
X5100000Y-19700000D02*
X5100000Y-17760000D01*
X3256417Y-37575659D02*
X3716038Y-37116038D01*
X3716038Y-37116038D02*
X4500000Y-36332075D01*
X6400000Y-14000000D02*
X5100000Y-15300000D01*
D28*
G04 #@! TO.N,/TRACK_R3*
X32565000Y-47415000D02*
X32565000Y-45925000D01*
X33150000Y-48000000D02*
X32565000Y-47415000D01*
X35105000Y-49645000D02*
X35200000Y-49550000D01*
X35105000Y-50875000D02*
X35105000Y-49645000D01*
G04 #@! TO.N,/TRACK_R4*
X35105000Y-40145000D02*
X35200000Y-40050000D01*
X35105000Y-41375000D02*
X35105000Y-40145000D01*
X32565000Y-37965000D02*
X33100000Y-38500000D01*
X32565000Y-36425000D02*
X32565000Y-37965000D01*
G04 #@! TO.N,/SWCLK*
X16074997Y-58271061D02*
X16074997Y-58285003D01*
X4265000Y-63235000D02*
X3700000Y-63800000D01*
X16074997Y-58285003D02*
X15877000Y-58483000D01*
X15877000Y-58483000D02*
X14267000Y-58483000D01*
X14267000Y-58483000D02*
X9515000Y-63235000D01*
X16075094Y-58270964D02*
X16074997Y-58271061D01*
X9515000Y-63235000D02*
X4265000Y-63235000D01*
G04 #@! TO.N,/SWDIO*
X16700027Y-58319197D02*
X16235224Y-58784000D01*
X16700027Y-58280299D02*
X16700027Y-58319197D01*
X16235224Y-58784000D02*
X14466000Y-58784000D01*
X4370000Y-68880000D02*
X3700000Y-68880000D01*
X14466000Y-58784000D02*
X4370000Y-68880000D01*
G04 #@! TO.N,/ALT_H*
X40026591Y-15280517D02*
X40026591Y-15501591D01*
X40026591Y-15501591D02*
X42700000Y-18175000D01*
X42700000Y-24510000D02*
X38550000Y-28660000D01*
X42700000Y-18175000D02*
X42700000Y-24510000D01*
G04 #@! TO.N,/ALT_L*
X42399000Y-24385322D02*
X39224322Y-27560000D01*
X37324000Y-28214306D02*
X37324000Y-29934000D01*
X37978306Y-27560000D02*
X37324000Y-28214306D01*
X39813046Y-15740138D02*
X39829425Y-15756517D01*
X37324000Y-29934000D02*
X38550000Y-31160000D01*
X39224322Y-27560000D02*
X37978306Y-27560000D01*
X39566970Y-15740138D02*
X39813046Y-15740138D01*
X39855839Y-15756517D02*
X42399000Y-18299678D01*
X39829425Y-15756517D02*
X39855839Y-15756517D01*
X42399000Y-18299678D02*
X42399000Y-24385322D01*
D30*
G04 #@! TO.N,/CAN_GND*
X10250000Y-10900000D02*
X8250000Y-10900000D01*
D29*
G04 #@! TO.N,/PWR_POS*
X25810000Y-16250000D02*
X28010000Y-14050000D01*
X11110000Y-15240000D02*
X12120000Y-16250000D01*
D30*
X8250000Y-14000000D02*
X8300000Y-14050000D01*
D29*
X11110000Y-15240000D02*
X11110000Y-14050000D01*
D30*
X8300000Y-14050000D02*
X11110000Y-14050000D01*
D29*
X12120000Y-16250000D02*
X25810000Y-16250000D01*
D28*
G04 #@! TO.N,/SERVO1*
X12149644Y-78901000D02*
X29281000Y-78901000D01*
X9295029Y-70895546D02*
X9498000Y-71098517D01*
X29281000Y-78901000D02*
X32650000Y-82270000D01*
X9498000Y-71098517D02*
X9498000Y-76249356D01*
X9498000Y-76249356D02*
X12149644Y-78901000D01*
G04 #@! TO.N,/SERVO3*
X31540000Y-78300000D02*
X32650000Y-77190000D01*
X12400000Y-78300000D02*
X31540000Y-78300000D01*
X10281342Y-70350000D02*
X10100000Y-70531342D01*
X10100000Y-70531342D02*
X10100000Y-76000000D01*
X10100000Y-76000000D02*
X12400000Y-78300000D01*
G04 #@! TO.N,/SERVO2*
X31520000Y-78600000D02*
X32650000Y-79730000D01*
X9799000Y-70551807D02*
X9799000Y-76124678D01*
X9656342Y-70406342D02*
X9656342Y-70409149D01*
X12274322Y-78600000D02*
X31520000Y-78600000D01*
X9656342Y-70409149D02*
X9799000Y-70551807D01*
X9600000Y-70350000D02*
X9656342Y-70406342D01*
X9799000Y-76124678D02*
X12274322Y-78600000D01*
G04 #@! TO.N,/SERVO4*
X10602061Y-70886440D02*
X10401000Y-71087501D01*
X10401000Y-75875322D02*
X12524678Y-77999000D01*
X10401000Y-71087501D02*
X10401000Y-75875322D01*
X12524678Y-77999000D02*
X29301000Y-77999000D01*
X29301000Y-77999000D02*
X32650000Y-74650000D01*
G04 #@! TO.N,/CMP_1B*
X31295000Y-65855000D02*
X31295000Y-64925000D01*
X28346249Y-68803751D02*
X31295000Y-65855000D01*
X27053751Y-68703751D02*
X27153751Y-68803751D01*
X27153751Y-68803751D02*
X28346249Y-68803751D01*
G04 #@! TO.N,/CMP_1A*
X27050000Y-70000000D02*
X28450000Y-70000000D01*
X28450000Y-70000000D02*
X29776000Y-68674000D01*
X32565000Y-68900001D02*
X32565000Y-69875000D01*
X32338999Y-68674000D02*
X32565000Y-68900001D01*
X29776000Y-68674000D02*
X32338999Y-68674000D01*
G04 #@! TO.N,/CMP_2B*
X27091250Y-59241250D02*
X28458750Y-59241250D01*
X27081843Y-59231843D02*
X27091250Y-59241250D01*
X28458750Y-59241250D02*
X31295000Y-56405000D01*
X31295000Y-56405000D02*
X31295000Y-55525000D01*
G04 #@! TO.N,/CMP_2A*
X32338999Y-59274000D02*
X32565000Y-59500001D01*
X32565000Y-59500001D02*
X32565000Y-60475000D01*
X29626000Y-59274000D02*
X32338999Y-59274000D01*
X28400000Y-60500000D02*
X29626000Y-59274000D01*
X27100000Y-60500000D02*
X28400000Y-60500000D01*
G04 #@! TO.N,/CAN_TX*
X1299000Y-15361000D02*
X1299000Y-42599000D01*
X1299000Y-42599000D02*
X9550000Y-50850000D01*
X2900000Y-13760000D02*
X1299000Y-15361000D01*
X9550000Y-50850000D02*
X9550000Y-50910000D01*
G04 #@! TO.N,/CAN_RX*
X998000Y-15002000D02*
X998000Y-42723678D01*
X2424000Y-13576000D02*
X998000Y-15002000D01*
X2424000Y-13562834D02*
X2424000Y-13576000D01*
X5600000Y-12600000D02*
X3386834Y-12600000D01*
X8924997Y-50650675D02*
X8924997Y-50910000D01*
X3386834Y-12600000D02*
X2424000Y-13562834D01*
X998000Y-42723678D02*
X8924997Y-50650675D01*
G04 #@! TO.N,/CMP_3B*
X31295000Y-46855000D02*
X31295000Y-45925000D01*
X27075000Y-49725000D02*
X28425000Y-49725000D01*
X28425000Y-49725000D02*
X31295000Y-46855000D01*
X27050000Y-49750000D02*
X27075000Y-49725000D01*
G04 #@! TO.N,/CMP_3A*
X29726000Y-49674000D02*
X32338999Y-49674000D01*
X27062500Y-50987500D02*
X27075000Y-50975000D01*
X32565000Y-49900001D02*
X32565000Y-50875000D01*
X32338999Y-49674000D02*
X32565000Y-49900001D01*
X28425000Y-50975000D02*
X29726000Y-49674000D01*
X27075000Y-50975000D02*
X28425000Y-50975000D01*
G04 #@! TO.N,/CMP_4B*
X26943955Y-40343955D02*
X28056045Y-40343955D01*
X28056045Y-40343955D02*
X31295000Y-37105000D01*
X31295000Y-37105000D02*
X31295000Y-36425000D01*
G04 #@! TO.N,/CMP_4A*
X31900000Y-40000000D02*
X32565000Y-40665000D01*
X28275000Y-41525000D02*
X29800000Y-40000000D01*
X29800000Y-40000000D02*
X31900000Y-40000000D01*
X27075000Y-41525000D02*
X28275000Y-41525000D01*
X32565000Y-40665000D02*
X32565000Y-41375000D01*
G04 #@! TO.N,/RC_REF_L*
X33200000Y-65900000D02*
X33200000Y-62875000D01*
D27*
X33835000Y-38270370D02*
X33835000Y-41375000D01*
D28*
X33200000Y-62875000D02*
X33835000Y-62240000D01*
D27*
X25000000Y-21600000D02*
X26500000Y-21600000D01*
X33200000Y-28300000D02*
X33200000Y-37635370D01*
D28*
X33835000Y-60475000D02*
X33835000Y-57185000D01*
X33835000Y-52765000D02*
X33835000Y-50875000D01*
D27*
X26500000Y-21600000D02*
X33200000Y-28300000D01*
D28*
X33200000Y-53400000D02*
X33835000Y-52765000D01*
X33250000Y-43850000D02*
X33835000Y-43265000D01*
X33835000Y-69875000D02*
X33835000Y-66535000D01*
X33835000Y-47685000D02*
X33250000Y-47100000D01*
X33835000Y-50875000D02*
X33835000Y-47685000D01*
X33250000Y-47100000D02*
X33250000Y-43850000D01*
X33200000Y-56550000D02*
X33200000Y-53400000D01*
X33835000Y-66535000D02*
X33200000Y-65900000D01*
X33835000Y-57185000D02*
X33200000Y-56550000D01*
D27*
X33200000Y-37635370D02*
X33835000Y-38270370D01*
D28*
X33835000Y-62240000D02*
X33835000Y-60475000D01*
X33835000Y-43265000D02*
X33835000Y-41375000D01*
G04 #@! TO.N,/RC_REF_H*
X33835000Y-37535000D02*
X33835000Y-36425000D01*
X33835000Y-55525000D02*
X33835000Y-56585000D01*
X34450000Y-43350000D02*
X34450000Y-38150000D01*
X33835000Y-56585000D02*
X34450000Y-57200000D01*
D27*
X26524242Y-20624242D02*
X33835000Y-27935000D01*
D28*
X34450000Y-62500000D02*
X33835000Y-63115000D01*
X33835000Y-43965000D02*
X34450000Y-43350000D01*
X34400000Y-47600000D02*
X34400000Y-53000000D01*
D27*
X33835000Y-27935000D02*
X33835000Y-36425000D01*
D28*
X34400000Y-53000000D02*
X33835000Y-53565000D01*
X33835000Y-63115000D02*
X33835000Y-64925000D01*
X33835000Y-45925000D02*
X33835000Y-43965000D01*
X33835000Y-45925000D02*
X33835000Y-47035000D01*
D27*
X24959215Y-20624242D02*
X26524242Y-20624242D01*
D28*
X34450000Y-38150000D02*
X33835000Y-37535000D01*
X34450000Y-57200000D02*
X34450000Y-62500000D01*
X33835000Y-53565000D02*
X33835000Y-55525000D01*
X33835000Y-47035000D02*
X34400000Y-47600000D01*
G04 #@! TO.N,Net-(U2-GPIO25)*
X19050000Y-60750000D02*
X19050000Y-53400000D01*
X13400000Y-66400000D02*
X19050000Y-60750000D01*
D27*
G04 #@! TO.N,+5VR*
X31295000Y-69875000D02*
X31295000Y-70105000D01*
X31295000Y-50875000D02*
X31295000Y-51155000D01*
X31079819Y-41820181D02*
X29379819Y-41820181D01*
X31295000Y-70105000D02*
X31100000Y-70300000D01*
X31295000Y-60475000D02*
X31020000Y-60750000D01*
X31020000Y-60750000D02*
X29450000Y-60750000D01*
X31295000Y-41605000D02*
X31079819Y-41820181D01*
X29800000Y-25950000D02*
X26550000Y-22700000D01*
X29800000Y-32100000D02*
X29800000Y-25950000D01*
X29400000Y-32500000D02*
X29400000Y-35500000D01*
X31295000Y-51155000D02*
X31200000Y-51250000D01*
X29800000Y-32100000D02*
X29400000Y-32500000D01*
X31100000Y-70300000D02*
X29400000Y-70300000D01*
X31200000Y-51250000D02*
X29450000Y-51250000D01*
X31295000Y-41375000D02*
X31295000Y-41605000D01*
G04 #@! TO.N,Net-(C23-Pad2)*
X23850000Y-19350000D02*
X24950000Y-18250000D01*
X23850000Y-24750000D02*
X23850000Y-19350000D01*
G04 #@! TO.N,GNDD*
X26466973Y-72577552D02*
X26031627Y-72142206D01*
X29458143Y-72550000D02*
X26600000Y-72550000D01*
X26600000Y-72550000D02*
X26572448Y-72577552D01*
X26572448Y-72577552D02*
X26466973Y-72577552D01*
G04 #@! TO.N,GNDA*
X35105000Y-34800000D02*
X35105000Y-36425000D01*
X34500000Y-27600000D02*
X34500000Y-34195000D01*
X34500000Y-34195000D02*
X35105000Y-34800000D01*
X27400000Y-18248120D02*
X27400000Y-20500000D01*
X27400000Y-20500000D02*
X34500000Y-27600000D01*
G04 #@! TD*
G04 #@! TA.AperFunction,Conductor*
G04 #@! TO.N,/CAN_GND*
G36*
X37667183Y-9518907D02*
G01*
X37678996Y-9528996D01*
X38671004Y-10521004D01*
X38698781Y-10575521D01*
X38700000Y-10591008D01*
X38700000Y-14558992D01*
X38681093Y-14617183D01*
X38671004Y-14628996D01*
X37578996Y-15721004D01*
X37524479Y-15748781D01*
X37508992Y-15750000D01*
X27044690Y-15750000D01*
X26986499Y-15731093D01*
X26950535Y-15681593D01*
X26950535Y-15620407D01*
X26974686Y-15580997D01*
X27624512Y-14931169D01*
X27679029Y-14903391D01*
X27732401Y-14909708D01*
X27747334Y-14915894D01*
X27921309Y-14950500D01*
X27921310Y-14950500D01*
X28098690Y-14950500D01*
X28098691Y-14950500D01*
X28272666Y-14915894D01*
X28436547Y-14848013D01*
X28584035Y-14749464D01*
X28709464Y-14624035D01*
X28808013Y-14476547D01*
X28875894Y-14312666D01*
X28910500Y-14138691D01*
X28910500Y-13961309D01*
X28908550Y-13951506D01*
X29550000Y-13951506D01*
X29550000Y-14148493D01*
X29588429Y-14341688D01*
X29588429Y-14341690D01*
X29663809Y-14523674D01*
X29758232Y-14664989D01*
X30207114Y-14216106D01*
X30245924Y-14283325D01*
X30316675Y-14354076D01*
X30383891Y-14392883D01*
X29935009Y-14841766D01*
X30076324Y-14936190D01*
X30258310Y-15011570D01*
X30451506Y-15049999D01*
X30451510Y-15050000D01*
X30648490Y-15050000D01*
X30648493Y-15049999D01*
X30841688Y-15011570D01*
X30841690Y-15011570D01*
X31023675Y-14936190D01*
X31164989Y-14841766D01*
X30716107Y-14392884D01*
X30783325Y-14354076D01*
X30854076Y-14283325D01*
X30892884Y-14216107D01*
X31341766Y-14664989D01*
X31436190Y-14523675D01*
X31511570Y-14341690D01*
X31511570Y-14341688D01*
X31549999Y-14148493D01*
X31550000Y-14148490D01*
X31550000Y-13961306D01*
X32189500Y-13961306D01*
X32189500Y-14138693D01*
X32224106Y-14312665D01*
X32224106Y-14312667D01*
X32291985Y-14476544D01*
X32291985Y-14476545D01*
X32390535Y-14624034D01*
X32390536Y-14624035D01*
X32515965Y-14749464D01*
X32663453Y-14848013D01*
X32663454Y-14848013D01*
X32663455Y-14848014D01*
X32700581Y-14863391D01*
X32827334Y-14915894D01*
X33001309Y-14950500D01*
X33001310Y-14950500D01*
X33178690Y-14950500D01*
X33178691Y-14950500D01*
X33352666Y-14915894D01*
X33516547Y-14848013D01*
X33664035Y-14749464D01*
X33789464Y-14624035D01*
X33888013Y-14476547D01*
X33955894Y-14312666D01*
X33990500Y-14138691D01*
X33990500Y-13961309D01*
X33990499Y-13961306D01*
X34729500Y-13961306D01*
X34729500Y-14138693D01*
X34764106Y-14312665D01*
X34764106Y-14312667D01*
X34831985Y-14476544D01*
X34831985Y-14476545D01*
X34930535Y-14624034D01*
X34930536Y-14624035D01*
X35055965Y-14749464D01*
X35203453Y-14848013D01*
X35203454Y-14848013D01*
X35203455Y-14848014D01*
X35240581Y-14863391D01*
X35367334Y-14915894D01*
X35541309Y-14950500D01*
X35541310Y-14950500D01*
X35718690Y-14950500D01*
X35718691Y-14950500D01*
X35892666Y-14915894D01*
X36056547Y-14848013D01*
X36204035Y-14749464D01*
X36329464Y-14624035D01*
X36428013Y-14476547D01*
X36495894Y-14312666D01*
X36530500Y-14138691D01*
X36530500Y-13961309D01*
X36495894Y-13787334D01*
X36428014Y-13623455D01*
X36428014Y-13623454D01*
X36329464Y-13475965D01*
X36204034Y-13350535D01*
X36056544Y-13251985D01*
X35892666Y-13184106D01*
X35718693Y-13149500D01*
X35718691Y-13149500D01*
X35541309Y-13149500D01*
X35541306Y-13149500D01*
X35367334Y-13184106D01*
X35367332Y-13184106D01*
X35203455Y-13251985D01*
X35203454Y-13251985D01*
X35055965Y-13350535D01*
X34930535Y-13475965D01*
X34831985Y-13623454D01*
X34831985Y-13623455D01*
X34764106Y-13787332D01*
X34764106Y-13787334D01*
X34729500Y-13961306D01*
X33990499Y-13961306D01*
X33955894Y-13787334D01*
X33888014Y-13623455D01*
X33888014Y-13623454D01*
X33789464Y-13475965D01*
X33664034Y-13350535D01*
X33516544Y-13251985D01*
X33352666Y-13184106D01*
X33178693Y-13149500D01*
X33178691Y-13149500D01*
X33001309Y-13149500D01*
X33001306Y-13149500D01*
X32827334Y-13184106D01*
X32827332Y-13184106D01*
X32663455Y-13251985D01*
X32663454Y-13251985D01*
X32515965Y-13350535D01*
X32390535Y-13475965D01*
X32291985Y-13623454D01*
X32291985Y-13623455D01*
X32224106Y-13787332D01*
X32224106Y-13787334D01*
X32189500Y-13961306D01*
X31550000Y-13961306D01*
X31550000Y-13951509D01*
X31549999Y-13951506D01*
X31511570Y-13758311D01*
X31511570Y-13758309D01*
X31436190Y-13576324D01*
X31436190Y-13576323D01*
X31341766Y-13435009D01*
X30892883Y-13883891D01*
X30854076Y-13816675D01*
X30783325Y-13745924D01*
X30716106Y-13707114D01*
X31164989Y-13258232D01*
X31023674Y-13163809D01*
X30841689Y-13088429D01*
X30648493Y-13050000D01*
X30451506Y-13050000D01*
X30258311Y-13088429D01*
X30258309Y-13088429D01*
X30076324Y-13163809D01*
X29935009Y-13258232D01*
X30383892Y-13707115D01*
X30316675Y-13745924D01*
X30245924Y-13816675D01*
X30207115Y-13883892D01*
X29758232Y-13435009D01*
X29663809Y-13576324D01*
X29588429Y-13758309D01*
X29588429Y-13758311D01*
X29550000Y-13951506D01*
X28908550Y-13951506D01*
X28875894Y-13787334D01*
X28808014Y-13623455D01*
X28808014Y-13623454D01*
X28709464Y-13475965D01*
X28584034Y-13350535D01*
X28436544Y-13251985D01*
X28272666Y-13184106D01*
X28098693Y-13149500D01*
X28098691Y-13149500D01*
X27921309Y-13149500D01*
X27921306Y-13149500D01*
X27747334Y-13184106D01*
X27747332Y-13184106D01*
X27583455Y-13251985D01*
X27583454Y-13251985D01*
X27435965Y-13350535D01*
X27310535Y-13475965D01*
X27211985Y-13623454D01*
X27211985Y-13623455D01*
X27144106Y-13787332D01*
X27144106Y-13787334D01*
X27109500Y-13961306D01*
X27109500Y-14138693D01*
X27144106Y-14312665D01*
X27144106Y-14312667D01*
X27150291Y-14327599D01*
X27155090Y-14388596D01*
X27128830Y-14435486D01*
X25843314Y-15721004D01*
X25788797Y-15748781D01*
X25773310Y-15750000D01*
X12156690Y-15750000D01*
X12098499Y-15731093D01*
X12086686Y-15721004D01*
X11489496Y-15123814D01*
X11485869Y-15116696D01*
X11479407Y-15112001D01*
X11472243Y-15089952D01*
X11461719Y-15069297D01*
X11460500Y-15053810D01*
X11460500Y-14945662D01*
X11479407Y-14887471D01*
X11521614Y-14854198D01*
X11536547Y-14848013D01*
X11536549Y-14848011D01*
X11536554Y-14848009D01*
X11610792Y-14798403D01*
X11684035Y-14749464D01*
X11809464Y-14624035D01*
X11908013Y-14476547D01*
X11975894Y-14312666D01*
X12010500Y-14138691D01*
X12010500Y-13961309D01*
X12008550Y-13951506D01*
X12650000Y-13951506D01*
X12650000Y-14148493D01*
X12688429Y-14341688D01*
X12688429Y-14341690D01*
X12763809Y-14523674D01*
X12858232Y-14664989D01*
X13307114Y-14216106D01*
X13345924Y-14283325D01*
X13416675Y-14354076D01*
X13483891Y-14392883D01*
X13035009Y-14841766D01*
X13176324Y-14936190D01*
X13358310Y-15011570D01*
X13551506Y-15049999D01*
X13551510Y-15050000D01*
X13748490Y-15050000D01*
X13748493Y-15049999D01*
X13941688Y-15011570D01*
X13941690Y-15011570D01*
X14123675Y-14936190D01*
X14264989Y-14841766D01*
X13816107Y-14392884D01*
X13883325Y-14354076D01*
X13954076Y-14283325D01*
X13992884Y-14216107D01*
X14441766Y-14664989D01*
X14536190Y-14523675D01*
X14611570Y-14341690D01*
X14611570Y-14341688D01*
X14649999Y-14148493D01*
X14650000Y-14148490D01*
X14650000Y-13961306D01*
X15289500Y-13961306D01*
X15289500Y-14138693D01*
X15324106Y-14312665D01*
X15324106Y-14312667D01*
X15391985Y-14476544D01*
X15391985Y-14476545D01*
X15490535Y-14624034D01*
X15490536Y-14624035D01*
X15615965Y-14749464D01*
X15763453Y-14848013D01*
X15763454Y-14848013D01*
X15763455Y-14848014D01*
X15800581Y-14863391D01*
X15927334Y-14915894D01*
X16101309Y-14950500D01*
X16101310Y-14950500D01*
X16278690Y-14950500D01*
X16278691Y-14950500D01*
X16452666Y-14915894D01*
X16616547Y-14848013D01*
X16764035Y-14749464D01*
X16889464Y-14624035D01*
X16988013Y-14476547D01*
X17055894Y-14312666D01*
X17090500Y-14138691D01*
X17090500Y-13961309D01*
X17090499Y-13961306D01*
X17829500Y-13961306D01*
X17829500Y-14138693D01*
X17864106Y-14312665D01*
X17864106Y-14312667D01*
X17931985Y-14476544D01*
X17931985Y-14476545D01*
X18030535Y-14624034D01*
X18030536Y-14624035D01*
X18155965Y-14749464D01*
X18303453Y-14848013D01*
X18303454Y-14848013D01*
X18303455Y-14848014D01*
X18340581Y-14863391D01*
X18467334Y-14915894D01*
X18641309Y-14950500D01*
X18641310Y-14950500D01*
X18818690Y-14950500D01*
X18818691Y-14950500D01*
X18992666Y-14915894D01*
X19156547Y-14848013D01*
X19304035Y-14749464D01*
X19429464Y-14624035D01*
X19528013Y-14476547D01*
X19595894Y-14312666D01*
X19630500Y-14138691D01*
X19630500Y-13961309D01*
X19595894Y-13787334D01*
X19528014Y-13623455D01*
X19528014Y-13623454D01*
X19429464Y-13475965D01*
X19304034Y-13350535D01*
X19156544Y-13251985D01*
X18992666Y-13184106D01*
X18818693Y-13149500D01*
X18818691Y-13149500D01*
X18641309Y-13149500D01*
X18641306Y-13149500D01*
X18467334Y-13184106D01*
X18467332Y-13184106D01*
X18303455Y-13251985D01*
X18303454Y-13251985D01*
X18155965Y-13350535D01*
X18030535Y-13475965D01*
X17931985Y-13623454D01*
X17931985Y-13623455D01*
X17864106Y-13787332D01*
X17864106Y-13787334D01*
X17829500Y-13961306D01*
X17090499Y-13961306D01*
X17055894Y-13787334D01*
X16988014Y-13623455D01*
X16988014Y-13623454D01*
X16889464Y-13475965D01*
X16764034Y-13350535D01*
X16616544Y-13251985D01*
X16452666Y-13184106D01*
X16278693Y-13149500D01*
X16278691Y-13149500D01*
X16101309Y-13149500D01*
X16101306Y-13149500D01*
X15927334Y-13184106D01*
X15927332Y-13184106D01*
X15763455Y-13251985D01*
X15763454Y-13251985D01*
X15615965Y-13350535D01*
X15490535Y-13475965D01*
X15391985Y-13623454D01*
X15391985Y-13623455D01*
X15324106Y-13787332D01*
X15324106Y-13787334D01*
X15289500Y-13961306D01*
X14650000Y-13961306D01*
X14650000Y-13951509D01*
X14649999Y-13951506D01*
X14611570Y-13758311D01*
X14611570Y-13758309D01*
X14536190Y-13576324D01*
X14536190Y-13576323D01*
X14441766Y-13435009D01*
X13992883Y-13883891D01*
X13954076Y-13816675D01*
X13883325Y-13745924D01*
X13816106Y-13707114D01*
X14264989Y-13258232D01*
X14123674Y-13163809D01*
X13941689Y-13088429D01*
X13748493Y-13050000D01*
X13551506Y-13050000D01*
X13358311Y-13088429D01*
X13358309Y-13088429D01*
X13176324Y-13163809D01*
X13035009Y-13258232D01*
X13483892Y-13707115D01*
X13416675Y-13745924D01*
X13345924Y-13816675D01*
X13307115Y-13883892D01*
X12858232Y-13435009D01*
X12763809Y-13576324D01*
X12688429Y-13758309D01*
X12688429Y-13758311D01*
X12650000Y-13951506D01*
X12008550Y-13951506D01*
X11975894Y-13787334D01*
X11908014Y-13623455D01*
X11908014Y-13623454D01*
X11809464Y-13475965D01*
X11684034Y-13350535D01*
X11536544Y-13251985D01*
X11372666Y-13184106D01*
X11198693Y-13149500D01*
X11198691Y-13149500D01*
X11021309Y-13149500D01*
X11021306Y-13149500D01*
X10847334Y-13184106D01*
X10847332Y-13184106D01*
X10683455Y-13251985D01*
X10683454Y-13251985D01*
X10535965Y-13350535D01*
X10410536Y-13475964D01*
X10394142Y-13500500D01*
X10357390Y-13555502D01*
X10343594Y-13566377D01*
X10333267Y-13580593D01*
X10320162Y-13584850D01*
X10309342Y-13593381D01*
X10275076Y-13599500D01*
X10099000Y-13599500D01*
X10040809Y-13580593D01*
X10004845Y-13531093D01*
X10000000Y-13500500D01*
X10000000Y-11411506D01*
X11380000Y-11411506D01*
X11380000Y-11608493D01*
X11418429Y-11801688D01*
X11418429Y-11801690D01*
X11493809Y-11983674D01*
X11588232Y-12124989D01*
X12037114Y-11676106D01*
X12075924Y-11743325D01*
X12146675Y-11814076D01*
X12213891Y-11852883D01*
X11765009Y-12301766D01*
X11906324Y-12396190D01*
X12088310Y-12471570D01*
X12281506Y-12509999D01*
X12281510Y-12510000D01*
X12478490Y-12510000D01*
X12478493Y-12509999D01*
X12671688Y-12471570D01*
X12671690Y-12471570D01*
X12853675Y-12396190D01*
X12994989Y-12301766D01*
X12546107Y-11852884D01*
X12613325Y-11814076D01*
X12684076Y-11743325D01*
X12722884Y-11676107D01*
X13171766Y-12124989D01*
X13266190Y-11983675D01*
X13341570Y-11801690D01*
X13341570Y-11801688D01*
X13379999Y-11608493D01*
X13380000Y-11608490D01*
X13380000Y-11421306D01*
X14019500Y-11421306D01*
X14019500Y-11598693D01*
X14054106Y-11772665D01*
X14054106Y-11772667D01*
X14121985Y-11936544D01*
X14121985Y-11936545D01*
X14153476Y-11983674D01*
X14220536Y-12084035D01*
X14345965Y-12209464D01*
X14493453Y-12308013D01*
X14657334Y-12375894D01*
X14831309Y-12410500D01*
X14831310Y-12410500D01*
X15008690Y-12410500D01*
X15008691Y-12410500D01*
X15182666Y-12375894D01*
X15346547Y-12308013D01*
X15494035Y-12209464D01*
X15619464Y-12084035D01*
X15718013Y-11936547D01*
X15785894Y-11772666D01*
X15820500Y-11598691D01*
X15820500Y-11421309D01*
X15818550Y-11411506D01*
X16460000Y-11411506D01*
X16460000Y-11608493D01*
X16498429Y-11801688D01*
X16498429Y-11801690D01*
X16573809Y-11983674D01*
X16668232Y-12124989D01*
X17117114Y-11676106D01*
X17155924Y-11743325D01*
X17226675Y-11814076D01*
X17293891Y-11852883D01*
X16845009Y-12301766D01*
X16986324Y-12396190D01*
X17168310Y-12471570D01*
X17361506Y-12509999D01*
X17361510Y-12510000D01*
X17558490Y-12510000D01*
X17558493Y-12509999D01*
X17751688Y-12471570D01*
X17751690Y-12471570D01*
X17933675Y-12396190D01*
X18074989Y-12301766D01*
X17626107Y-11852884D01*
X17693325Y-11814076D01*
X17764076Y-11743325D01*
X17802884Y-11676107D01*
X18251766Y-12124989D01*
X18346190Y-11983675D01*
X18421570Y-11801690D01*
X18421570Y-11801688D01*
X18459999Y-11608493D01*
X18460000Y-11608490D01*
X18460000Y-11411509D01*
X18459999Y-11411506D01*
X18421570Y-11218311D01*
X18421570Y-11218309D01*
X18346190Y-11036324D01*
X18346190Y-11036323D01*
X18251766Y-10895009D01*
X17802883Y-11343891D01*
X17764076Y-11276675D01*
X17693325Y-11205924D01*
X17626106Y-11167114D01*
X18048049Y-10745172D01*
X19099500Y-10745172D01*
X19099500Y-12274827D01*
X19108232Y-12318720D01*
X19108233Y-12318722D01*
X19141496Y-12368504D01*
X19191278Y-12401767D01*
X19202327Y-12403964D01*
X19235172Y-12410499D01*
X19235178Y-12410499D01*
X19235180Y-12410500D01*
X19235181Y-12410500D01*
X20764819Y-12410500D01*
X20764820Y-12410500D01*
X20764821Y-12410499D01*
X20764827Y-12410499D01*
X20786623Y-12406162D01*
X20808722Y-12401767D01*
X20858504Y-12368504D01*
X20891767Y-12318722D01*
X20900500Y-12274820D01*
X20900500Y-11411506D01*
X28280000Y-11411506D01*
X28280000Y-11608493D01*
X28318429Y-11801688D01*
X28318429Y-11801690D01*
X28393809Y-11983674D01*
X28488232Y-12124989D01*
X28937114Y-11676106D01*
X28975924Y-11743325D01*
X29046675Y-11814076D01*
X29113891Y-11852883D01*
X28665009Y-12301766D01*
X28806324Y-12396190D01*
X28988310Y-12471570D01*
X29181506Y-12509999D01*
X29181510Y-12510000D01*
X29378490Y-12510000D01*
X29378493Y-12509999D01*
X29571688Y-12471570D01*
X29571690Y-12471570D01*
X29753675Y-12396190D01*
X29894989Y-12301766D01*
X29446107Y-11852884D01*
X29513325Y-11814076D01*
X29584076Y-11743325D01*
X29622884Y-11676107D01*
X30071766Y-12124989D01*
X30166190Y-11983675D01*
X30241570Y-11801690D01*
X30241570Y-11801688D01*
X30279999Y-11608493D01*
X30280000Y-11608490D01*
X30280000Y-11421306D01*
X30919500Y-11421306D01*
X30919500Y-11598693D01*
X30954106Y-11772665D01*
X30954106Y-11772667D01*
X31021985Y-11936544D01*
X31021985Y-11936545D01*
X31053476Y-11983674D01*
X31120536Y-12084035D01*
X31245965Y-12209464D01*
X31393453Y-12308013D01*
X31557334Y-12375894D01*
X31731309Y-12410500D01*
X31731310Y-12410500D01*
X31908690Y-12410500D01*
X31908691Y-12410500D01*
X32082666Y-12375894D01*
X32246547Y-12308013D01*
X32394035Y-12209464D01*
X32519464Y-12084035D01*
X32618013Y-11936547D01*
X32685894Y-11772666D01*
X32720500Y-11598691D01*
X32720500Y-11421309D01*
X32718550Y-11411506D01*
X33360000Y-11411506D01*
X33360000Y-11608493D01*
X33398429Y-11801688D01*
X33398429Y-11801690D01*
X33473809Y-11983674D01*
X33568232Y-12124989D01*
X34017114Y-11676106D01*
X34055924Y-11743325D01*
X34126675Y-11814076D01*
X34193891Y-11852883D01*
X33745009Y-12301766D01*
X33886324Y-12396190D01*
X34068310Y-12471570D01*
X34261506Y-12509999D01*
X34261510Y-12510000D01*
X34458490Y-12510000D01*
X34458493Y-12509999D01*
X34651688Y-12471570D01*
X34651690Y-12471570D01*
X34833675Y-12396190D01*
X34974989Y-12301766D01*
X34526107Y-11852884D01*
X34593325Y-11814076D01*
X34664076Y-11743325D01*
X34702884Y-11676107D01*
X35151766Y-12124989D01*
X35246190Y-11983675D01*
X35321570Y-11801690D01*
X35321570Y-11801688D01*
X35359999Y-11608493D01*
X35360000Y-11608490D01*
X35360000Y-11411509D01*
X35359999Y-11411506D01*
X35321570Y-11218311D01*
X35321570Y-11218309D01*
X35246190Y-11036324D01*
X35246190Y-11036323D01*
X35151766Y-10895009D01*
X34702883Y-11343891D01*
X34664076Y-11276675D01*
X34593325Y-11205924D01*
X34526106Y-11167114D01*
X34948049Y-10745172D01*
X35999500Y-10745172D01*
X35999500Y-12274827D01*
X36008232Y-12318720D01*
X36008233Y-12318722D01*
X36041496Y-12368504D01*
X36091278Y-12401767D01*
X36102327Y-12403964D01*
X36135172Y-12410499D01*
X36135178Y-12410499D01*
X36135180Y-12410500D01*
X36135181Y-12410500D01*
X37664819Y-12410500D01*
X37664820Y-12410500D01*
X37664821Y-12410499D01*
X37664827Y-12410499D01*
X37686623Y-12406162D01*
X37708722Y-12401767D01*
X37758504Y-12368504D01*
X37791767Y-12318722D01*
X37800500Y-12274820D01*
X37800500Y-10745180D01*
X37800499Y-10745178D01*
X37800499Y-10745172D01*
X37791767Y-10701279D01*
X37791765Y-10701275D01*
X37758505Y-10651498D01*
X37758504Y-10651496D01*
X37747444Y-10644106D01*
X37708724Y-10618234D01*
X37708720Y-10618232D01*
X37664827Y-10609500D01*
X37664820Y-10609500D01*
X36135180Y-10609500D01*
X36135172Y-10609500D01*
X36091279Y-10618232D01*
X36091275Y-10618234D01*
X36041498Y-10651494D01*
X36041494Y-10651498D01*
X36008234Y-10701275D01*
X36008232Y-10701279D01*
X35999500Y-10745172D01*
X34948049Y-10745172D01*
X34974989Y-10718232D01*
X34833674Y-10623809D01*
X34651689Y-10548429D01*
X34458493Y-10510000D01*
X34261506Y-10510000D01*
X34068311Y-10548429D01*
X34068309Y-10548429D01*
X33886324Y-10623809D01*
X33745009Y-10718232D01*
X34193892Y-11167115D01*
X34126675Y-11205924D01*
X34055924Y-11276675D01*
X34017115Y-11343892D01*
X33568232Y-10895009D01*
X33473809Y-11036324D01*
X33398429Y-11218309D01*
X33398429Y-11218311D01*
X33360000Y-11411506D01*
X32718550Y-11411506D01*
X32685894Y-11247334D01*
X32618014Y-11083455D01*
X32618014Y-11083454D01*
X32519464Y-10935965D01*
X32394034Y-10810535D01*
X32246544Y-10711985D01*
X32082666Y-10644106D01*
X31908693Y-10609500D01*
X31908691Y-10609500D01*
X31731309Y-10609500D01*
X31731306Y-10609500D01*
X31557334Y-10644106D01*
X31557332Y-10644106D01*
X31393455Y-10711985D01*
X31393454Y-10711985D01*
X31245965Y-10810535D01*
X31120535Y-10935965D01*
X31021985Y-11083454D01*
X31021985Y-11083455D01*
X30954106Y-11247332D01*
X30954106Y-11247334D01*
X30919500Y-11421306D01*
X30280000Y-11421306D01*
X30280000Y-11411509D01*
X30279999Y-11411506D01*
X30241570Y-11218311D01*
X30241570Y-11218309D01*
X30166190Y-11036324D01*
X30166190Y-11036323D01*
X30071766Y-10895009D01*
X29622883Y-11343891D01*
X29584076Y-11276675D01*
X29513325Y-11205924D01*
X29446106Y-11167114D01*
X29894989Y-10718232D01*
X29753674Y-10623809D01*
X29571689Y-10548429D01*
X29378493Y-10510000D01*
X29181506Y-10510000D01*
X28988311Y-10548429D01*
X28988309Y-10548429D01*
X28806324Y-10623809D01*
X28665009Y-10718232D01*
X29113892Y-11167115D01*
X29046675Y-11205924D01*
X28975924Y-11276675D01*
X28937115Y-11343892D01*
X28488232Y-10895009D01*
X28393809Y-11036324D01*
X28318429Y-11218309D01*
X28318429Y-11218311D01*
X28280000Y-11411506D01*
X20900500Y-11411506D01*
X20900500Y-10745180D01*
X20900499Y-10745178D01*
X20900499Y-10745172D01*
X20891767Y-10701279D01*
X20891765Y-10701275D01*
X20858505Y-10651498D01*
X20858504Y-10651496D01*
X20847444Y-10644106D01*
X20808724Y-10618234D01*
X20808720Y-10618232D01*
X20764827Y-10609500D01*
X20764820Y-10609500D01*
X19235180Y-10609500D01*
X19235172Y-10609500D01*
X19191279Y-10618232D01*
X19191275Y-10618234D01*
X19141498Y-10651494D01*
X19141494Y-10651498D01*
X19108234Y-10701275D01*
X19108232Y-10701279D01*
X19099500Y-10745172D01*
X18048049Y-10745172D01*
X18074989Y-10718232D01*
X17933674Y-10623809D01*
X17751689Y-10548429D01*
X17558493Y-10510000D01*
X17361506Y-10510000D01*
X17168311Y-10548429D01*
X17168309Y-10548429D01*
X16986324Y-10623809D01*
X16845009Y-10718232D01*
X17293892Y-11167115D01*
X17226675Y-11205924D01*
X17155924Y-11276675D01*
X17117115Y-11343892D01*
X16668232Y-10895009D01*
X16573809Y-11036324D01*
X16498429Y-11218309D01*
X16498429Y-11218311D01*
X16460000Y-11411506D01*
X15818550Y-11411506D01*
X15785894Y-11247334D01*
X15718014Y-11083455D01*
X15718014Y-11083454D01*
X15619464Y-10935965D01*
X15494034Y-10810535D01*
X15346544Y-10711985D01*
X15182666Y-10644106D01*
X15008693Y-10609500D01*
X15008691Y-10609500D01*
X14831309Y-10609500D01*
X14831306Y-10609500D01*
X14657334Y-10644106D01*
X14657332Y-10644106D01*
X14493455Y-10711985D01*
X14493454Y-10711985D01*
X14345965Y-10810535D01*
X14220535Y-10935965D01*
X14121985Y-11083454D01*
X14121985Y-11083455D01*
X14054106Y-11247332D01*
X14054106Y-11247334D01*
X14019500Y-11421306D01*
X13380000Y-11421306D01*
X13380000Y-11411509D01*
X13379999Y-11411506D01*
X13341570Y-11218311D01*
X13341570Y-11218309D01*
X13266190Y-11036324D01*
X13266190Y-11036323D01*
X13171766Y-10895009D01*
X12722883Y-11343891D01*
X12684076Y-11276675D01*
X12613325Y-11205924D01*
X12546106Y-11167114D01*
X12994989Y-10718232D01*
X12853674Y-10623809D01*
X12671689Y-10548429D01*
X12478493Y-10510000D01*
X12281506Y-10510000D01*
X12088311Y-10548429D01*
X12088309Y-10548429D01*
X11906324Y-10623809D01*
X11765009Y-10718232D01*
X12213892Y-11167115D01*
X12146675Y-11205924D01*
X12075924Y-11276675D01*
X12037115Y-11343892D01*
X11588232Y-10895009D01*
X11493809Y-11036324D01*
X11418429Y-11218309D01*
X11418429Y-11218311D01*
X11380000Y-11411506D01*
X10000000Y-11411506D01*
X10000000Y-10591008D01*
X10018907Y-10532817D01*
X10028996Y-10521004D01*
X11021004Y-9528996D01*
X11075521Y-9501219D01*
X11091008Y-9500000D01*
X37608992Y-9500000D01*
X37667183Y-9518907D01*
G37*
G04 #@! TD.AperFunction*
G04 #@! TD*
G04 #@! TA.AperFunction,Conductor*
G04 #@! TO.N,GND*
G36*
X20631437Y-430185D02*
G01*
X20677192Y-482989D01*
X20688397Y-534597D01*
X20687520Y-1621304D01*
X20686151Y-3316116D01*
X20666412Y-3383140D01*
X20613571Y-3428852D01*
X20609604Y-3430577D01*
X20449794Y-3496772D01*
X20449785Y-3496777D01*
X20239706Y-3618067D01*
X20047263Y-3765733D01*
X20047256Y-3765739D01*
X19875739Y-3937256D01*
X19875733Y-3937263D01*
X19728067Y-4129706D01*
X19606777Y-4339785D01*
X19606773Y-4339794D01*
X19513947Y-4563895D01*
X19451161Y-4798214D01*
X19419500Y-5038711D01*
X19419500Y-5281288D01*
X19451161Y-5521785D01*
X19513947Y-5756104D01*
X19606773Y-5980205D01*
X19606776Y-5980212D01*
X19728064Y-6190289D01*
X19728066Y-6190292D01*
X19728067Y-6190293D01*
X19875733Y-6382736D01*
X19875739Y-6382743D01*
X20047256Y-6554260D01*
X20047262Y-6554265D01*
X20239711Y-6701936D01*
X20449788Y-6823224D01*
X20544307Y-6862375D01*
X20606627Y-6888189D01*
X20661030Y-6932030D01*
X20683095Y-6998324D01*
X20683174Y-7002850D01*
X20681465Y-9120600D01*
X20661726Y-9187624D01*
X20608885Y-9233336D01*
X20557465Y-9244500D01*
X11090997Y-9244500D01*
X11070976Y-9245286D01*
X11055474Y-9246506D01*
X11018248Y-9257005D01*
X10959529Y-9273565D01*
X10959527Y-9273565D01*
X10959527Y-9273566D01*
X10905019Y-9301337D01*
X10905009Y-9301344D01*
X10840341Y-9348326D01*
X9875486Y-10313181D01*
X9814163Y-10346666D01*
X9787805Y-10349500D01*
X9124500Y-10349500D01*
X9057461Y-10329815D01*
X9011706Y-10277011D01*
X9000500Y-10225500D01*
X9000500Y-10125323D01*
X9000499Y-10125321D01*
X8985967Y-10052264D01*
X8985966Y-10052260D01*
X8930601Y-9969399D01*
X8847740Y-9914034D01*
X8847739Y-9914033D01*
X8847735Y-9914032D01*
X8774677Y-9899500D01*
X8774674Y-9899500D01*
X7725326Y-9899500D01*
X7725323Y-9899500D01*
X7694862Y-9905559D01*
X7625271Y-9899332D01*
X7620586Y-9897377D01*
X7519876Y-9852910D01*
X7494794Y-9850000D01*
X7100000Y-9850000D01*
X7100000Y-11949999D01*
X7494786Y-11949999D01*
X7494808Y-11949997D01*
X7519869Y-11947091D01*
X7620584Y-11902622D01*
X7689863Y-11893551D01*
X7694834Y-11894434D01*
X7725326Y-11900500D01*
X8774676Y-11900500D01*
X8774677Y-11900499D01*
X8847740Y-11885966D01*
X8930601Y-11830601D01*
X8985966Y-11747740D01*
X9000500Y-11674674D01*
X9000500Y-11574500D01*
X9020185Y-11507461D01*
X9072989Y-11461706D01*
X9124500Y-11450500D01*
X9620500Y-11450500D01*
X9687539Y-11470185D01*
X9733294Y-11522989D01*
X9744500Y-11574500D01*
X9744500Y-13375500D01*
X9724815Y-13442539D01*
X9672011Y-13488294D01*
X9620500Y-13499500D01*
X9124500Y-13499500D01*
X9057461Y-13479815D01*
X9011706Y-13427011D01*
X9000500Y-13375500D01*
X9000500Y-13225323D01*
X9000499Y-13225321D01*
X8985967Y-13152264D01*
X8985966Y-13152260D01*
X8934677Y-13075500D01*
X8930601Y-13069399D01*
X8847740Y-13014034D01*
X8847739Y-13014033D01*
X8847735Y-13014032D01*
X8774677Y-12999500D01*
X8774674Y-12999500D01*
X7725326Y-12999500D01*
X7725324Y-12999500D01*
X7652259Y-13014033D01*
X7647452Y-13016025D01*
X7577983Y-13023494D01*
X7552548Y-13016025D01*
X7547740Y-13014033D01*
X7474676Y-12999500D01*
X7474674Y-12999500D01*
X6425326Y-12999500D01*
X6425323Y-12999500D01*
X6352264Y-13014032D01*
X6352260Y-13014033D01*
X6269399Y-13069399D01*
X6214033Y-13152260D01*
X6214032Y-13152264D01*
X6199500Y-13225321D01*
X6199500Y-13408504D01*
X6179815Y-13475543D01*
X6137501Y-13515891D01*
X6061986Y-13559489D01*
X6061984Y-13559491D01*
X4659491Y-14961983D01*
X4659489Y-14961986D01*
X4604241Y-15057681D01*
X4604240Y-15057682D01*
X4587017Y-15087512D01*
X4587016Y-15087513D01*
X4568258Y-15157520D01*
X4549500Y-15227525D01*
X4549500Y-15227527D01*
X4549500Y-16638814D01*
X4529815Y-16705853D01*
X4481797Y-16749298D01*
X4481401Y-16749500D01*
X4463212Y-16758768D01*
X4323072Y-16860586D01*
X4323070Y-16860588D01*
X4323069Y-16860588D01*
X4237181Y-16946477D01*
X4175858Y-16979962D01*
X4106166Y-16974978D01*
X4050233Y-16933106D01*
X4025816Y-16867642D01*
X4025500Y-16858796D01*
X4025500Y-15867149D01*
X4025500Y-15867147D01*
X4003318Y-15784362D01*
X4003314Y-15784355D01*
X3960469Y-15710144D01*
X3960463Y-15710136D01*
X3836819Y-15586492D01*
X3803334Y-15525169D01*
X3800500Y-15498811D01*
X3800500Y-15444110D01*
X3800500Y-15444108D01*
X3766392Y-15316814D01*
X3700500Y-15202686D01*
X3607314Y-15109500D01*
X3517563Y-15057682D01*
X3493187Y-15043608D01*
X3429539Y-15026554D01*
X3365892Y-15009500D01*
X3234108Y-15009500D01*
X3106812Y-15043608D01*
X2992686Y-15109500D01*
X2992683Y-15109502D01*
X2899502Y-15202683D01*
X2899500Y-15202686D01*
X2833608Y-15316812D01*
X2799500Y-15444108D01*
X2799500Y-15575892D01*
X2800436Y-15579386D01*
X2833608Y-15703187D01*
X2837625Y-15710144D01*
X2899500Y-15817314D01*
X2992686Y-15910500D01*
X3106814Y-15976392D01*
X3234108Y-16010500D01*
X3250500Y-16010500D01*
X3317539Y-16030185D01*
X3363294Y-16082989D01*
X3374500Y-16134500D01*
X3374500Y-16475500D01*
X3354815Y-16542539D01*
X3302011Y-16588294D01*
X3250500Y-16599500D01*
X1748500Y-16599500D01*
X1681461Y-16579815D01*
X1635706Y-16527011D01*
X1624500Y-16475500D01*
X1624500Y-15547189D01*
X1644185Y-15480150D01*
X1660819Y-15459508D01*
X2848508Y-14271819D01*
X2909831Y-14238334D01*
X2936189Y-14235500D01*
X2962599Y-14235500D01*
X2962601Y-14235500D01*
X3083536Y-14203095D01*
X3191964Y-14140495D01*
X3280495Y-14051964D01*
X3343095Y-13943536D01*
X3375500Y-13822601D01*
X3375500Y-13697399D01*
X3343095Y-13576464D01*
X3280495Y-13468036D01*
X3217490Y-13405031D01*
X3184005Y-13343708D01*
X3188989Y-13274016D01*
X3217485Y-13229674D01*
X3485344Y-12961816D01*
X3546665Y-12928334D01*
X3573023Y-12925500D01*
X5201679Y-12925500D01*
X5268718Y-12945185D01*
X5289359Y-12961818D01*
X5308036Y-12980495D01*
X5416464Y-13043095D01*
X5537399Y-13075500D01*
X5537401Y-13075500D01*
X5662599Y-13075500D01*
X5662601Y-13075500D01*
X5783536Y-13043095D01*
X5891964Y-12980495D01*
X5980495Y-12891964D01*
X6043095Y-12783536D01*
X6075500Y-12662601D01*
X6075500Y-12537399D01*
X6043095Y-12416464D01*
X5980495Y-12308036D01*
X5891964Y-12219505D01*
X5783536Y-12156905D01*
X5783537Y-12156905D01*
X5743224Y-12146103D01*
X5662601Y-12124500D01*
X5537399Y-12124500D01*
X5456775Y-12146103D01*
X5416463Y-12156905D01*
X5308037Y-12219504D01*
X5308034Y-12219506D01*
X5289360Y-12238181D01*
X5228037Y-12271666D01*
X5201679Y-12274500D01*
X3343981Y-12274500D01*
X3261193Y-12296682D01*
X3186972Y-12339535D01*
X3186969Y-12339537D01*
X2163537Y-13362968D01*
X2153707Y-13379993D01*
X2134004Y-13405668D01*
X737537Y-14802135D01*
X737535Y-14802138D01*
X694683Y-14876358D01*
X694682Y-14876360D01*
X694682Y-14876361D01*
X685759Y-14909662D01*
X685758Y-14909663D01*
X672500Y-14959143D01*
X672500Y-42766530D01*
X694682Y-42849318D01*
X716108Y-42886428D01*
X737535Y-42923540D01*
X737536Y-42923541D01*
X737537Y-42923542D01*
X8443653Y-50629657D01*
X8477138Y-50690980D01*
X8475747Y-50749431D01*
X8456176Y-50822473D01*
X8449497Y-50847399D01*
X8449497Y-50972601D01*
X8481902Y-51093536D01*
X8544502Y-51201964D01*
X8633033Y-51290495D01*
X8741461Y-51353095D01*
X8862396Y-51385500D01*
X8862398Y-51385500D01*
X8987596Y-51385500D01*
X8987598Y-51385500D01*
X9001394Y-51381803D01*
X9071242Y-51383464D01*
X9129105Y-51422625D01*
X9156612Y-51486852D01*
X9145027Y-51555755D01*
X9098030Y-51607456D01*
X9095489Y-51608964D01*
X8996639Y-51666034D01*
X8996634Y-51666038D01*
X8894142Y-51768530D01*
X8894140Y-51768533D01*
X8838974Y-51864086D01*
X8838973Y-51864087D01*
X8821668Y-51894059D01*
X8821667Y-51894060D01*
X8814185Y-51921985D01*
X8784151Y-52034072D01*
X8784151Y-52179022D01*
X8791721Y-52207273D01*
X8821667Y-52319032D01*
X8894141Y-52444562D01*
X9000089Y-52550510D01*
X9000090Y-52550511D01*
X9000092Y-52550512D01*
X9119632Y-52619528D01*
X9122407Y-52621129D01*
X9125619Y-52622984D01*
X9265629Y-52660500D01*
X9265632Y-52660500D01*
X12262472Y-52660500D01*
X12262475Y-52660500D01*
X12402485Y-52622984D01*
X12528015Y-52550509D01*
X12630509Y-52448015D01*
X12702984Y-52322485D01*
X12740500Y-52182475D01*
X12740500Y-52037525D01*
X12702984Y-51897515D01*
X12700990Y-51894062D01*
X12630511Y-51771988D01*
X12630506Y-51771982D01*
X12528017Y-51669493D01*
X12528011Y-51669488D01*
X12402488Y-51597017D01*
X12402489Y-51597017D01*
X12389598Y-51593563D01*
X12262475Y-51559500D01*
X12262472Y-51559500D01*
X9838807Y-51559500D01*
X9771768Y-51539815D01*
X9726013Y-51487011D01*
X9716069Y-51417853D01*
X9745094Y-51354297D01*
X9776808Y-51328112D01*
X9841964Y-51290495D01*
X9930495Y-51201964D01*
X9993095Y-51093536D01*
X10025500Y-50972601D01*
X10025500Y-50847399D01*
X9993095Y-50726464D01*
X9930495Y-50618036D01*
X9841964Y-50529505D01*
X9733536Y-50466905D01*
X9733531Y-50466903D01*
X9620412Y-50436592D01*
X9564826Y-50404499D01*
X1660819Y-42500492D01*
X1627334Y-42439169D01*
X1624500Y-42412811D01*
X1624500Y-39757283D01*
X9099500Y-39757283D01*
X9099500Y-39889066D01*
X9133608Y-40016362D01*
X9166554Y-40073425D01*
X9199500Y-40130489D01*
X9292686Y-40223675D01*
X9406814Y-40289567D01*
X9534108Y-40323675D01*
X9588811Y-40323675D01*
X9655850Y-40343360D01*
X9676492Y-40359994D01*
X11933181Y-42616682D01*
X11966666Y-42678005D01*
X11969500Y-42704363D01*
X11969500Y-46516324D01*
X11949815Y-46583363D01*
X11933181Y-46604005D01*
X11894502Y-46642683D01*
X11894501Y-46642685D01*
X11894500Y-46642686D01*
X11892001Y-46647015D01*
X11828608Y-46756812D01*
X11807868Y-46834216D01*
X11794500Y-46884108D01*
X11794500Y-47015892D01*
X11802916Y-47047302D01*
X11828608Y-47143187D01*
X11861554Y-47200250D01*
X11894500Y-47257314D01*
X11987686Y-47350500D01*
X12101814Y-47416392D01*
X12229108Y-47450500D01*
X12229110Y-47450500D01*
X12360890Y-47450500D01*
X12360892Y-47450500D01*
X12488186Y-47416392D01*
X12602314Y-47350500D01*
X12695500Y-47257314D01*
X12761392Y-47143186D01*
X12776306Y-47087525D01*
X14294500Y-47087525D01*
X14294500Y-47232475D01*
X14305805Y-47274668D01*
X14306530Y-47287401D01*
X14306730Y-47294442D01*
X14306730Y-47625556D01*
X14302505Y-47657648D01*
X14294500Y-47687523D01*
X14294500Y-47687525D01*
X14294500Y-47832475D01*
X14302505Y-47862348D01*
X14306730Y-47894442D01*
X14306730Y-50632875D01*
X14302506Y-50664962D01*
X14299141Y-50677523D01*
X14299141Y-50822473D01*
X14336060Y-50960255D01*
X14336658Y-50962486D01*
X14409129Y-51088009D01*
X14409131Y-51088011D01*
X14409132Y-51088013D01*
X14511626Y-51190507D01*
X14511627Y-51190508D01*
X14511629Y-51190509D01*
X14637152Y-51262980D01*
X14637153Y-51262980D01*
X14637156Y-51262982D01*
X14777166Y-51300498D01*
X14777169Y-51300498D01*
X14922113Y-51300498D01*
X14922116Y-51300498D01*
X15062126Y-51262982D01*
X15062130Y-51262979D01*
X15068390Y-51261302D01*
X15069709Y-51260755D01*
X15069715Y-51260754D01*
X15195245Y-51188279D01*
X15297739Y-51085785D01*
X15370214Y-50960255D01*
X15407730Y-50820245D01*
X15407730Y-47099755D01*
X15370214Y-46959745D01*
X15360654Y-46943187D01*
X15297740Y-46834215D01*
X15183015Y-46719490D01*
X15057485Y-46647016D01*
X15057480Y-46647014D01*
X15041326Y-46642685D01*
X15041326Y-46642686D01*
X14979400Y-46626093D01*
X14917475Y-46609500D01*
X14772525Y-46609500D01*
X14648674Y-46642686D01*
X14648673Y-46642685D01*
X14632517Y-46647015D01*
X14632514Y-46647016D01*
X14506986Y-46719489D01*
X14506983Y-46719491D01*
X14404491Y-46821983D01*
X14404489Y-46821986D01*
X14346278Y-46922812D01*
X14338950Y-46935505D01*
X14332016Y-46947515D01*
X14294500Y-47087525D01*
X12776306Y-47087525D01*
X12795500Y-47015892D01*
X12795500Y-46884108D01*
X12761392Y-46756814D01*
X12695500Y-46642686D01*
X12656819Y-46604005D01*
X12623334Y-46542682D01*
X12620500Y-46516324D01*
X12620500Y-45684108D01*
X20399500Y-45684108D01*
X20399500Y-45815891D01*
X20433608Y-45943187D01*
X20466554Y-46000250D01*
X20499500Y-46057314D01*
X20592686Y-46150500D01*
X20706814Y-46216392D01*
X20834108Y-46250500D01*
X20834110Y-46250500D01*
X20965890Y-46250500D01*
X20965892Y-46250500D01*
X21093186Y-46216392D01*
X21207314Y-46150500D01*
X21220995Y-46136819D01*
X21280415Y-46103763D01*
X21294355Y-46100500D01*
X21346144Y-46100500D01*
X21435288Y-46076614D01*
X21445912Y-46070480D01*
X21515212Y-46030470D01*
X22608862Y-44936818D01*
X22670185Y-44903334D01*
X22696543Y-44900500D01*
X22715890Y-44900500D01*
X22715892Y-44900500D01*
X22843186Y-44866392D01*
X22957314Y-44800500D01*
X23050500Y-44707314D01*
X23116392Y-44593186D01*
X23150500Y-44465892D01*
X23150500Y-44334108D01*
X23116392Y-44206814D01*
X23050500Y-44092686D01*
X22957314Y-43999500D01*
X22900250Y-43966554D01*
X22843187Y-43933608D01*
X22779539Y-43916554D01*
X22715892Y-43899500D01*
X22584108Y-43899500D01*
X22456812Y-43933608D01*
X22342686Y-43999500D01*
X22342683Y-43999502D01*
X22249502Y-44092683D01*
X22249500Y-44092686D01*
X22183608Y-44206812D01*
X22149500Y-44334108D01*
X22149500Y-44353455D01*
X22129815Y-44420494D01*
X22113181Y-44441136D01*
X21273011Y-45281305D01*
X21211688Y-45314790D01*
X21141996Y-45309806D01*
X21123331Y-45301012D01*
X21093186Y-45283608D01*
X21084591Y-45281305D01*
X20965892Y-45249500D01*
X20834108Y-45249500D01*
X20706812Y-45283608D01*
X20592686Y-45349500D01*
X20592683Y-45349502D01*
X20499502Y-45442683D01*
X20499500Y-45442686D01*
X20433608Y-45556812D01*
X20399500Y-45684108D01*
X12620500Y-45684108D01*
X12620500Y-42571030D01*
X12620501Y-42571017D01*
X12620501Y-42475324D01*
X12610813Y-42439169D01*
X12598318Y-42392537D01*
X12597062Y-42390361D01*
X12555465Y-42318313D01*
X12494862Y-42257710D01*
X12494861Y-42257709D01*
X12490531Y-42253379D01*
X12490520Y-42253369D01*
X10136819Y-39899667D01*
X10103334Y-39838344D01*
X10100500Y-39811986D01*
X10100500Y-39757285D01*
X10100500Y-39757283D01*
X10066392Y-39629989D01*
X10000500Y-39515861D01*
X9907314Y-39422675D01*
X9850250Y-39389729D01*
X9793187Y-39356783D01*
X9729539Y-39339729D01*
X9665892Y-39322675D01*
X9534108Y-39322675D01*
X9406812Y-39356783D01*
X9292686Y-39422675D01*
X9292683Y-39422677D01*
X9199502Y-39515858D01*
X9199500Y-39515861D01*
X9133608Y-39629987D01*
X9099500Y-39757283D01*
X1624500Y-39757283D01*
X1624500Y-18924500D01*
X1644185Y-18857461D01*
X1696989Y-18811706D01*
X1748500Y-18800500D01*
X3250500Y-18800500D01*
X3317539Y-18820185D01*
X3363294Y-18872989D01*
X3374500Y-18924500D01*
X3374500Y-34445613D01*
X3354815Y-34512652D01*
X3338182Y-34533294D01*
X3259488Y-34611988D01*
X3187017Y-34737511D01*
X3187016Y-34737515D01*
X3149500Y-34877525D01*
X3149500Y-35022475D01*
X3187016Y-35162485D01*
X3187017Y-35162488D01*
X3259488Y-35288011D01*
X3259490Y-35288013D01*
X3259491Y-35288015D01*
X3361985Y-35390509D01*
X3361986Y-35390510D01*
X3361988Y-35390511D01*
X3487511Y-35462982D01*
X3487512Y-35462982D01*
X3487515Y-35462984D01*
X3627525Y-35500500D01*
X3627528Y-35500500D01*
X3772472Y-35500500D01*
X3772475Y-35500500D01*
X3793407Y-35494891D01*
X3863253Y-35496552D01*
X3921117Y-35535713D01*
X3948623Y-35599940D01*
X3949500Y-35614665D01*
X3949500Y-36052689D01*
X3929815Y-36119728D01*
X3913181Y-36140370D01*
X2815908Y-37237642D01*
X2815906Y-37237645D01*
X2743433Y-37363173D01*
X2733565Y-37400000D01*
X2705917Y-37503185D01*
X2705917Y-37648133D01*
X2743433Y-37788144D01*
X2815907Y-37913674D01*
X2918402Y-38016169D01*
X3043932Y-38088643D01*
X3183943Y-38126159D01*
X3183946Y-38126159D01*
X3328888Y-38126159D01*
X3328891Y-38126159D01*
X3468902Y-38088643D01*
X3594432Y-38016169D01*
X4156548Y-37454053D01*
X4156548Y-37454052D01*
X4860600Y-36750000D01*
X8189423Y-36750000D01*
X8852555Y-36750000D01*
X8830000Y-36834174D01*
X8830000Y-36965826D01*
X8852555Y-37050000D01*
X8189423Y-37050000D01*
X8208317Y-37169293D01*
X8264251Y-37341444D01*
X8264252Y-37341447D01*
X8346434Y-37502734D01*
X8452823Y-37649169D01*
X8580830Y-37777176D01*
X8727265Y-37883565D01*
X8888552Y-37965747D01*
X8888555Y-37965748D01*
X9060706Y-38021682D01*
X9180000Y-38040577D01*
X9180000Y-37377445D01*
X9264174Y-37400000D01*
X9395826Y-37400000D01*
X9480000Y-37377445D01*
X9480000Y-38040576D01*
X9599293Y-38021682D01*
X9771444Y-37965748D01*
X9771447Y-37965747D01*
X9932734Y-37883565D01*
X10079169Y-37777176D01*
X10207176Y-37649169D01*
X10313565Y-37502734D01*
X10395747Y-37341447D01*
X10395748Y-37341444D01*
X10451682Y-37169293D01*
X10470577Y-37050000D01*
X9807445Y-37050000D01*
X9830000Y-36965826D01*
X9830000Y-36834174D01*
X9824431Y-36813389D01*
X10769500Y-36813389D01*
X10769500Y-36986611D01*
X10796598Y-37157701D01*
X10850127Y-37322445D01*
X10928768Y-37476788D01*
X11030586Y-37616928D01*
X11153072Y-37739414D01*
X11293212Y-37841232D01*
X11447555Y-37919873D01*
X11612299Y-37973402D01*
X11783389Y-38000500D01*
X11783390Y-38000500D01*
X11956610Y-38000500D01*
X11956611Y-38000500D01*
X12127701Y-37973402D01*
X12292445Y-37919873D01*
X12446788Y-37841232D01*
X12586928Y-37739414D01*
X12709414Y-37616928D01*
X12811232Y-37476788D01*
X12889873Y-37322445D01*
X12943402Y-37157701D01*
X12970500Y-36986611D01*
X12970500Y-36813389D01*
X13309500Y-36813389D01*
X13309500Y-36986611D01*
X13336598Y-37157701D01*
X13390127Y-37322445D01*
X13468768Y-37476788D01*
X13570586Y-37616928D01*
X13693072Y-37739414D01*
X13833212Y-37841232D01*
X13987555Y-37919873D01*
X14152299Y-37973402D01*
X14323389Y-38000500D01*
X14323390Y-38000500D01*
X14496610Y-38000500D01*
X14496611Y-38000500D01*
X14667701Y-37973402D01*
X14832445Y-37919873D01*
X14986788Y-37841232D01*
X15126928Y-37739414D01*
X15249414Y-37616928D01*
X15351232Y-37476788D01*
X15429873Y-37322445D01*
X15483402Y-37157701D01*
X15510500Y-36986611D01*
X15510500Y-36813389D01*
X15483402Y-36642299D01*
X15429873Y-36477555D01*
X15351232Y-36323212D01*
X15249414Y-36183072D01*
X15126928Y-36060586D01*
X14986788Y-35958768D01*
X14832445Y-35880127D01*
X14667701Y-35826598D01*
X14667699Y-35826597D01*
X14667698Y-35826597D01*
X14536271Y-35805781D01*
X14496611Y-35799500D01*
X14323389Y-35799500D01*
X14283728Y-35805781D01*
X14152302Y-35826597D01*
X13987552Y-35880128D01*
X13833211Y-35958768D01*
X13753256Y-36016859D01*
X13693072Y-36060586D01*
X13693070Y-36060588D01*
X13693069Y-36060588D01*
X13570588Y-36183069D01*
X13570588Y-36183070D01*
X13570586Y-36183072D01*
X13526859Y-36243256D01*
X13468768Y-36323211D01*
X13390128Y-36477552D01*
X13336597Y-36642302D01*
X13332197Y-36670086D01*
X13309500Y-36813389D01*
X12970500Y-36813389D01*
X12943402Y-36642299D01*
X12889873Y-36477555D01*
X12811232Y-36323212D01*
X12709414Y-36183072D01*
X12586928Y-36060586D01*
X12446788Y-35958768D01*
X12292445Y-35880127D01*
X12127701Y-35826598D01*
X12127699Y-35826597D01*
X12127698Y-35826597D01*
X11996271Y-35805781D01*
X11956611Y-35799500D01*
X11783389Y-35799500D01*
X11743728Y-35805781D01*
X11612302Y-35826597D01*
X11447552Y-35880128D01*
X11293211Y-35958768D01*
X11213256Y-36016859D01*
X11153072Y-36060586D01*
X11153070Y-36060588D01*
X11153069Y-36060588D01*
X11030588Y-36183069D01*
X11030588Y-36183070D01*
X11030586Y-36183072D01*
X10986859Y-36243256D01*
X10928768Y-36323211D01*
X10850128Y-36477552D01*
X10796597Y-36642302D01*
X10792197Y-36670086D01*
X10769500Y-36813389D01*
X9824431Y-36813389D01*
X9807445Y-36750000D01*
X10470577Y-36750000D01*
X10470577Y-36749999D01*
X10451682Y-36630706D01*
X10395748Y-36458555D01*
X10395747Y-36458552D01*
X10313565Y-36297265D01*
X10207176Y-36150830D01*
X10079169Y-36022823D01*
X9932734Y-35916434D01*
X9771447Y-35834252D01*
X9771444Y-35834251D01*
X9599294Y-35778317D01*
X9480000Y-35759422D01*
X9480000Y-36422554D01*
X9395826Y-36400000D01*
X9264174Y-36400000D01*
X9180000Y-36422554D01*
X9180000Y-35759422D01*
X9179999Y-35759422D01*
X9060705Y-35778317D01*
X8888555Y-35834251D01*
X8888552Y-35834252D01*
X8727265Y-35916434D01*
X8580830Y-36022823D01*
X8452823Y-36150830D01*
X8346434Y-36297265D01*
X8264252Y-36458552D01*
X8264251Y-36458555D01*
X8208317Y-36630706D01*
X8189423Y-36750000D01*
X4860600Y-36750000D01*
X4940510Y-36670090D01*
X5012984Y-36544560D01*
X5014337Y-36539511D01*
X5050500Y-36404550D01*
X5050500Y-24893708D01*
X7346687Y-24893708D01*
X7419843Y-24935945D01*
X7572441Y-24976833D01*
X7572443Y-24976834D01*
X7730421Y-24976834D01*
X7730422Y-24976833D01*
X7883022Y-24935944D01*
X7956175Y-24893708D01*
X8646687Y-24893708D01*
X8719843Y-24935945D01*
X8872441Y-24976833D01*
X8872443Y-24976834D01*
X9030421Y-24976834D01*
X9030422Y-24976833D01*
X9183022Y-24935944D01*
X9256175Y-24893708D01*
X8951433Y-24588966D01*
X8951432Y-24588966D01*
X8646687Y-24893708D01*
X7956175Y-24893708D01*
X7651433Y-24588966D01*
X7651432Y-24588966D01*
X7346687Y-24893708D01*
X5050500Y-24893708D01*
X5050500Y-24297843D01*
X7051432Y-24297843D01*
X7051432Y-24455824D01*
X7092321Y-24608426D01*
X7134556Y-24681577D01*
X7439300Y-24376834D01*
X7439300Y-24376833D01*
X7409464Y-24346997D01*
X7501432Y-24346997D01*
X7501432Y-24406671D01*
X7524268Y-24461802D01*
X7566464Y-24503998D01*
X7621595Y-24526834D01*
X7681269Y-24526834D01*
X7736400Y-24503998D01*
X7778596Y-24461802D01*
X7801432Y-24406671D01*
X7801432Y-24376833D01*
X7863564Y-24376833D01*
X7863564Y-24376834D01*
X8168306Y-24681576D01*
X8194045Y-24636998D01*
X8244613Y-24588783D01*
X8313220Y-24575562D01*
X8378084Y-24601531D01*
X8408818Y-24636999D01*
X8434556Y-24681577D01*
X8739300Y-24376834D01*
X8739300Y-24376833D01*
X8709464Y-24346997D01*
X8801432Y-24346997D01*
X8801432Y-24406671D01*
X8824268Y-24461802D01*
X8866464Y-24503998D01*
X8921595Y-24526834D01*
X8981269Y-24526834D01*
X9036400Y-24503998D01*
X9078596Y-24461802D01*
X9101432Y-24406671D01*
X9101432Y-24376833D01*
X9163564Y-24376833D01*
X9163564Y-24376834D01*
X9468306Y-24681576D01*
X9510542Y-24608424D01*
X9551431Y-24455824D01*
X9551432Y-24455823D01*
X9551432Y-24297845D01*
X9551431Y-24297843D01*
X9510543Y-24145245D01*
X9468305Y-24072089D01*
X9163564Y-24376833D01*
X9101432Y-24376833D01*
X9101432Y-24346997D01*
X9078596Y-24291866D01*
X9036400Y-24249670D01*
X8981269Y-24226834D01*
X8921595Y-24226834D01*
X8866464Y-24249670D01*
X8824268Y-24291866D01*
X8801432Y-24346997D01*
X8709464Y-24346997D01*
X8434556Y-24072089D01*
X8434555Y-24072089D01*
X8408818Y-24116668D01*
X8358250Y-24164883D01*
X8289643Y-24178105D01*
X8224778Y-24152137D01*
X8194044Y-24116668D01*
X8168306Y-24072089D01*
X7863564Y-24376833D01*
X7801432Y-24376833D01*
X7801432Y-24346997D01*
X7778596Y-24291866D01*
X7736400Y-24249670D01*
X7681269Y-24226834D01*
X7621595Y-24226834D01*
X7566464Y-24249670D01*
X7524268Y-24291866D01*
X7501432Y-24346997D01*
X7409464Y-24346997D01*
X7134556Y-24072089D01*
X7134555Y-24072089D01*
X7092322Y-24145239D01*
X7092322Y-24145240D01*
X7051432Y-24297843D01*
X5050500Y-24297843D01*
X5050500Y-23859958D01*
X7346687Y-23859958D01*
X7651432Y-24164702D01*
X7651433Y-24164702D01*
X7956175Y-23859958D01*
X7953149Y-23836971D01*
X7949980Y-23833647D01*
X7936760Y-23765039D01*
X7938866Y-23751249D01*
X7950998Y-23693708D01*
X8646687Y-23693708D01*
X8649713Y-23716692D01*
X8652881Y-23720015D01*
X8666102Y-23788622D01*
X8651168Y-23825922D01*
X8646687Y-23859958D01*
X8951432Y-24164702D01*
X8951433Y-24164702D01*
X9256175Y-23859958D01*
X9253149Y-23836971D01*
X9249980Y-23833647D01*
X9236760Y-23765039D01*
X9251695Y-23727737D01*
X9256175Y-23693708D01*
X8951433Y-23388966D01*
X8951432Y-23388966D01*
X8646687Y-23693708D01*
X7950998Y-23693708D01*
X7951899Y-23689433D01*
X7651433Y-23388966D01*
X7651432Y-23388966D01*
X7350962Y-23689434D01*
X7363996Y-23751250D01*
X7362528Y-23770077D01*
X7366102Y-23788622D01*
X7359869Y-23804189D01*
X7358566Y-23820909D01*
X7350413Y-23831655D01*
X7346687Y-23859958D01*
X5050500Y-23859958D01*
X5050500Y-23097843D01*
X7051432Y-23097843D01*
X7051432Y-23255824D01*
X7092321Y-23408426D01*
X7134556Y-23481577D01*
X7439300Y-23176834D01*
X7439300Y-23176833D01*
X7409464Y-23146997D01*
X7501432Y-23146997D01*
X7501432Y-23206671D01*
X7524268Y-23261802D01*
X7566464Y-23303998D01*
X7621595Y-23326834D01*
X7681269Y-23326834D01*
X7736400Y-23303998D01*
X7778596Y-23261802D01*
X7801432Y-23206671D01*
X7801432Y-23176833D01*
X7863564Y-23176833D01*
X7863564Y-23176834D01*
X8168306Y-23481576D01*
X8194045Y-23436998D01*
X8244613Y-23388783D01*
X8313220Y-23375562D01*
X8378084Y-23401531D01*
X8408818Y-23436999D01*
X8434556Y-23481577D01*
X8739300Y-23176834D01*
X8739300Y-23176833D01*
X8709464Y-23146997D01*
X8801432Y-23146997D01*
X8801432Y-23206671D01*
X8824268Y-23261802D01*
X8866464Y-23303998D01*
X8921595Y-23326834D01*
X8981269Y-23326834D01*
X9036400Y-23303998D01*
X9078596Y-23261802D01*
X9101432Y-23206671D01*
X9101432Y-23176833D01*
X9163564Y-23176833D01*
X9163564Y-23176834D01*
X9468306Y-23481576D01*
X9510542Y-23408424D01*
X9551431Y-23255824D01*
X9551432Y-23255823D01*
X9551432Y-23097845D01*
X9551431Y-23097843D01*
X9510543Y-22945245D01*
X9468305Y-22872089D01*
X9163564Y-23176833D01*
X9101432Y-23176833D01*
X9101432Y-23146997D01*
X9078596Y-23091866D01*
X9036400Y-23049670D01*
X8981269Y-23026834D01*
X8921595Y-23026834D01*
X8866464Y-23049670D01*
X8824268Y-23091866D01*
X8801432Y-23146997D01*
X8709464Y-23146997D01*
X8434556Y-22872089D01*
X8434555Y-22872089D01*
X8408818Y-22916668D01*
X8358250Y-22964883D01*
X8289643Y-22978105D01*
X8224778Y-22952137D01*
X8194044Y-22916668D01*
X8168306Y-22872089D01*
X7863564Y-23176833D01*
X7801432Y-23176833D01*
X7801432Y-23146997D01*
X7778596Y-23091866D01*
X7736400Y-23049670D01*
X7681269Y-23026834D01*
X7621595Y-23026834D01*
X7566464Y-23049670D01*
X7524268Y-23091866D01*
X7501432Y-23146997D01*
X7409464Y-23146997D01*
X7134556Y-22872089D01*
X7134555Y-22872089D01*
X7092322Y-22945239D01*
X7092322Y-22945240D01*
X7051432Y-23097843D01*
X5050500Y-23097843D01*
X5050500Y-22659957D01*
X7346687Y-22659957D01*
X7346687Y-22659958D01*
X7651432Y-22964702D01*
X7651433Y-22964702D01*
X7956175Y-22659958D01*
X7956173Y-22659957D01*
X8646687Y-22659957D01*
X8646687Y-22659958D01*
X8951432Y-22964702D01*
X8951433Y-22964702D01*
X9256175Y-22659958D01*
X9183024Y-22617723D01*
X9030422Y-22576834D01*
X8872441Y-22576834D01*
X8719838Y-22617724D01*
X8719837Y-22617724D01*
X8646687Y-22659957D01*
X7956173Y-22659957D01*
X7883024Y-22617723D01*
X7730422Y-22576834D01*
X7572441Y-22576834D01*
X7419838Y-22617724D01*
X7419837Y-22617724D01*
X7346687Y-22659957D01*
X5050500Y-22659957D01*
X5050500Y-20579387D01*
X5070185Y-20512348D01*
X5086819Y-20491706D01*
X5308025Y-20270500D01*
X5540510Y-20038015D01*
X5612984Y-19912485D01*
X5624502Y-19869501D01*
X5627185Y-19859490D01*
X5639696Y-19812795D01*
X5650500Y-19772475D01*
X5650500Y-18679919D01*
X5670185Y-18612880D01*
X5701616Y-18579600D01*
X5756924Y-18539417D01*
X5756924Y-18539416D01*
X5756928Y-18539414D01*
X5879414Y-18416928D01*
X5981232Y-18276788D01*
X6059873Y-18122445D01*
X6113402Y-17957701D01*
X6140500Y-17786611D01*
X6140500Y-17613389D01*
X6113402Y-17442299D01*
X6059873Y-17277555D01*
X5981232Y-17123212D01*
X5879414Y-16983072D01*
X5756928Y-16860586D01*
X5701613Y-16820397D01*
X5658949Y-16765067D01*
X5650500Y-16720080D01*
X5650500Y-15579386D01*
X5670185Y-15512347D01*
X5686819Y-15491705D01*
X5904778Y-15273746D01*
X6184569Y-14993954D01*
X6245890Y-14960471D01*
X6315581Y-14965455D01*
X6341136Y-14978533D01*
X6352260Y-14985966D01*
X6352262Y-14985966D01*
X6352264Y-14985967D01*
X6425321Y-15000499D01*
X6425324Y-15000500D01*
X6425326Y-15000500D01*
X7474676Y-15000500D01*
X7474677Y-15000499D01*
X7499029Y-14995655D01*
X7547732Y-14985968D01*
X7547733Y-14985967D01*
X7547740Y-14985966D01*
X7547745Y-14985962D01*
X7552539Y-14983977D01*
X7622008Y-14976504D01*
X7647461Y-14983977D01*
X7652256Y-14985963D01*
X7652260Y-14985966D01*
X7652264Y-14985966D01*
X7652267Y-14985968D01*
X7725321Y-15000499D01*
X7725324Y-15000500D01*
X7725326Y-15000500D01*
X8774676Y-15000500D01*
X8774677Y-15000499D01*
X8847740Y-14985966D01*
X8930601Y-14930601D01*
X8985966Y-14847740D01*
X9000500Y-14774674D01*
X9000500Y-14724500D01*
X9020185Y-14657461D01*
X9072989Y-14611706D01*
X9124500Y-14600500D01*
X9626123Y-14600500D01*
X9652090Y-14608124D01*
X9678840Y-14612264D01*
X9685118Y-14617823D01*
X9693162Y-14620185D01*
X9710882Y-14640635D01*
X9731151Y-14658582D01*
X9736104Y-14669742D01*
X9738917Y-14672989D01*
X9745468Y-14690842D01*
X9746506Y-14694525D01*
X9746507Y-14694528D01*
X9754960Y-14724500D01*
X9755725Y-14727211D01*
X9755654Y-14733771D01*
X9769490Y-14776372D01*
X9770897Y-14781011D01*
X9773563Y-14790464D01*
X9775054Y-14794275D01*
X9784205Y-14814125D01*
X9801056Y-14850680D01*
X9816746Y-14867653D01*
X9825998Y-14878926D01*
X9848330Y-14909662D01*
X9848331Y-14909663D01*
X9848332Y-14909664D01*
X9848336Y-14909669D01*
X10141351Y-15202683D01*
X10409830Y-15471162D01*
X10456998Y-15508346D01*
X10496409Y-15532497D01*
X10496417Y-15532501D01*
X10496428Y-15532507D01*
X10532123Y-15550694D01*
X10532131Y-15550698D01*
X10581019Y-15560422D01*
X10629904Y-15570147D01*
X10629907Y-15570147D01*
X10691095Y-15570147D01*
X10710769Y-15567818D01*
X10731466Y-15565368D01*
X10800355Y-15577035D01*
X10833723Y-15600826D01*
X11843386Y-16610490D01*
X11946113Y-16669799D01*
X11970321Y-16676284D01*
X11970324Y-16676286D01*
X11970325Y-16676286D01*
X12000447Y-16684357D01*
X12060691Y-16700500D01*
X12060693Y-16700500D01*
X20551245Y-16700500D01*
X20618284Y-16720185D01*
X20664039Y-16772989D01*
X20675245Y-16824600D01*
X20659746Y-36019797D01*
X20936991Y-36297265D01*
X21539239Y-36900000D01*
X24128477Y-36900000D01*
X24195516Y-36919685D01*
X24216170Y-36936331D01*
X24783425Y-37503742D01*
X24816902Y-37565070D01*
X24819732Y-37591445D01*
X24818022Y-43831591D01*
X24798319Y-43898625D01*
X24745503Y-43944365D01*
X24676341Y-43954290D01*
X24612794Y-43925248D01*
X24606341Y-43919238D01*
X18086819Y-37399716D01*
X18053334Y-37338393D01*
X18050500Y-37312035D01*
X18050500Y-36025323D01*
X18050499Y-36025321D01*
X18035967Y-35952264D01*
X18035966Y-35952260D01*
X18012028Y-35916434D01*
X17980601Y-35869399D01*
X17897740Y-35814034D01*
X17897739Y-35814033D01*
X17897735Y-35814032D01*
X17824677Y-35799500D01*
X17824674Y-35799500D01*
X16075326Y-35799500D01*
X16075323Y-35799500D01*
X16002264Y-35814032D01*
X16002260Y-35814033D01*
X15919399Y-35869399D01*
X15864033Y-35952260D01*
X15864032Y-35952264D01*
X15849500Y-36025321D01*
X15849500Y-37774678D01*
X15864032Y-37847735D01*
X15864033Y-37847739D01*
X15864034Y-37847740D01*
X15919399Y-37930601D01*
X16002260Y-37985966D01*
X16002264Y-37985967D01*
X16075321Y-38000499D01*
X16075324Y-38000500D01*
X16075326Y-38000500D01*
X17362035Y-38000500D01*
X17429074Y-38020185D01*
X17449716Y-38036819D01*
X23863181Y-44450284D01*
X23896666Y-44511607D01*
X23899500Y-44537965D01*
X23899500Y-65988811D01*
X23879815Y-66055850D01*
X23863181Y-66076492D01*
X22601492Y-67338181D01*
X22540169Y-67371666D01*
X22513811Y-67374500D01*
X12986188Y-67374500D01*
X12919149Y-67354815D01*
X12898507Y-67338181D01*
X12036819Y-66476492D01*
X12022115Y-66449564D01*
X12005523Y-66423746D01*
X12004631Y-66417545D01*
X12003334Y-66415169D01*
X12000500Y-66388811D01*
X12000500Y-66334110D01*
X12000500Y-66334108D01*
X12899500Y-66334108D01*
X12899500Y-66465891D01*
X12933608Y-66593187D01*
X12942907Y-66609293D01*
X12999500Y-66707314D01*
X13092686Y-66800500D01*
X13206814Y-66866392D01*
X13334108Y-66900500D01*
X13334110Y-66900500D01*
X13465890Y-66900500D01*
X13465892Y-66900500D01*
X13593186Y-66866392D01*
X13707314Y-66800500D01*
X13800500Y-66707314D01*
X13866392Y-66593186D01*
X13900500Y-66465892D01*
X13900500Y-66411187D01*
X13920185Y-66344148D01*
X13936814Y-66323511D01*
X19239652Y-61020672D01*
X19239657Y-61020669D01*
X19249860Y-61010465D01*
X19249862Y-61010465D01*
X19310465Y-60949862D01*
X19353318Y-60875638D01*
X19359419Y-60852868D01*
X19375501Y-60792853D01*
X19375501Y-60707147D01*
X19375500Y-60707143D01*
X19375500Y-54281203D01*
X19395185Y-54214164D01*
X19447989Y-54168409D01*
X19517147Y-54158465D01*
X19531577Y-54161424D01*
X19584108Y-54175500D01*
X19603456Y-54175500D01*
X19670495Y-54195185D01*
X19691137Y-54211819D01*
X19920788Y-54441470D01*
X20000712Y-54487614D01*
X20089856Y-54511500D01*
X20089858Y-54511500D01*
X22285142Y-54511500D01*
X22285144Y-54511500D01*
X22374288Y-54487614D01*
X22454212Y-54441470D01*
X22558863Y-54336819D01*
X22620186Y-54303334D01*
X22646544Y-54300500D01*
X22665890Y-54300500D01*
X22665892Y-54300500D01*
X22793186Y-54266392D01*
X22907314Y-54200500D01*
X23000500Y-54107314D01*
X23066392Y-53993186D01*
X23100500Y-53865892D01*
X23100500Y-53734108D01*
X23066392Y-53606814D01*
X23000500Y-53492686D01*
X22907314Y-53399500D01*
X22850250Y-53366554D01*
X22793187Y-53333608D01*
X22729539Y-53316554D01*
X22665892Y-53299500D01*
X22534108Y-53299500D01*
X22406812Y-53333608D01*
X22292686Y-53399500D01*
X22292683Y-53399502D01*
X22199502Y-53492683D01*
X22199500Y-53492686D01*
X22133608Y-53606812D01*
X22127809Y-53628456D01*
X22103656Y-53718595D01*
X22067293Y-53778253D01*
X22004447Y-53808783D01*
X21983883Y-53810500D01*
X20332544Y-53810500D01*
X20303103Y-53801855D01*
X20273117Y-53795332D01*
X20268101Y-53791577D01*
X20265505Y-53790815D01*
X20244863Y-53774181D01*
X20186819Y-53716137D01*
X20153334Y-53654814D01*
X20150500Y-53628456D01*
X20150500Y-53609110D01*
X20150500Y-53609108D01*
X20116392Y-53481814D01*
X20050500Y-53367686D01*
X19957314Y-53274500D01*
X19900250Y-53241554D01*
X19843187Y-53208608D01*
X19779539Y-53191554D01*
X19715892Y-53174500D01*
X19584108Y-53174500D01*
X19575981Y-53174500D01*
X19575981Y-53172697D01*
X19516923Y-53163476D01*
X19464677Y-53117085D01*
X19462409Y-53113313D01*
X19450500Y-53092686D01*
X19357314Y-52999500D01*
X19274729Y-52951819D01*
X19226515Y-52901252D01*
X19213293Y-52832645D01*
X19239261Y-52767781D01*
X19274731Y-52737046D01*
X19338015Y-52700509D01*
X19440509Y-52598015D01*
X19512984Y-52472485D01*
X19550500Y-52332475D01*
X19550500Y-52187525D01*
X19512984Y-52047515D01*
X19507217Y-52037527D01*
X19440511Y-51921988D01*
X19440506Y-51921982D01*
X19338017Y-51819493D01*
X19338011Y-51819488D01*
X19212488Y-51747017D01*
X19212489Y-51747017D01*
X19201006Y-51743940D01*
X19072475Y-51709500D01*
X16427525Y-51709500D01*
X16298993Y-51743940D01*
X16287511Y-51747017D01*
X16161988Y-51819488D01*
X16161982Y-51819493D01*
X16059493Y-51921982D01*
X16059488Y-51921988D01*
X15987017Y-52047511D01*
X15987016Y-52047515D01*
X15949500Y-52187525D01*
X15949500Y-52332475D01*
X15980460Y-52448017D01*
X15987017Y-52472488D01*
X16059488Y-52598011D01*
X16059490Y-52598013D01*
X16059491Y-52598015D01*
X16161985Y-52700509D01*
X16161986Y-52700510D01*
X16161988Y-52700511D01*
X16287511Y-52772982D01*
X16287512Y-52772982D01*
X16287515Y-52772984D01*
X16427525Y-52810500D01*
X16427528Y-52810500D01*
X18632324Y-52810500D01*
X18699363Y-52830185D01*
X18745118Y-52882989D01*
X18755062Y-52952147D01*
X18726037Y-53015703D01*
X18720005Y-53022181D01*
X18649502Y-53092683D01*
X18649500Y-53092686D01*
X18583608Y-53206812D01*
X18583127Y-53208608D01*
X18549500Y-53334108D01*
X18549500Y-53465892D01*
X18566554Y-53529539D01*
X18583608Y-53593187D01*
X18603971Y-53628456D01*
X18649500Y-53707314D01*
X18649502Y-53707316D01*
X18688181Y-53745995D01*
X18721666Y-53807318D01*
X18724500Y-53833676D01*
X18724500Y-60563811D01*
X18704815Y-60630850D01*
X18688181Y-60651492D01*
X13476492Y-65863181D01*
X13415169Y-65896666D01*
X13388811Y-65899500D01*
X13334108Y-65899500D01*
X13206812Y-65933608D01*
X13092686Y-65999500D01*
X13092683Y-65999502D01*
X12999502Y-66092683D01*
X12999500Y-66092686D01*
X12933608Y-66206812D01*
X12899500Y-66334108D01*
X12000500Y-66334108D01*
X11966392Y-66206814D01*
X11900500Y-66092686D01*
X11807314Y-65999500D01*
X11750250Y-65966554D01*
X11693187Y-65933608D01*
X11629539Y-65916554D01*
X11565892Y-65899500D01*
X11434108Y-65899500D01*
X11306812Y-65933608D01*
X11192686Y-65999500D01*
X11192683Y-65999502D01*
X11099502Y-66092683D01*
X11099500Y-66092686D01*
X11033608Y-66206812D01*
X10999500Y-66334108D01*
X10999500Y-66465891D01*
X11033608Y-66593187D01*
X11042907Y-66609293D01*
X11099500Y-66707314D01*
X11192686Y-66800500D01*
X11306814Y-66866392D01*
X11434108Y-66900500D01*
X11488811Y-66900500D01*
X11555850Y-66920185D01*
X11576492Y-66936819D01*
X12101356Y-67461682D01*
X12539533Y-67899859D01*
X12539535Y-67899862D01*
X12600138Y-67960465D01*
X12646126Y-67987016D01*
X12654716Y-67991975D01*
X12654718Y-67991977D01*
X12674356Y-68003315D01*
X12674359Y-68003317D01*
X12674361Y-68003317D01*
X12674362Y-68003318D01*
X12757147Y-68025501D01*
X12757149Y-68025501D01*
X12850449Y-68025501D01*
X12850465Y-68025500D01*
X22742851Y-68025500D01*
X22742853Y-68025500D01*
X22825639Y-68003318D01*
X22899862Y-67960465D01*
X23687819Y-67172508D01*
X23749142Y-67139023D01*
X23818834Y-67144007D01*
X23874767Y-67185879D01*
X23899184Y-67251343D01*
X23899500Y-67260189D01*
X23899500Y-71659309D01*
X23903923Y-71675814D01*
X23930201Y-71773887D01*
X23989511Y-71876614D01*
X23989513Y-71876616D01*
X24773774Y-72660877D01*
X24807259Y-72722200D01*
X24810093Y-72748592D01*
X24809956Y-73249999D01*
X24809957Y-73250000D01*
X25311534Y-73250000D01*
X25378573Y-73269685D01*
X25399216Y-73286319D01*
X25823386Y-73710490D01*
X25926113Y-73769799D01*
X25950321Y-73776284D01*
X25950324Y-73776286D01*
X25950325Y-73776286D01*
X25980447Y-73784357D01*
X26040691Y-73800500D01*
X31663541Y-73800500D01*
X31730580Y-73820185D01*
X31776335Y-73872989D01*
X31786279Y-73942147D01*
X31763859Y-73997385D01*
X31708770Y-74073208D01*
X31630128Y-74227552D01*
X31576597Y-74392302D01*
X31549500Y-74563389D01*
X31549500Y-74736610D01*
X31576597Y-74907698D01*
X31630124Y-75072440D01*
X31635504Y-75082998D01*
X31648399Y-75151668D01*
X31622121Y-75216408D01*
X31612699Y-75226972D01*
X29202492Y-77637181D01*
X29141169Y-77670666D01*
X29114811Y-77673500D01*
X12710867Y-77673500D01*
X12643828Y-77653815D01*
X12623186Y-77637181D01*
X10762819Y-75776814D01*
X10729334Y-75715491D01*
X10726500Y-75689133D01*
X10726500Y-71435246D01*
X10746185Y-71368207D01*
X10788499Y-71327859D01*
X10894025Y-71266935D01*
X10982556Y-71178404D01*
X11045156Y-71069976D01*
X11077561Y-70949041D01*
X11077561Y-70823839D01*
X11045156Y-70702904D01*
X10982556Y-70594476D01*
X10894025Y-70505945D01*
X10894024Y-70505944D01*
X10894021Y-70505942D01*
X10818842Y-70462538D01*
X10770627Y-70411971D01*
X10756842Y-70355151D01*
X10756842Y-70287400D01*
X10755103Y-70280909D01*
X10724437Y-70166464D01*
X10661837Y-70058036D01*
X10573306Y-69969505D01*
X10464878Y-69906905D01*
X10464879Y-69906905D01*
X10424566Y-69896103D01*
X10343943Y-69874500D01*
X10218741Y-69874500D01*
X10138117Y-69896103D01*
X10097805Y-69906905D01*
X10002670Y-69961831D01*
X9934770Y-69978302D01*
X9878672Y-69961831D01*
X9783536Y-69906905D01*
X9783537Y-69906905D01*
X9743224Y-69896103D01*
X9662601Y-69874500D01*
X9537399Y-69874500D01*
X9456775Y-69896103D01*
X9416463Y-69906905D01*
X9308037Y-69969504D01*
X9308034Y-69969506D01*
X9219506Y-70058034D01*
X9219504Y-70058037D01*
X9156905Y-70166463D01*
X9124500Y-70287400D01*
X9124500Y-70373349D01*
X9104815Y-70440388D01*
X9062500Y-70480736D01*
X9003068Y-70515048D01*
X9003063Y-70515052D01*
X8914535Y-70603580D01*
X8914533Y-70603583D01*
X8851934Y-70712009D01*
X8851934Y-70712010D01*
X8819529Y-70832945D01*
X8819529Y-70958147D01*
X8851934Y-71079082D01*
X8914534Y-71187510D01*
X9003065Y-71276041D01*
X9110501Y-71338068D01*
X9158715Y-71388632D01*
X9172500Y-71445454D01*
X9172500Y-76206503D01*
X9172500Y-76292209D01*
X9183591Y-76333602D01*
X9194682Y-76374996D01*
X9216108Y-76412106D01*
X9237535Y-76449218D01*
X11949782Y-79161465D01*
X12024005Y-79204318D01*
X12106791Y-79226500D01*
X12192497Y-79226500D01*
X29094811Y-79226500D01*
X29161850Y-79246185D01*
X29182492Y-79262819D01*
X31513181Y-81593508D01*
X31546666Y-81654831D01*
X31549500Y-81681189D01*
X31549500Y-83144678D01*
X31564032Y-83217735D01*
X31564033Y-83217739D01*
X31564034Y-83217740D01*
X31619399Y-83300601D01*
X31702260Y-83355966D01*
X31702264Y-83355967D01*
X31775321Y-83370499D01*
X31775324Y-83370500D01*
X31775326Y-83370500D01*
X33524676Y-83370500D01*
X33524677Y-83370499D01*
X33597740Y-83355966D01*
X33680601Y-83300601D01*
X33735966Y-83217740D01*
X33750500Y-83144674D01*
X33750500Y-82183389D01*
X34089500Y-82183389D01*
X34089500Y-82356611D01*
X34116598Y-82527701D01*
X34170127Y-82692445D01*
X34248768Y-82846788D01*
X34350586Y-82986928D01*
X34473072Y-83109414D01*
X34613212Y-83211232D01*
X34767555Y-83289873D01*
X34932299Y-83343402D01*
X35103389Y-83370500D01*
X35103390Y-83370500D01*
X35276610Y-83370500D01*
X35276611Y-83370500D01*
X35447701Y-83343402D01*
X35612445Y-83289873D01*
X35766788Y-83211232D01*
X35906928Y-83109414D01*
X36029414Y-82986928D01*
X36131232Y-82846788D01*
X36209873Y-82692445D01*
X36263402Y-82527701D01*
X36290500Y-82356611D01*
X36290500Y-82183389D01*
X36280460Y-82120000D01*
X36589423Y-82120000D01*
X37252555Y-82120000D01*
X37230000Y-82204174D01*
X37230000Y-82335826D01*
X37252555Y-82420000D01*
X36589423Y-82420000D01*
X36608317Y-82539293D01*
X36664251Y-82711444D01*
X36664252Y-82711447D01*
X36746434Y-82872734D01*
X36852823Y-83019169D01*
X36980830Y-83147176D01*
X37127265Y-83253565D01*
X37288552Y-83335747D01*
X37288555Y-83335748D01*
X37460706Y-83391682D01*
X37580000Y-83410577D01*
X37580000Y-82747445D01*
X37664174Y-82770000D01*
X37795826Y-82770000D01*
X37880000Y-82747445D01*
X37880000Y-83410576D01*
X37999293Y-83391682D01*
X38171444Y-83335748D01*
X38171447Y-83335747D01*
X38332734Y-83253565D01*
X38479169Y-83147176D01*
X38607176Y-83019169D01*
X38713565Y-82872734D01*
X38795747Y-82711447D01*
X38795748Y-82711444D01*
X38851682Y-82539293D01*
X38870577Y-82420000D01*
X38207445Y-82420000D01*
X38230000Y-82335826D01*
X38230000Y-82204174D01*
X38207445Y-82120000D01*
X38870577Y-82120000D01*
X38851682Y-82000706D01*
X38795748Y-81828555D01*
X38795747Y-81828552D01*
X38713565Y-81667265D01*
X38607176Y-81520830D01*
X38479169Y-81392823D01*
X38332734Y-81286434D01*
X38171447Y-81204252D01*
X38171444Y-81204251D01*
X37999294Y-81148317D01*
X37880000Y-81129421D01*
X37880000Y-81792554D01*
X37795826Y-81770000D01*
X37664174Y-81770000D01*
X37580000Y-81792554D01*
X37580000Y-81129422D01*
X37579999Y-81129421D01*
X37460705Y-81148317D01*
X37288555Y-81204251D01*
X37288552Y-81204252D01*
X37127265Y-81286434D01*
X36980830Y-81392823D01*
X36852823Y-81520830D01*
X36746434Y-81667265D01*
X36664252Y-81828552D01*
X36664251Y-81828555D01*
X36608317Y-82000706D01*
X36589423Y-82120000D01*
X36280460Y-82120000D01*
X36263402Y-82012299D01*
X36209873Y-81847555D01*
X36131232Y-81693212D01*
X36029414Y-81553072D01*
X35906928Y-81430586D01*
X35766788Y-81328768D01*
X35612445Y-81250127D01*
X35447701Y-81196598D01*
X35447699Y-81196597D01*
X35447698Y-81196597D01*
X35316271Y-81175781D01*
X35276611Y-81169500D01*
X35103389Y-81169500D01*
X35063728Y-81175781D01*
X34932302Y-81196597D01*
X34767552Y-81250128D01*
X34613211Y-81328768D01*
X34572478Y-81358363D01*
X34473072Y-81430586D01*
X34473070Y-81430588D01*
X34473069Y-81430588D01*
X34350588Y-81553069D01*
X34350588Y-81553070D01*
X34350586Y-81553072D01*
X34306859Y-81613256D01*
X34248768Y-81693211D01*
X34170128Y-81847552D01*
X34116597Y-82012302D01*
X34106349Y-82077007D01*
X34089500Y-82183389D01*
X33750500Y-82183389D01*
X33750500Y-81395326D01*
X33750500Y-81395323D01*
X33750499Y-81395321D01*
X33735967Y-81322264D01*
X33735966Y-81322260D01*
X33712028Y-81286434D01*
X33680601Y-81239399D01*
X33597740Y-81184034D01*
X33597739Y-81184033D01*
X33597735Y-81184032D01*
X33524677Y-81169500D01*
X33524674Y-81169500D01*
X32061189Y-81169500D01*
X31994150Y-81149815D01*
X31973508Y-81133181D01*
X29977508Y-79137181D01*
X29944023Y-79075858D01*
X29949007Y-79006166D01*
X29990879Y-78950233D01*
X30056343Y-78925816D01*
X30065189Y-78925500D01*
X31333811Y-78925500D01*
X31400850Y-78945185D01*
X31421492Y-78961819D01*
X31612699Y-79153026D01*
X31646184Y-79214349D01*
X31641200Y-79284041D01*
X31635507Y-79296994D01*
X31630126Y-79307556D01*
X31576597Y-79472301D01*
X31566349Y-79537007D01*
X31549500Y-79643389D01*
X31549500Y-79816611D01*
X31576598Y-79987701D01*
X31630127Y-80152445D01*
X31708768Y-80306788D01*
X31810586Y-80446928D01*
X31933072Y-80569414D01*
X32073212Y-80671232D01*
X32227555Y-80749873D01*
X32392299Y-80803402D01*
X32563389Y-80830500D01*
X32563390Y-80830500D01*
X32736610Y-80830500D01*
X32736611Y-80830500D01*
X32907701Y-80803402D01*
X33072445Y-80749873D01*
X33226788Y-80671232D01*
X33366928Y-80569414D01*
X33489414Y-80446928D01*
X33591232Y-80306788D01*
X33669873Y-80152445D01*
X33723402Y-79987701D01*
X33750500Y-79816611D01*
X33750500Y-79643389D01*
X34089500Y-79643389D01*
X34089500Y-79816611D01*
X34116598Y-79987701D01*
X34170127Y-80152445D01*
X34248768Y-80306788D01*
X34350586Y-80446928D01*
X34473072Y-80569414D01*
X34613212Y-80671232D01*
X34767555Y-80749873D01*
X34932299Y-80803402D01*
X35103389Y-80830500D01*
X35103390Y-80830500D01*
X35276610Y-80830500D01*
X35276611Y-80830500D01*
X35447701Y-80803402D01*
X35612445Y-80749873D01*
X35766788Y-80671232D01*
X35906928Y-80569414D01*
X36029414Y-80446928D01*
X36131232Y-80306788D01*
X36209873Y-80152445D01*
X36263402Y-79987701D01*
X36290500Y-79816611D01*
X36290500Y-79643389D01*
X36280460Y-79580000D01*
X36589423Y-79580000D01*
X37252555Y-79580000D01*
X37230000Y-79664174D01*
X37230000Y-79795826D01*
X37252555Y-79880000D01*
X36589423Y-79880000D01*
X36608317Y-79999293D01*
X36664251Y-80171444D01*
X36664252Y-80171447D01*
X36746434Y-80332734D01*
X36852823Y-80479169D01*
X36980830Y-80607176D01*
X37127265Y-80713565D01*
X37288552Y-80795747D01*
X37288555Y-80795748D01*
X37460706Y-80851682D01*
X37579999Y-80870577D01*
X37580000Y-80870577D01*
X37580000Y-80207445D01*
X37664174Y-80230000D01*
X37795826Y-80230000D01*
X37880000Y-80207445D01*
X37880000Y-80870576D01*
X37999293Y-80851682D01*
X38171444Y-80795748D01*
X38171447Y-80795747D01*
X38332734Y-80713565D01*
X38479169Y-80607176D01*
X38607176Y-80479169D01*
X38713565Y-80332734D01*
X38795747Y-80171447D01*
X38795748Y-80171444D01*
X38851682Y-79999293D01*
X38870577Y-79880000D01*
X38207445Y-79880000D01*
X38230000Y-79795826D01*
X38230000Y-79664174D01*
X38207445Y-79580000D01*
X38870577Y-79580000D01*
X38851682Y-79460706D01*
X38795748Y-79288555D01*
X38795747Y-79288552D01*
X38713565Y-79127265D01*
X38607176Y-78980830D01*
X38479169Y-78852823D01*
X38332734Y-78746434D01*
X38171447Y-78664252D01*
X38171444Y-78664251D01*
X37999294Y-78608317D01*
X37880000Y-78589421D01*
X37880000Y-79252554D01*
X37795826Y-79230000D01*
X37664174Y-79230000D01*
X37580000Y-79252554D01*
X37580000Y-78589422D01*
X37579999Y-78589421D01*
X37460705Y-78608317D01*
X37288555Y-78664251D01*
X37288552Y-78664252D01*
X37127265Y-78746434D01*
X36980830Y-78852823D01*
X36852823Y-78980830D01*
X36746434Y-79127265D01*
X36664252Y-79288552D01*
X36664251Y-79288555D01*
X36608317Y-79460706D01*
X36589423Y-79580000D01*
X36280460Y-79580000D01*
X36263402Y-79472299D01*
X36209873Y-79307555D01*
X36131232Y-79153212D01*
X36029414Y-79013072D01*
X35906928Y-78890586D01*
X35766788Y-78788768D01*
X35612445Y-78710127D01*
X35447701Y-78656598D01*
X35447699Y-78656597D01*
X35447698Y-78656597D01*
X35316271Y-78635781D01*
X35276611Y-78629500D01*
X35103389Y-78629500D01*
X35063728Y-78635781D01*
X34932302Y-78656597D01*
X34767552Y-78710128D01*
X34613211Y-78788768D01*
X34533256Y-78846859D01*
X34473072Y-78890586D01*
X34473070Y-78890588D01*
X34473069Y-78890588D01*
X34350588Y-79013069D01*
X34350588Y-79013070D01*
X34350586Y-79013072D01*
X34306859Y-79073256D01*
X34248768Y-79153211D01*
X34170128Y-79307552D01*
X34116597Y-79472302D01*
X34106349Y-79537007D01*
X34089500Y-79643389D01*
X33750500Y-79643389D01*
X33723402Y-79472299D01*
X33669873Y-79307555D01*
X33591232Y-79153212D01*
X33489414Y-79013072D01*
X33366928Y-78890586D01*
X33226788Y-78788768D01*
X33072445Y-78710127D01*
X32907701Y-78656598D01*
X32907699Y-78656597D01*
X32907698Y-78656597D01*
X32776271Y-78635781D01*
X32736611Y-78629500D01*
X32563389Y-78629500D01*
X32531192Y-78634599D01*
X32392301Y-78656597D01*
X32227556Y-78710126D01*
X32216994Y-78715507D01*
X32192705Y-78720066D01*
X32169553Y-78728702D01*
X32158969Y-78726399D01*
X32148324Y-78728398D01*
X32125427Y-78719102D01*
X32101280Y-78713850D01*
X32088002Y-78703910D01*
X32083585Y-78702117D01*
X32073026Y-78692699D01*
X31928007Y-78547680D01*
X31894522Y-78486357D01*
X31899506Y-78416665D01*
X31928003Y-78372322D01*
X32073028Y-78227297D01*
X32134349Y-78193814D01*
X32204041Y-78198798D01*
X32216996Y-78204493D01*
X32227555Y-78209873D01*
X32392299Y-78263402D01*
X32563389Y-78290500D01*
X32563390Y-78290500D01*
X32736610Y-78290500D01*
X32736611Y-78290500D01*
X32907701Y-78263402D01*
X33072445Y-78209873D01*
X33226788Y-78131232D01*
X33366928Y-78029414D01*
X33489414Y-77906928D01*
X33591232Y-77766788D01*
X33669873Y-77612445D01*
X33723402Y-77447701D01*
X33750500Y-77276611D01*
X33750500Y-77103389D01*
X34089500Y-77103389D01*
X34089500Y-77276610D01*
X34116597Y-77447697D01*
X34116597Y-77447699D01*
X34116598Y-77447701D01*
X34170125Y-77612440D01*
X34170128Y-77612447D01*
X34187880Y-77647288D01*
X34248768Y-77766788D01*
X34350586Y-77906928D01*
X34473072Y-78029414D01*
X34613212Y-78131232D01*
X34767555Y-78209873D01*
X34932299Y-78263402D01*
X35103389Y-78290500D01*
X35103390Y-78290500D01*
X35276610Y-78290500D01*
X35276611Y-78290500D01*
X35447701Y-78263402D01*
X35612445Y-78209873D01*
X35766788Y-78131232D01*
X35906928Y-78029414D01*
X36029414Y-77906928D01*
X36131232Y-77766788D01*
X36209873Y-77612445D01*
X36263402Y-77447701D01*
X36290500Y-77276611D01*
X36290500Y-77103389D01*
X36280460Y-77040000D01*
X36589423Y-77040000D01*
X37252555Y-77040000D01*
X37230000Y-77124174D01*
X37230000Y-77255826D01*
X37252555Y-77340000D01*
X36589423Y-77340000D01*
X36608317Y-77459293D01*
X36664251Y-77631444D01*
X36664252Y-77631447D01*
X36746434Y-77792734D01*
X36852823Y-77939169D01*
X36980830Y-78067176D01*
X37127265Y-78173565D01*
X37288552Y-78255747D01*
X37288555Y-78255748D01*
X37460706Y-78311682D01*
X37579999Y-78330577D01*
X37580000Y-78330577D01*
X37580000Y-77667445D01*
X37664174Y-77690000D01*
X37795826Y-77690000D01*
X37880000Y-77667445D01*
X37880000Y-78330576D01*
X37999293Y-78311682D01*
X38171444Y-78255748D01*
X38171447Y-78255747D01*
X38332734Y-78173565D01*
X38479169Y-78067176D01*
X38607176Y-77939169D01*
X38713565Y-77792734D01*
X38795747Y-77631447D01*
X38795748Y-77631444D01*
X38851682Y-77459293D01*
X38870577Y-77340000D01*
X38207445Y-77340000D01*
X38230000Y-77255826D01*
X38230000Y-77124174D01*
X38207445Y-77040000D01*
X38870577Y-77040000D01*
X38851682Y-76920706D01*
X38795748Y-76748555D01*
X38795747Y-76748552D01*
X38713565Y-76587265D01*
X38607176Y-76440830D01*
X38479169Y-76312823D01*
X38332734Y-76206434D01*
X38171447Y-76124252D01*
X38171444Y-76124251D01*
X37999294Y-76068317D01*
X37880000Y-76049421D01*
X37880000Y-76712554D01*
X37795826Y-76690000D01*
X37664174Y-76690000D01*
X37580000Y-76712554D01*
X37580000Y-76049422D01*
X37579999Y-76049421D01*
X37460705Y-76068317D01*
X37288555Y-76124251D01*
X37288552Y-76124252D01*
X37127265Y-76206434D01*
X36980830Y-76312823D01*
X36852823Y-76440830D01*
X36746434Y-76587265D01*
X36664252Y-76748552D01*
X36664251Y-76748555D01*
X36608317Y-76920706D01*
X36589423Y-77040000D01*
X36280460Y-77040000D01*
X36263402Y-76932299D01*
X36209873Y-76767555D01*
X36131232Y-76613212D01*
X36029414Y-76473072D01*
X35906928Y-76350586D01*
X35766788Y-76248768D01*
X35612445Y-76170127D01*
X35447701Y-76116598D01*
X35447699Y-76116597D01*
X35447698Y-76116597D01*
X35316271Y-76095781D01*
X35276611Y-76089500D01*
X35103389Y-76089500D01*
X35063728Y-76095781D01*
X34932302Y-76116597D01*
X34767552Y-76170128D01*
X34613211Y-76248768D01*
X34553422Y-76292208D01*
X34473072Y-76350586D01*
X34473070Y-76350588D01*
X34473069Y-76350588D01*
X34350588Y-76473069D01*
X34350588Y-76473070D01*
X34350586Y-76473072D01*
X34306859Y-76533256D01*
X34248768Y-76613211D01*
X34170128Y-76767552D01*
X34116597Y-76932302D01*
X34089500Y-77103389D01*
X33750500Y-77103389D01*
X33723402Y-76932299D01*
X33669873Y-76767555D01*
X33591232Y-76613212D01*
X33489414Y-76473072D01*
X33366928Y-76350586D01*
X33226788Y-76248768D01*
X33072445Y-76170127D01*
X32907701Y-76116598D01*
X32907699Y-76116597D01*
X32907698Y-76116597D01*
X32776271Y-76095781D01*
X32736611Y-76089500D01*
X32563389Y-76089500D01*
X32523728Y-76095781D01*
X32392302Y-76116597D01*
X32227552Y-76170128D01*
X32073211Y-76248768D01*
X32013422Y-76292208D01*
X31933072Y-76350586D01*
X31933070Y-76350588D01*
X31933069Y-76350588D01*
X31810588Y-76473069D01*
X31810588Y-76473070D01*
X31810586Y-76473072D01*
X31766859Y-76533256D01*
X31708768Y-76613211D01*
X31630128Y-76767552D01*
X31576597Y-76932302D01*
X31549500Y-77103389D01*
X31549500Y-77276610D01*
X31576597Y-77447698D01*
X31630124Y-77612440D01*
X31635504Y-77622998D01*
X31640065Y-77647288D01*
X31648702Y-77670444D01*
X31646400Y-77681024D01*
X31648399Y-77691668D01*
X31639104Y-77714567D01*
X31633851Y-77738717D01*
X31623913Y-77751992D01*
X31622121Y-77756408D01*
X31612700Y-77766972D01*
X31441490Y-77938182D01*
X31380170Y-77971666D01*
X31353811Y-77974500D01*
X30085189Y-77974500D01*
X30018150Y-77954815D01*
X29972395Y-77902011D01*
X29962451Y-77832853D01*
X29991476Y-77769297D01*
X29997508Y-77762819D01*
X30504501Y-77255826D01*
X32073028Y-75687297D01*
X32134349Y-75653814D01*
X32204041Y-75658798D01*
X32216996Y-75664493D01*
X32227555Y-75669873D01*
X32392299Y-75723402D01*
X32563389Y-75750500D01*
X32563390Y-75750500D01*
X32736610Y-75750500D01*
X32736611Y-75750500D01*
X32907701Y-75723402D01*
X33072445Y-75669873D01*
X33226788Y-75591232D01*
X33366928Y-75489414D01*
X33489414Y-75366928D01*
X33591232Y-75226788D01*
X33669873Y-75072445D01*
X33723402Y-74907701D01*
X33750500Y-74736611D01*
X33750500Y-74563389D01*
X33723402Y-74392299D01*
X33669873Y-74227555D01*
X33591232Y-74073212D01*
X33584869Y-74064454D01*
X33536141Y-73997385D01*
X33531909Y-73985525D01*
X33523665Y-73976011D01*
X33520391Y-73953244D01*
X33512661Y-73931579D01*
X33515512Y-73919314D01*
X33513721Y-73906853D01*
X33523275Y-73885930D01*
X33528486Y-73863525D01*
X33537515Y-73854749D01*
X33542746Y-73843297D01*
X33562095Y-73830861D01*
X33578592Y-73814830D01*
X33592339Y-73811425D01*
X33601524Y-73805523D01*
X33636459Y-73800500D01*
X33652035Y-73800500D01*
X33719074Y-73820185D01*
X33739716Y-73836819D01*
X34106665Y-74203768D01*
X34140150Y-74265091D01*
X34136915Y-74329767D01*
X34116598Y-74392294D01*
X34116598Y-74392297D01*
X34089500Y-74563389D01*
X34089500Y-74736610D01*
X34116597Y-74907697D01*
X34116597Y-74907699D01*
X34116598Y-74907701D01*
X34170127Y-75072445D01*
X34248768Y-75226788D01*
X34350586Y-75366928D01*
X34473072Y-75489414D01*
X34613212Y-75591232D01*
X34767555Y-75669873D01*
X34932299Y-75723402D01*
X35103389Y-75750500D01*
X35103390Y-75750500D01*
X35276610Y-75750500D01*
X35276611Y-75750500D01*
X35447701Y-75723402D01*
X35612445Y-75669873D01*
X35766788Y-75591232D01*
X35906928Y-75489414D01*
X36029414Y-75366928D01*
X36131232Y-75226788D01*
X36209873Y-75072445D01*
X36263402Y-74907701D01*
X36290500Y-74736611D01*
X36290500Y-74563389D01*
X36280460Y-74500000D01*
X36589423Y-74500000D01*
X37252555Y-74500000D01*
X37230000Y-74584174D01*
X37230000Y-74715826D01*
X37252555Y-74800000D01*
X36589423Y-74800000D01*
X36608317Y-74919293D01*
X36664251Y-75091444D01*
X36664252Y-75091447D01*
X36746434Y-75252734D01*
X36852823Y-75399169D01*
X36980830Y-75527176D01*
X37127265Y-75633565D01*
X37288552Y-75715747D01*
X37288555Y-75715748D01*
X37460706Y-75771682D01*
X37579999Y-75790577D01*
X37580000Y-75790577D01*
X37580000Y-75127445D01*
X37664174Y-75150000D01*
X37795826Y-75150000D01*
X37880000Y-75127445D01*
X37880000Y-75790576D01*
X37999293Y-75771682D01*
X38171444Y-75715748D01*
X38171447Y-75715747D01*
X38332734Y-75633565D01*
X38479169Y-75527176D01*
X38607176Y-75399169D01*
X38713565Y-75252734D01*
X38795747Y-75091447D01*
X38795748Y-75091444D01*
X38851682Y-74919293D01*
X38870577Y-74800000D01*
X38207445Y-74800000D01*
X38230000Y-74715826D01*
X38230000Y-74584174D01*
X38207445Y-74500000D01*
X38870577Y-74500000D01*
X38851682Y-74380706D01*
X38795748Y-74208555D01*
X38795747Y-74208552D01*
X38713565Y-74047265D01*
X38607176Y-73900830D01*
X38479169Y-73772823D01*
X38332734Y-73666434D01*
X38171447Y-73584252D01*
X38171444Y-73584251D01*
X37999294Y-73528317D01*
X37880000Y-73509422D01*
X37880000Y-74172554D01*
X37795826Y-74150000D01*
X37664174Y-74150000D01*
X37580000Y-74172554D01*
X37580000Y-73509422D01*
X37579999Y-73509422D01*
X37460705Y-73528317D01*
X37288555Y-73584251D01*
X37288552Y-73584252D01*
X37127265Y-73666434D01*
X36980830Y-73772823D01*
X36852823Y-73900830D01*
X36746434Y-74047265D01*
X36664252Y-74208552D01*
X36664251Y-74208555D01*
X36608317Y-74380706D01*
X36589423Y-74500000D01*
X36280460Y-74500000D01*
X36263402Y-74392299D01*
X36209873Y-74227555D01*
X36131232Y-74073212D01*
X36029414Y-73933072D01*
X35906928Y-73810586D01*
X35766788Y-73708768D01*
X35612445Y-73630127D01*
X35447701Y-73576598D01*
X35447699Y-73576597D01*
X35447698Y-73576597D01*
X35316271Y-73555781D01*
X35276611Y-73549500D01*
X35103389Y-73549500D01*
X35046359Y-73558532D01*
X34932297Y-73576598D01*
X34932294Y-73576598D01*
X34869767Y-73596915D01*
X34799926Y-73598910D01*
X34743768Y-73566665D01*
X34638784Y-73461681D01*
X34605299Y-73400358D01*
X34610283Y-73330666D01*
X34652155Y-73274733D01*
X34717619Y-73250316D01*
X34726465Y-73250000D01*
X47475500Y-73250000D01*
X47542539Y-73269685D01*
X47588294Y-73322489D01*
X47599500Y-73374000D01*
X47599500Y-87006519D01*
X47599305Y-87013472D01*
X47583545Y-87294099D01*
X47581988Y-87307917D01*
X47535491Y-87581577D01*
X47532397Y-87595134D01*
X47455552Y-87861869D01*
X47450959Y-87874993D01*
X47344734Y-88131445D01*
X47338701Y-88143974D01*
X47204428Y-88386921D01*
X47197030Y-88398695D01*
X47036401Y-88625081D01*
X47027731Y-88635953D01*
X46842764Y-88842931D01*
X46832931Y-88852764D01*
X46625953Y-89037731D01*
X46615081Y-89046401D01*
X46388695Y-89207030D01*
X46376921Y-89214428D01*
X46133974Y-89348701D01*
X46121445Y-89354734D01*
X45864993Y-89460959D01*
X45851869Y-89465552D01*
X45585134Y-89542397D01*
X45571577Y-89545491D01*
X45297917Y-89591988D01*
X45284099Y-89593545D01*
X45003472Y-89609305D01*
X44996519Y-89609500D01*
X3003481Y-89609500D01*
X2996528Y-89609305D01*
X2715900Y-89593545D01*
X2702082Y-89591988D01*
X2428422Y-89545491D01*
X2414865Y-89542397D01*
X2148130Y-89465552D01*
X2135006Y-89460959D01*
X1878554Y-89354734D01*
X1866025Y-89348701D01*
X1623078Y-89214428D01*
X1611304Y-89207030D01*
X1384918Y-89046401D01*
X1374046Y-89037731D01*
X1167068Y-88852764D01*
X1157235Y-88842931D01*
X1126055Y-88808041D01*
X972268Y-88635953D01*
X963598Y-88625081D01*
X802969Y-88398695D01*
X795571Y-88386921D01*
X709011Y-88230303D01*
X661294Y-88143967D01*
X655265Y-88131445D01*
X549040Y-87874993D01*
X544447Y-87861869D01*
X523458Y-87789013D01*
X467599Y-87595123D01*
X464508Y-87581577D01*
X457900Y-87542685D01*
X418010Y-87307909D01*
X416454Y-87294106D01*
X400695Y-87013471D01*
X400500Y-87006519D01*
X400500Y-86878872D01*
X999500Y-86878872D01*
X999500Y-87141127D01*
X1020556Y-87301052D01*
X1033730Y-87401116D01*
X1071663Y-87542685D01*
X1101602Y-87654418D01*
X1101605Y-87654428D01*
X1201953Y-87896690D01*
X1201958Y-87896700D01*
X1333075Y-88123803D01*
X1492718Y-88331851D01*
X1492726Y-88331860D01*
X1678140Y-88517274D01*
X1678148Y-88517281D01*
X1886196Y-88676924D01*
X2113299Y-88808041D01*
X2113309Y-88808046D01*
X2355571Y-88908394D01*
X2355581Y-88908398D01*
X2608884Y-88976270D01*
X2868880Y-89010500D01*
X2868887Y-89010500D01*
X3131113Y-89010500D01*
X3131120Y-89010500D01*
X3391116Y-88976270D01*
X3644419Y-88908398D01*
X3886697Y-88808043D01*
X4113803Y-88676924D01*
X4321851Y-88517282D01*
X4321855Y-88517277D01*
X4321860Y-88517274D01*
X4507274Y-88331860D01*
X4507277Y-88331855D01*
X4507282Y-88331851D01*
X4666924Y-88123803D01*
X4798043Y-87896697D01*
X4898398Y-87654419D01*
X4966270Y-87401116D01*
X5000500Y-87141120D01*
X5000500Y-86878880D01*
X4966270Y-86618884D01*
X4898398Y-86365581D01*
X4828375Y-86196530D01*
X22949500Y-86196530D01*
X22949500Y-86403469D01*
X22989868Y-86606412D01*
X22989870Y-86606420D01*
X23069058Y-86797596D01*
X23184024Y-86969657D01*
X23330342Y-87115975D01*
X23330345Y-87115977D01*
X23502402Y-87230941D01*
X23693580Y-87310130D01*
X23896530Y-87350499D01*
X23896534Y-87350500D01*
X23896535Y-87350500D01*
X24103466Y-87350500D01*
X24103467Y-87350499D01*
X24306420Y-87310130D01*
X24497598Y-87230941D01*
X24669655Y-87115977D01*
X24815977Y-86969655D01*
X24851903Y-86915888D01*
X24876636Y-86878872D01*
X42999500Y-86878872D01*
X42999500Y-87141127D01*
X43020556Y-87301052D01*
X43033730Y-87401116D01*
X43071663Y-87542685D01*
X43101602Y-87654418D01*
X43101605Y-87654428D01*
X43201953Y-87896690D01*
X43201958Y-87896700D01*
X43333075Y-88123803D01*
X43492718Y-88331851D01*
X43492726Y-88331860D01*
X43678140Y-88517274D01*
X43678148Y-88517281D01*
X43886196Y-88676924D01*
X44113299Y-88808041D01*
X44113309Y-88808046D01*
X44355571Y-88908394D01*
X44355581Y-88908398D01*
X44608884Y-88976270D01*
X44868880Y-89010500D01*
X44868887Y-89010500D01*
X45131113Y-89010500D01*
X45131120Y-89010500D01*
X45391116Y-88976270D01*
X45644419Y-88908398D01*
X45886697Y-88808043D01*
X46113803Y-88676924D01*
X46321851Y-88517282D01*
X46321855Y-88517277D01*
X46321860Y-88517274D01*
X46507274Y-88331860D01*
X46507277Y-88331855D01*
X46507282Y-88331851D01*
X46666924Y-88123803D01*
X46798043Y-87896697D01*
X46898398Y-87654419D01*
X46966270Y-87401116D01*
X47000500Y-87141120D01*
X47000500Y-86878880D01*
X46966270Y-86618884D01*
X46898398Y-86365581D01*
X46845509Y-86237896D01*
X46798046Y-86123309D01*
X46798041Y-86123299D01*
X46666924Y-85896196D01*
X46507281Y-85688148D01*
X46507274Y-85688140D01*
X46321860Y-85502726D01*
X46321851Y-85502718D01*
X46113803Y-85343075D01*
X45886700Y-85211958D01*
X45886690Y-85211953D01*
X45644428Y-85111605D01*
X45644421Y-85111603D01*
X45644419Y-85111602D01*
X45391116Y-85043730D01*
X45333339Y-85036123D01*
X45131127Y-85009500D01*
X45131120Y-85009500D01*
X44868880Y-85009500D01*
X44868872Y-85009500D01*
X44637772Y-85039926D01*
X44608884Y-85043730D01*
X44355581Y-85111602D01*
X44355571Y-85111605D01*
X44113309Y-85211953D01*
X44113299Y-85211958D01*
X43886196Y-85343075D01*
X43678148Y-85502718D01*
X43492718Y-85688148D01*
X43333075Y-85896196D01*
X43201958Y-86123299D01*
X43201953Y-86123309D01*
X43101605Y-86365571D01*
X43101602Y-86365581D01*
X43033730Y-86618885D01*
X42999500Y-86878872D01*
X24876636Y-86878872D01*
X24925374Y-86805931D01*
X24928000Y-86801999D01*
X24930941Y-86797598D01*
X25010130Y-86606420D01*
X25050500Y-86403465D01*
X25050500Y-86196535D01*
X25010130Y-85993580D01*
X24930941Y-85802402D01*
X24815977Y-85630345D01*
X24815975Y-85630342D01*
X24669657Y-85484024D01*
X24583626Y-85426541D01*
X24497598Y-85369059D01*
X24434867Y-85343075D01*
X24306420Y-85289870D01*
X24306412Y-85289868D01*
X24103469Y-85249500D01*
X24103465Y-85249500D01*
X23896535Y-85249500D01*
X23896530Y-85249500D01*
X23693587Y-85289868D01*
X23693579Y-85289870D01*
X23502403Y-85369058D01*
X23330342Y-85484024D01*
X23184024Y-85630342D01*
X23069058Y-85802403D01*
X22989870Y-85993579D01*
X22989868Y-85993587D01*
X22949500Y-86196530D01*
X4828375Y-86196530D01*
X4798043Y-86123303D01*
X4723148Y-85993580D01*
X4666924Y-85896196D01*
X4507281Y-85688148D01*
X4507274Y-85688140D01*
X4321860Y-85502726D01*
X4321851Y-85502718D01*
X4113803Y-85343075D01*
X3886700Y-85211958D01*
X3886690Y-85211953D01*
X3644428Y-85111605D01*
X3644421Y-85111603D01*
X3644419Y-85111602D01*
X3391116Y-85043730D01*
X3333339Y-85036123D01*
X3131127Y-85009500D01*
X3131120Y-85009500D01*
X2868880Y-85009500D01*
X2868872Y-85009500D01*
X2637772Y-85039926D01*
X2608884Y-85043730D01*
X2355581Y-85111602D01*
X2355571Y-85111605D01*
X2113309Y-85211953D01*
X2113299Y-85211958D01*
X1886196Y-85343075D01*
X1678148Y-85502718D01*
X1492718Y-85688148D01*
X1333075Y-85896196D01*
X1201958Y-86123299D01*
X1201953Y-86123309D01*
X1101605Y-86365571D01*
X1101602Y-86365581D01*
X1033730Y-86618885D01*
X999500Y-86878872D01*
X400500Y-86878872D01*
X400500Y-81709448D01*
X22849500Y-81709448D01*
X22849500Y-81890551D01*
X22877829Y-82069410D01*
X22933787Y-82241636D01*
X22933788Y-82241639D01*
X23016006Y-82402997D01*
X23122441Y-82549494D01*
X23122445Y-82549499D01*
X23250500Y-82677554D01*
X23250505Y-82677558D01*
X23377742Y-82770000D01*
X23397006Y-82783996D01*
X23502484Y-82837740D01*
X23558360Y-82866211D01*
X23558363Y-82866212D01*
X23644476Y-82894191D01*
X23730591Y-82922171D01*
X23813429Y-82935291D01*
X23909449Y-82950500D01*
X23909454Y-82950500D01*
X24090551Y-82950500D01*
X24177259Y-82936765D01*
X24269409Y-82922171D01*
X24441639Y-82866211D01*
X24602994Y-82783996D01*
X24749501Y-82677553D01*
X24877553Y-82549501D01*
X24983996Y-82402994D01*
X25066211Y-82241639D01*
X25122171Y-82069409D01*
X25139026Y-81962993D01*
X25150500Y-81890551D01*
X25150500Y-81709448D01*
X25132136Y-81593508D01*
X25122171Y-81530591D01*
X25089678Y-81430586D01*
X25066212Y-81358363D01*
X25066211Y-81358360D01*
X25011063Y-81250128D01*
X24983996Y-81197006D01*
X24934893Y-81129421D01*
X24877558Y-81050505D01*
X24877554Y-81050500D01*
X24749499Y-80922445D01*
X24749494Y-80922441D01*
X24602997Y-80816006D01*
X24602996Y-80816005D01*
X24602994Y-80816004D01*
X24551300Y-80789664D01*
X24441639Y-80733788D01*
X24441636Y-80733787D01*
X24269410Y-80677829D01*
X24090551Y-80649500D01*
X24090546Y-80649500D01*
X23909454Y-80649500D01*
X23909449Y-80649500D01*
X23730589Y-80677829D01*
X23558363Y-80733787D01*
X23558360Y-80733788D01*
X23397002Y-80816006D01*
X23250505Y-80922441D01*
X23250500Y-80922445D01*
X23122445Y-81050500D01*
X23122441Y-81050505D01*
X23016006Y-81197002D01*
X22933788Y-81358360D01*
X22933787Y-81358363D01*
X22877829Y-81530589D01*
X22849500Y-81709448D01*
X400500Y-81709448D01*
X400500Y-66190000D01*
X2559423Y-66190000D01*
X3222555Y-66190000D01*
X3200000Y-66274174D01*
X3200000Y-66405826D01*
X3222555Y-66490000D01*
X2559423Y-66490000D01*
X2578317Y-66609293D01*
X2634251Y-66781444D01*
X2634252Y-66781447D01*
X2716434Y-66942734D01*
X2822823Y-67089169D01*
X2950830Y-67217176D01*
X3097265Y-67323565D01*
X3258552Y-67405747D01*
X3258555Y-67405748D01*
X3430706Y-67461682D01*
X3550000Y-67480577D01*
X3550000Y-66817445D01*
X3634174Y-66840000D01*
X3765826Y-66840000D01*
X3850000Y-66817445D01*
X3850000Y-67480576D01*
X3969293Y-67461682D01*
X4141444Y-67405748D01*
X4141447Y-67405747D01*
X4302734Y-67323565D01*
X4449169Y-67217176D01*
X4577176Y-67089169D01*
X4683565Y-66942734D01*
X4765747Y-66781447D01*
X4765748Y-66781444D01*
X4821682Y-66609293D01*
X4840577Y-66490000D01*
X4177445Y-66490000D01*
X4200000Y-66405826D01*
X4200000Y-66274174D01*
X4177445Y-66190000D01*
X4840577Y-66190000D01*
X4821682Y-66070706D01*
X4765748Y-65898555D01*
X4765747Y-65898552D01*
X4683565Y-65737265D01*
X4577176Y-65590830D01*
X4449169Y-65462823D01*
X4302734Y-65356434D01*
X4141447Y-65274252D01*
X4141444Y-65274251D01*
X3969294Y-65218317D01*
X3850000Y-65199422D01*
X3850000Y-65862554D01*
X3765826Y-65840000D01*
X3634174Y-65840000D01*
X3550000Y-65862554D01*
X3550000Y-65199422D01*
X3549999Y-65199422D01*
X3430705Y-65218317D01*
X3258555Y-65274251D01*
X3258552Y-65274252D01*
X3097265Y-65356434D01*
X2950830Y-65462823D01*
X2822823Y-65590830D01*
X2716434Y-65737265D01*
X2634252Y-65898552D01*
X2634251Y-65898555D01*
X2578317Y-66070706D01*
X2559423Y-66190000D01*
X400500Y-66190000D01*
X400500Y-62925321D01*
X2599500Y-62925321D01*
X2599500Y-64674678D01*
X2614032Y-64747735D01*
X2614033Y-64747739D01*
X2614034Y-64747740D01*
X2669399Y-64830601D01*
X2752260Y-64885966D01*
X2752264Y-64885967D01*
X2825321Y-64900499D01*
X2825324Y-64900500D01*
X2825326Y-64900500D01*
X4574676Y-64900500D01*
X4574677Y-64900499D01*
X4647740Y-64885966D01*
X4730601Y-64830601D01*
X4785966Y-64747740D01*
X4800500Y-64674674D01*
X4800500Y-63684500D01*
X4820185Y-63617461D01*
X4872989Y-63571706D01*
X4924500Y-63560500D01*
X8929811Y-63560500D01*
X8996850Y-63580185D01*
X9042605Y-63632989D01*
X9052549Y-63702147D01*
X9023524Y-63765703D01*
X9017492Y-63772180D01*
X6810263Y-65979409D01*
X4670688Y-68118984D01*
X4609365Y-68152469D01*
X4539673Y-68147485D01*
X4495326Y-68118984D01*
X4416930Y-68040588D01*
X4416928Y-68040586D01*
X4276788Y-67938768D01*
X4122445Y-67860127D01*
X3957701Y-67806598D01*
X3957699Y-67806597D01*
X3957698Y-67806597D01*
X3826271Y-67785781D01*
X3786611Y-67779500D01*
X3613389Y-67779500D01*
X3573728Y-67785781D01*
X3442302Y-67806597D01*
X3277552Y-67860128D01*
X3123211Y-67938768D01*
X3049976Y-67991977D01*
X2983072Y-68040586D01*
X2983070Y-68040588D01*
X2983069Y-68040588D01*
X2860588Y-68163069D01*
X2860588Y-68163070D01*
X2860586Y-68163072D01*
X2831973Y-68202454D01*
X2758768Y-68303211D01*
X2680128Y-68457552D01*
X2626597Y-68622302D01*
X2616721Y-68684660D01*
X2599500Y-68793389D01*
X2599500Y-68966611D01*
X2626598Y-69137701D01*
X2680127Y-69302445D01*
X2758768Y-69456788D01*
X2860586Y-69596928D01*
X2983072Y-69719414D01*
X3123212Y-69821232D01*
X3277555Y-69899873D01*
X3442299Y-69953402D01*
X3613389Y-69980500D01*
X3613390Y-69980500D01*
X3786610Y-69980500D01*
X3786611Y-69980500D01*
X3957701Y-69953402D01*
X4122445Y-69899873D01*
X4276788Y-69821232D01*
X4416928Y-69719414D01*
X4539414Y-69596928D01*
X4641232Y-69456788D01*
X4719873Y-69302445D01*
X4773402Y-69137701D01*
X4800500Y-68966611D01*
X4800500Y-68961189D01*
X4820185Y-68894150D01*
X4836819Y-68873508D01*
X14564508Y-59145819D01*
X14625831Y-59112334D01*
X14652189Y-59109500D01*
X16278075Y-59109500D01*
X16278077Y-59109500D01*
X16360863Y-59087318D01*
X16435086Y-59044465D01*
X16688095Y-58791454D01*
X16749414Y-58757972D01*
X16759590Y-58756199D01*
X16762624Y-58755799D01*
X16762628Y-58755799D01*
X16883563Y-58723394D01*
X16991991Y-58660794D01*
X17080522Y-58572263D01*
X17143122Y-58463835D01*
X17175527Y-58342900D01*
X17175527Y-58217698D01*
X17143122Y-58096763D01*
X17080522Y-57988335D01*
X16991991Y-57899804D01*
X16883563Y-57837204D01*
X16883564Y-57837204D01*
X16843251Y-57826402D01*
X16762628Y-57804799D01*
X16637426Y-57804799D01*
X16576958Y-57821001D01*
X16516489Y-57837204D01*
X16516486Y-57837206D01*
X16457642Y-57871179D01*
X16389742Y-57887650D01*
X16333645Y-57871178D01*
X16284506Y-57842808D01*
X16258632Y-57827870D01*
X16258631Y-57827869D01*
X16218318Y-57817067D01*
X16137695Y-57795464D01*
X16012493Y-57795464D01*
X15931869Y-57817067D01*
X15891557Y-57827869D01*
X15783131Y-57890468D01*
X15783128Y-57890470D01*
X15694600Y-57978998D01*
X15694598Y-57979001D01*
X15682181Y-58000509D01*
X15633395Y-58085011D01*
X15627936Y-58094466D01*
X15625108Y-58092833D01*
X15590830Y-58135363D01*
X15524534Y-58157421D01*
X15520120Y-58157500D01*
X14980386Y-58157500D01*
X14913347Y-58137815D01*
X14867592Y-58085011D01*
X14857648Y-58015853D01*
X14886673Y-57952297D01*
X14892705Y-57945819D01*
X14940509Y-57898015D01*
X15012984Y-57772485D01*
X15050500Y-57632475D01*
X15050500Y-54977527D01*
X15012984Y-54837517D01*
X14940509Y-54711987D01*
X14838015Y-54609493D01*
X14838013Y-54609492D01*
X14838011Y-54609490D01*
X14712488Y-54537019D01*
X14712489Y-54537019D01*
X14701006Y-54533942D01*
X14572475Y-54499502D01*
X14427525Y-54499502D01*
X14298993Y-54533942D01*
X14287511Y-54537019D01*
X14161988Y-54609490D01*
X14161982Y-54609495D01*
X14059493Y-54711984D01*
X14059488Y-54711990D01*
X13987017Y-54837513D01*
X13987016Y-54837517D01*
X13949500Y-54977527D01*
X13949500Y-57632475D01*
X13965069Y-57690577D01*
X13987017Y-57772488D01*
X14059488Y-57898011D01*
X14059493Y-57898017D01*
X14153758Y-57992282D01*
X14187243Y-58053605D01*
X14182259Y-58123297D01*
X14140387Y-58179230D01*
X14128079Y-58187349D01*
X14067141Y-58222532D01*
X14067135Y-58222537D01*
X9416492Y-62873181D01*
X9355169Y-62906666D01*
X9328811Y-62909500D01*
X8157901Y-62909500D01*
X8090862Y-62889815D01*
X8045107Y-62837011D01*
X8035163Y-62767853D01*
X8064188Y-62704297D01*
X8101606Y-62675015D01*
X8117165Y-62667086D01*
X8226788Y-62611232D01*
X8366928Y-62509414D01*
X8489414Y-62386928D01*
X8591232Y-62246788D01*
X8669873Y-62092445D01*
X8723402Y-61927701D01*
X8750500Y-61756611D01*
X8750500Y-61583389D01*
X8723402Y-61412299D01*
X8669873Y-61247555D01*
X8591232Y-61093212D01*
X8489414Y-60953072D01*
X8366928Y-60830586D01*
X8226788Y-60728768D01*
X8072445Y-60650127D01*
X7907701Y-60596598D01*
X7907699Y-60596597D01*
X7907698Y-60596597D01*
X7776271Y-60575781D01*
X7736611Y-60569500D01*
X7563389Y-60569500D01*
X7523728Y-60575781D01*
X7392302Y-60596597D01*
X7227552Y-60650128D01*
X7073211Y-60728768D01*
X6993256Y-60786859D01*
X6933072Y-60830586D01*
X6933070Y-60830588D01*
X6933069Y-60830588D01*
X6810588Y-60953069D01*
X6810588Y-60953070D01*
X6810586Y-60953072D01*
X6768887Y-61010465D01*
X6708768Y-61093211D01*
X6630128Y-61247552D01*
X6576597Y-61412302D01*
X6549500Y-61583389D01*
X6549500Y-61756611D01*
X6576598Y-61927701D01*
X6630127Y-62092445D01*
X6708768Y-62246788D01*
X6810586Y-62386928D01*
X6933072Y-62509414D01*
X7073212Y-62611232D01*
X7170298Y-62660699D01*
X7198394Y-62675015D01*
X7249190Y-62722989D01*
X7265985Y-62790810D01*
X7243448Y-62856945D01*
X7188733Y-62900397D01*
X7142099Y-62909500D01*
X4890492Y-62909500D01*
X4823453Y-62889815D01*
X4787390Y-62854390D01*
X4730602Y-62769400D01*
X4647739Y-62714033D01*
X4647735Y-62714032D01*
X4574677Y-62699500D01*
X4574674Y-62699500D01*
X2825326Y-62699500D01*
X2825323Y-62699500D01*
X2752264Y-62714032D01*
X2752260Y-62714033D01*
X2669399Y-62769399D01*
X2614033Y-62852260D01*
X2614032Y-62852264D01*
X2599500Y-62925321D01*
X400500Y-62925321D01*
X400500Y-59003389D01*
X2599500Y-59003389D01*
X2599500Y-59176611D01*
X2626598Y-59347701D01*
X2680127Y-59512445D01*
X2758768Y-59666788D01*
X2860586Y-59806928D01*
X2983072Y-59929414D01*
X3123212Y-60031232D01*
X3277555Y-60109873D01*
X3442299Y-60163402D01*
X3613389Y-60190500D01*
X3613390Y-60190500D01*
X3786610Y-60190500D01*
X3786611Y-60190500D01*
X3957701Y-60163402D01*
X4122445Y-60109873D01*
X4276788Y-60031232D01*
X4416928Y-59929414D01*
X4539414Y-59806928D01*
X4641232Y-59666788D01*
X4719873Y-59512445D01*
X4773402Y-59347701D01*
X4800500Y-59176611D01*
X4800500Y-59043389D01*
X6549500Y-59043389D01*
X6549500Y-59216610D01*
X6570262Y-59347701D01*
X6576598Y-59387701D01*
X6630127Y-59552445D01*
X6708768Y-59706788D01*
X6810586Y-59846928D01*
X6933072Y-59969414D01*
X7073212Y-60071232D01*
X7227555Y-60149873D01*
X7392299Y-60203402D01*
X7563389Y-60230500D01*
X7563390Y-60230500D01*
X7736610Y-60230500D01*
X7736611Y-60230500D01*
X7907701Y-60203402D01*
X8072445Y-60149873D01*
X8226788Y-60071232D01*
X8366928Y-59969414D01*
X8489414Y-59846928D01*
X8591232Y-59706788D01*
X8669873Y-59552445D01*
X8723402Y-59387701D01*
X8750500Y-59216611D01*
X8750500Y-59043389D01*
X8723402Y-58872299D01*
X8669873Y-58707555D01*
X8591232Y-58553212D01*
X8489414Y-58413072D01*
X8366928Y-58290586D01*
X8226788Y-58188768D01*
X8072445Y-58110127D01*
X7907701Y-58056598D01*
X7907699Y-58056597D01*
X7907698Y-58056597D01*
X7776271Y-58035781D01*
X7736611Y-58029500D01*
X7563389Y-58029500D01*
X7523728Y-58035781D01*
X7392302Y-58056597D01*
X7227552Y-58110128D01*
X7073211Y-58188768D01*
X7026733Y-58222537D01*
X6933072Y-58290586D01*
X6933070Y-58290588D01*
X6933069Y-58290588D01*
X6810588Y-58413069D01*
X6810588Y-58413070D01*
X6810586Y-58413072D01*
X6773704Y-58463835D01*
X6708768Y-58553211D01*
X6630128Y-58707552D01*
X6576597Y-58872302D01*
X6549500Y-59043389D01*
X4800500Y-59043389D01*
X4800500Y-59003389D01*
X4773402Y-58832299D01*
X4719873Y-58667555D01*
X4641232Y-58513212D01*
X4539414Y-58373072D01*
X4416928Y-58250586D01*
X4276788Y-58148768D01*
X4122445Y-58070127D01*
X3957701Y-58016598D01*
X3957699Y-58016597D01*
X3957698Y-58016597D01*
X3826271Y-57995781D01*
X3786611Y-57989500D01*
X3613389Y-57989500D01*
X3573728Y-57995781D01*
X3442302Y-58016597D01*
X3277552Y-58070128D01*
X3123211Y-58148768D01*
X3070110Y-58187349D01*
X2983072Y-58250586D01*
X2983070Y-58250588D01*
X2983069Y-58250588D01*
X2860588Y-58373069D01*
X2860588Y-58373070D01*
X2860586Y-58373072D01*
X2831526Y-58413070D01*
X2758768Y-58513211D01*
X2680128Y-58667552D01*
X2626597Y-58832302D01*
X2620262Y-58872302D01*
X2599500Y-59003389D01*
X400500Y-59003389D01*
X400500Y-56400000D01*
X2559423Y-56400000D01*
X3222555Y-56400000D01*
X3200000Y-56484174D01*
X3200000Y-56615826D01*
X3222555Y-56700000D01*
X2559423Y-56700000D01*
X2578317Y-56819293D01*
X2634251Y-56991444D01*
X2634252Y-56991447D01*
X2716434Y-57152734D01*
X2822823Y-57299169D01*
X2950830Y-57427176D01*
X3097265Y-57533565D01*
X3258552Y-57615747D01*
X3258555Y-57615748D01*
X3430706Y-57671682D01*
X3550000Y-57690577D01*
X3550000Y-57027445D01*
X3634174Y-57050000D01*
X3765826Y-57050000D01*
X3850000Y-57027445D01*
X3850000Y-57690576D01*
X3969293Y-57671682D01*
X4141444Y-57615748D01*
X4141447Y-57615747D01*
X4302734Y-57533565D01*
X4449169Y-57427176D01*
X4577176Y-57299169D01*
X4683565Y-57152734D01*
X4765747Y-56991447D01*
X4765748Y-56991444D01*
X4821682Y-56819293D01*
X4840577Y-56700000D01*
X4177445Y-56700000D01*
X4200000Y-56615826D01*
X4200000Y-56503389D01*
X6549500Y-56503389D01*
X6549500Y-56676611D01*
X6557677Y-56728239D01*
X6572098Y-56819293D01*
X6576598Y-56847701D01*
X6630127Y-57012445D01*
X6708768Y-57166788D01*
X6810586Y-57306928D01*
X6933072Y-57429414D01*
X7073212Y-57531232D01*
X7227555Y-57609873D01*
X7392299Y-57663402D01*
X7563389Y-57690500D01*
X7563390Y-57690500D01*
X7736610Y-57690500D01*
X7736611Y-57690500D01*
X7907701Y-57663402D01*
X8072445Y-57609873D01*
X8226788Y-57531232D01*
X8366928Y-57429414D01*
X8489414Y-57306928D01*
X8591232Y-57166788D01*
X8669873Y-57012445D01*
X8723402Y-56847701D01*
X8750500Y-56676611D01*
X8750500Y-56503389D01*
X8723402Y-56332299D01*
X8669873Y-56167555D01*
X8591232Y-56013212D01*
X8489414Y-55873072D01*
X8366928Y-55750586D01*
X8226788Y-55648768D01*
X8072445Y-55570127D01*
X7907701Y-55516598D01*
X7907699Y-55516597D01*
X7907698Y-55516597D01*
X7776271Y-55495781D01*
X7736611Y-55489500D01*
X7563389Y-55489500D01*
X7523728Y-55495781D01*
X7392302Y-55516597D01*
X7227552Y-55570128D01*
X7073211Y-55648768D01*
X7040103Y-55672823D01*
X6933072Y-55750586D01*
X6933070Y-55750588D01*
X6933069Y-55750588D01*
X6810588Y-55873069D01*
X6810588Y-55873070D01*
X6810586Y-55873072D01*
X6766859Y-55933256D01*
X6708768Y-56013211D01*
X6630128Y-56167552D01*
X6576597Y-56332302D01*
X6566690Y-56394856D01*
X6549500Y-56503389D01*
X4200000Y-56503389D01*
X4200000Y-56484174D01*
X4177445Y-56400000D01*
X4840577Y-56400000D01*
X4840577Y-56399999D01*
X4821682Y-56280706D01*
X4765748Y-56108555D01*
X4765747Y-56108552D01*
X4683565Y-55947265D01*
X4577176Y-55800830D01*
X4449169Y-55672823D01*
X4302734Y-55566434D01*
X4141447Y-55484252D01*
X4141444Y-55484251D01*
X3969294Y-55428317D01*
X3850000Y-55409422D01*
X3850000Y-56072554D01*
X3765826Y-56050000D01*
X3634174Y-56050000D01*
X3550000Y-56072554D01*
X3550000Y-55409422D01*
X3549999Y-55409422D01*
X3430705Y-55428317D01*
X3258555Y-55484251D01*
X3258552Y-55484252D01*
X3097265Y-55566434D01*
X2950830Y-55672823D01*
X2822823Y-55800830D01*
X2716434Y-55947265D01*
X2634252Y-56108552D01*
X2634251Y-56108555D01*
X2578317Y-56280706D01*
X2559423Y-56400000D01*
X400500Y-56400000D01*
X400500Y-53135321D01*
X2599500Y-53135321D01*
X2599500Y-54884678D01*
X2614032Y-54957735D01*
X2614033Y-54957739D01*
X2614034Y-54957740D01*
X2669399Y-55040601D01*
X2732599Y-55082829D01*
X2752260Y-55095966D01*
X2752264Y-55095967D01*
X2825321Y-55110499D01*
X2825324Y-55110500D01*
X2825326Y-55110500D01*
X4574676Y-55110500D01*
X4574677Y-55110499D01*
X4647740Y-55095966D01*
X4730601Y-55040601D01*
X4785966Y-54957740D01*
X4800500Y-54884674D01*
X4800500Y-53175321D01*
X6549500Y-53175321D01*
X6549500Y-54924678D01*
X6564032Y-54997735D01*
X6564033Y-54997739D01*
X6564034Y-54997740D01*
X6619399Y-55080601D01*
X6664147Y-55110500D01*
X6702260Y-55135966D01*
X6702264Y-55135967D01*
X6775321Y-55150499D01*
X6775324Y-55150500D01*
X6775326Y-55150500D01*
X8524676Y-55150500D01*
X8524677Y-55150499D01*
X8597740Y-55135966D01*
X8680601Y-55080601D01*
X8735966Y-54997740D01*
X8750500Y-54924674D01*
X8750500Y-53175326D01*
X8750500Y-53175323D01*
X8750499Y-53175321D01*
X8735967Y-53102264D01*
X8735966Y-53102260D01*
X8709239Y-53062260D01*
X8680601Y-53019399D01*
X8597740Y-52964034D01*
X8597739Y-52964033D01*
X8597735Y-52964032D01*
X8524677Y-52949500D01*
X8524674Y-52949500D01*
X6775326Y-52949500D01*
X6775323Y-52949500D01*
X6702264Y-52964032D01*
X6702260Y-52964033D01*
X6619399Y-53019399D01*
X6564033Y-53102260D01*
X6564032Y-53102264D01*
X6549500Y-53175321D01*
X4800500Y-53175321D01*
X4800500Y-53135326D01*
X4800500Y-53135323D01*
X4800499Y-53135321D01*
X4785967Y-53062264D01*
X4785966Y-53062260D01*
X4730601Y-52979399D01*
X4647740Y-52924034D01*
X4647739Y-52924033D01*
X4647735Y-52924032D01*
X4574677Y-52909500D01*
X4574674Y-52909500D01*
X2825326Y-52909500D01*
X2825323Y-52909500D01*
X2752264Y-52924032D01*
X2752260Y-52924033D01*
X2669399Y-52979399D01*
X2614033Y-53062260D01*
X2614032Y-53062264D01*
X2599500Y-53135321D01*
X400500Y-53135321D01*
X400500Y-11694785D01*
X6150001Y-11694785D01*
X6150002Y-11694808D01*
X6152908Y-11719869D01*
X6152909Y-11719873D01*
X6198211Y-11822474D01*
X6198214Y-11822479D01*
X6277520Y-11901785D01*
X6277525Y-11901788D01*
X6380123Y-11947089D01*
X6405206Y-11949999D01*
X6799999Y-11949999D01*
X6800000Y-11949998D01*
X6800000Y-11050000D01*
X6150001Y-11050000D01*
X6150001Y-11694785D01*
X400500Y-11694785D01*
X400500Y-10105205D01*
X6150000Y-10105205D01*
X6150000Y-10750000D01*
X6800000Y-10750000D01*
X6800000Y-9850000D01*
X6405214Y-9850000D01*
X6405191Y-9850002D01*
X6380130Y-9852908D01*
X6380126Y-9852909D01*
X6277525Y-9898211D01*
X6277520Y-9898214D01*
X6198214Y-9977520D01*
X6198211Y-9977525D01*
X6152910Y-10080122D01*
X6152910Y-10080124D01*
X6150000Y-10105205D01*
X400500Y-10105205D01*
X400500Y-5038711D01*
X7989500Y-5038711D01*
X7989500Y-5281288D01*
X8021161Y-5521785D01*
X8083947Y-5756104D01*
X8176773Y-5980205D01*
X8176776Y-5980212D01*
X8298064Y-6190289D01*
X8298066Y-6190292D01*
X8298067Y-6190293D01*
X8445733Y-6382736D01*
X8445739Y-6382743D01*
X8617256Y-6554260D01*
X8617262Y-6554265D01*
X8809711Y-6701936D01*
X9019788Y-6823224D01*
X9243900Y-6916054D01*
X9478211Y-6978838D01*
X9658586Y-7002584D01*
X9718711Y-7010500D01*
X9718712Y-7010500D01*
X9961289Y-7010500D01*
X10009388Y-7004167D01*
X10201789Y-6978838D01*
X10436100Y-6916054D01*
X10660212Y-6823224D01*
X10870289Y-6701936D01*
X11062738Y-6554265D01*
X11234265Y-6382738D01*
X11381936Y-6190289D01*
X11503224Y-5980212D01*
X11596054Y-5756100D01*
X11658838Y-5521789D01*
X11690500Y-5281288D01*
X11690500Y-5038712D01*
X11658838Y-4798211D01*
X11596054Y-4563900D01*
X11503224Y-4339788D01*
X11381936Y-4129711D01*
X11234265Y-3937262D01*
X11234260Y-3937256D01*
X11062743Y-3765739D01*
X11062736Y-3765733D01*
X10870293Y-3618067D01*
X10870292Y-3618066D01*
X10870289Y-3618064D01*
X10660212Y-3496776D01*
X10660205Y-3496773D01*
X10436104Y-3403947D01*
X10201785Y-3341161D01*
X9961289Y-3309500D01*
X9961288Y-3309500D01*
X9718712Y-3309500D01*
X9718711Y-3309500D01*
X9478214Y-3341161D01*
X9243895Y-3403947D01*
X9019794Y-3496773D01*
X9019785Y-3496777D01*
X8809706Y-3618067D01*
X8617263Y-3765733D01*
X8617256Y-3765739D01*
X8445739Y-3937256D01*
X8445733Y-3937263D01*
X8298067Y-4129706D01*
X8176777Y-4339785D01*
X8176773Y-4339794D01*
X8083947Y-4563895D01*
X8021161Y-4798214D01*
X7989500Y-5038711D01*
X400500Y-5038711D01*
X400500Y-3013480D01*
X400695Y-3006527D01*
X407864Y-2878872D01*
X999500Y-2878872D01*
X999500Y-3141127D01*
X1019103Y-3290018D01*
X1033730Y-3401116D01*
X1091861Y-3618064D01*
X1101602Y-3654418D01*
X1101605Y-3654428D01*
X1201953Y-3896690D01*
X1201958Y-3896700D01*
X1333075Y-4123803D01*
X1492718Y-4331851D01*
X1492726Y-4331860D01*
X1678140Y-4517274D01*
X1678148Y-4517281D01*
X1886196Y-4676924D01*
X2113299Y-4808041D01*
X2113309Y-4808046D01*
X2355571Y-4908394D01*
X2355581Y-4908398D01*
X2608884Y-4976270D01*
X2868880Y-5010500D01*
X2868887Y-5010500D01*
X3131113Y-5010500D01*
X3131120Y-5010500D01*
X3391116Y-4976270D01*
X3644419Y-4908398D01*
X3886697Y-4808043D01*
X4113803Y-4676924D01*
X4321851Y-4517282D01*
X4321855Y-4517277D01*
X4321860Y-4517274D01*
X4507274Y-4331860D01*
X4507277Y-4331855D01*
X4507282Y-4331851D01*
X4666924Y-4123803D01*
X4798043Y-3896697D01*
X4898398Y-3654419D01*
X4966270Y-3401116D01*
X5000500Y-3141120D01*
X5000500Y-2878880D01*
X4966270Y-2618884D01*
X4898398Y-2365581D01*
X4898394Y-2365571D01*
X4798046Y-2123309D01*
X4798041Y-2123299D01*
X4666924Y-1896196D01*
X4507281Y-1688148D01*
X4507274Y-1688140D01*
X4321860Y-1502726D01*
X4321851Y-1502718D01*
X4113803Y-1343075D01*
X3886700Y-1211958D01*
X3886690Y-1211953D01*
X3644428Y-1111605D01*
X3644421Y-1111603D01*
X3644419Y-1111602D01*
X3391116Y-1043730D01*
X3333339Y-1036123D01*
X3131127Y-1009500D01*
X3131120Y-1009500D01*
X2868880Y-1009500D01*
X2868872Y-1009500D01*
X2637772Y-1039926D01*
X2608884Y-1043730D01*
X2355581Y-1111602D01*
X2355571Y-1111605D01*
X2113309Y-1211953D01*
X2113299Y-1211958D01*
X1886196Y-1343075D01*
X1678148Y-1502718D01*
X1492718Y-1688148D01*
X1333075Y-1896196D01*
X1201958Y-2123299D01*
X1201953Y-2123309D01*
X1101605Y-2365571D01*
X1101602Y-2365581D01*
X1033730Y-2618885D01*
X999500Y-2878872D01*
X407864Y-2878872D01*
X408482Y-2867868D01*
X408482Y-2867867D01*
X416225Y-2729982D01*
X416455Y-2725891D01*
X418009Y-2712092D01*
X464510Y-2438412D01*
X467598Y-2424880D01*
X544450Y-2158119D01*
X549040Y-2145006D01*
X614381Y-1987258D01*
X655268Y-1888545D01*
X661290Y-1876039D01*
X795574Y-1633072D01*
X802969Y-1621304D01*
X963605Y-1394908D01*
X972260Y-1384054D01*
X1157245Y-1177057D01*
X1167057Y-1167245D01*
X1374054Y-982260D01*
X1384908Y-973605D01*
X1611309Y-812965D01*
X1623072Y-805574D01*
X1866039Y-671290D01*
X1878545Y-665268D01*
X2135006Y-559039D01*
X2148119Y-554450D01*
X2414880Y-477598D01*
X2428412Y-474510D01*
X2702092Y-428009D01*
X2715891Y-426455D01*
X2962054Y-412630D01*
X2996529Y-410695D01*
X3003481Y-410500D01*
X3057583Y-410500D01*
X20564398Y-410500D01*
X20631437Y-430185D01*
G37*
G04 #@! TD.AperFunction*
G04 #@! TD*
G04 #@! TA.AperFunction,Conductor*
G04 #@! TO.N,GNDA*
G36*
X29092539Y-32819685D02*
G01*
X29138294Y-32872489D01*
X29149500Y-32924000D01*
X29149500Y-35132745D01*
X29129815Y-35199784D01*
X29113181Y-35220426D01*
X29079521Y-35254085D01*
X29026794Y-35345410D01*
X29026793Y-35345413D01*
X28999500Y-35447273D01*
X28999500Y-35552727D01*
X29026793Y-35654587D01*
X29079520Y-35745913D01*
X29154087Y-35820480D01*
X29245413Y-35873207D01*
X29347273Y-35900500D01*
X29347275Y-35900500D01*
X29452725Y-35900500D01*
X29452727Y-35900500D01*
X29554587Y-35873207D01*
X29645913Y-35820480D01*
X29720480Y-35745913D01*
X29773207Y-35654587D01*
X29800500Y-35552727D01*
X29800500Y-35447273D01*
X29773207Y-35345413D01*
X29720480Y-35254087D01*
X29686819Y-35220426D01*
X29653334Y-35159103D01*
X29650500Y-35132745D01*
X29650500Y-32924000D01*
X29670185Y-32856961D01*
X29722989Y-32811206D01*
X29774500Y-32800000D01*
X32825500Y-32800000D01*
X32892539Y-32819685D01*
X32938294Y-32872489D01*
X32949500Y-32924000D01*
X32949500Y-35184928D01*
X32929815Y-35251967D01*
X32877011Y-35297722D01*
X32807853Y-35307666D01*
X32792951Y-35304580D01*
X32784994Y-35302415D01*
X32759865Y-35299500D01*
X32370143Y-35299500D01*
X32370117Y-35299502D01*
X32345012Y-35302413D01*
X32345008Y-35302415D01*
X32242235Y-35347793D01*
X32162794Y-35427234D01*
X32117415Y-35530006D01*
X32117415Y-35530008D01*
X32114500Y-35555131D01*
X32114500Y-37294856D01*
X32114502Y-37294882D01*
X32117413Y-37319987D01*
X32117415Y-37319991D01*
X32162793Y-37422764D01*
X32162794Y-37422765D01*
X32242235Y-37502206D01*
X32258757Y-37509501D01*
X32265585Y-37512516D01*
X32318962Y-37557601D01*
X32339490Y-37624387D01*
X32339500Y-37625951D01*
X32339500Y-37910142D01*
X32339499Y-37910156D01*
X32339499Y-38009853D01*
X32339500Y-38009858D01*
X32363772Y-38068457D01*
X32373829Y-38092735D01*
X32373830Y-38092736D01*
X32437264Y-38156170D01*
X32437265Y-38156170D01*
X32454705Y-38173610D01*
X32663181Y-38382086D01*
X32696666Y-38443409D01*
X32699500Y-38469767D01*
X32699500Y-38552727D01*
X32726793Y-38654587D01*
X32779520Y-38745913D01*
X32854087Y-38820480D01*
X32945413Y-38873207D01*
X33047273Y-38900500D01*
X33047275Y-38900500D01*
X33152725Y-38900500D01*
X33152727Y-38900500D01*
X33254587Y-38873207D01*
X33345913Y-38820480D01*
X33372819Y-38793574D01*
X33434142Y-38760089D01*
X33503834Y-38765073D01*
X33559767Y-38806945D01*
X33584184Y-38872409D01*
X33584500Y-38881255D01*
X33584500Y-40185087D01*
X33564815Y-40252126D01*
X33520927Y-40290154D01*
X33521713Y-40291301D01*
X33512236Y-40297792D01*
X33432793Y-40377236D01*
X33387415Y-40480006D01*
X33387415Y-40480008D01*
X33384500Y-40505131D01*
X33384500Y-42244856D01*
X33384502Y-42244882D01*
X33387413Y-42269987D01*
X33387415Y-42269991D01*
X33432793Y-42372764D01*
X33432794Y-42372765D01*
X33512235Y-42452206D01*
X33528757Y-42459501D01*
X33535585Y-42462516D01*
X33588962Y-42507601D01*
X33609490Y-42574387D01*
X33609500Y-42575951D01*
X33609500Y-43120232D01*
X33589815Y-43187271D01*
X33573181Y-43207913D01*
X33058830Y-43722263D01*
X33058830Y-43722265D01*
X33024499Y-43805144D01*
X33024499Y-43909288D01*
X33024500Y-43909297D01*
X33024500Y-44717867D01*
X33004815Y-44784906D01*
X32952011Y-44830661D01*
X32882853Y-44840605D01*
X32850414Y-44831302D01*
X32848962Y-44830661D01*
X32784991Y-44802415D01*
X32759865Y-44799500D01*
X32370143Y-44799500D01*
X32370117Y-44799502D01*
X32345012Y-44802413D01*
X32345008Y-44802415D01*
X32242235Y-44847793D01*
X32162794Y-44927234D01*
X32117415Y-45030006D01*
X32117415Y-45030008D01*
X32114500Y-45055131D01*
X32114500Y-46794856D01*
X32114502Y-46794882D01*
X32117413Y-46819987D01*
X32117415Y-46819991D01*
X32162793Y-46922764D01*
X32162794Y-46922765D01*
X32242235Y-47002206D01*
X32258757Y-47009501D01*
X32265585Y-47012516D01*
X32279789Y-47024513D01*
X32296703Y-47032238D01*
X32305927Y-47046590D01*
X32318962Y-47057601D01*
X32324425Y-47075374D01*
X32334477Y-47091016D01*
X32339086Y-47123073D01*
X32339490Y-47124387D01*
X32339500Y-47125951D01*
X32339500Y-47360142D01*
X32339499Y-47360156D01*
X32339499Y-47459853D01*
X32339500Y-47459858D01*
X32363772Y-47518457D01*
X32373829Y-47542735D01*
X32373830Y-47542736D01*
X32437264Y-47606170D01*
X32437265Y-47606170D01*
X32454705Y-47623610D01*
X32713181Y-47882086D01*
X32746666Y-47943409D01*
X32749500Y-47969767D01*
X32749500Y-48052727D01*
X32776793Y-48154587D01*
X32829520Y-48245913D01*
X32904087Y-48320480D01*
X32995413Y-48373207D01*
X33097273Y-48400500D01*
X33097275Y-48400500D01*
X33202725Y-48400500D01*
X33202727Y-48400500D01*
X33304587Y-48373207D01*
X33395913Y-48320480D01*
X33397819Y-48318574D01*
X33399823Y-48317479D01*
X33402363Y-48315531D01*
X33402666Y-48315926D01*
X33459142Y-48285089D01*
X33528834Y-48290073D01*
X33584767Y-48331945D01*
X33609184Y-48397409D01*
X33609500Y-48406255D01*
X33609500Y-49674049D01*
X33589815Y-49741088D01*
X33537011Y-49786843D01*
X33535586Y-49787483D01*
X33512240Y-49797790D01*
X33512232Y-49797796D01*
X33432794Y-49877234D01*
X33387415Y-49980006D01*
X33387415Y-49980008D01*
X33384500Y-50005131D01*
X33384500Y-51744856D01*
X33384502Y-51744882D01*
X33387413Y-51769987D01*
X33387415Y-51769991D01*
X33432793Y-51872764D01*
X33432794Y-51872765D01*
X33512235Y-51952206D01*
X33528757Y-51959501D01*
X33535585Y-51962516D01*
X33588962Y-52007601D01*
X33609490Y-52074387D01*
X33609500Y-52075951D01*
X33609500Y-52620232D01*
X33589815Y-52687271D01*
X33573181Y-52707913D01*
X33008830Y-53272263D01*
X33008830Y-53272265D01*
X32974499Y-53355144D01*
X32974499Y-53459288D01*
X32974500Y-53459297D01*
X32974500Y-54295790D01*
X32954815Y-54362829D01*
X32902011Y-54408584D01*
X32832853Y-54418528D01*
X32800414Y-54409225D01*
X32784991Y-54402415D01*
X32759865Y-54399500D01*
X32370143Y-54399500D01*
X32370117Y-54399502D01*
X32345012Y-54402413D01*
X32345008Y-54402415D01*
X32242235Y-54447793D01*
X32162794Y-54527234D01*
X32117415Y-54630006D01*
X32117415Y-54630008D01*
X32114500Y-54655131D01*
X32114500Y-56394856D01*
X32114502Y-56394882D01*
X32117413Y-56419987D01*
X32117415Y-56419991D01*
X32162793Y-56522764D01*
X32162794Y-56522765D01*
X32242235Y-56602206D01*
X32265583Y-56612515D01*
X32318960Y-56657599D01*
X32339489Y-56724384D01*
X32339499Y-56725950D01*
X32339499Y-56809853D01*
X32339500Y-56809858D01*
X32363772Y-56868457D01*
X32373829Y-56892735D01*
X32373830Y-56892736D01*
X32437264Y-56956170D01*
X32437265Y-56956170D01*
X32454705Y-56973610D01*
X32763181Y-57282086D01*
X32796666Y-57343409D01*
X32799500Y-57369767D01*
X32799500Y-57452727D01*
X32826793Y-57554587D01*
X32879520Y-57645913D01*
X32954087Y-57720480D01*
X33045413Y-57773207D01*
X33147273Y-57800500D01*
X33147275Y-57800500D01*
X33252725Y-57800500D01*
X33252727Y-57800500D01*
X33354587Y-57773207D01*
X33423501Y-57733419D01*
X33491399Y-57716946D01*
X33557426Y-57739798D01*
X33600617Y-57794719D01*
X33609500Y-57840806D01*
X33609500Y-59274049D01*
X33589815Y-59341088D01*
X33537011Y-59386843D01*
X33535586Y-59387483D01*
X33512240Y-59397790D01*
X33512232Y-59397796D01*
X33432794Y-59477234D01*
X33387415Y-59580006D01*
X33387415Y-59580008D01*
X33384500Y-59605131D01*
X33384500Y-61344856D01*
X33384502Y-61344882D01*
X33387413Y-61369987D01*
X33387415Y-61369991D01*
X33432793Y-61472764D01*
X33432794Y-61472765D01*
X33512235Y-61552206D01*
X33528757Y-61559501D01*
X33535585Y-61562516D01*
X33588962Y-61607601D01*
X33609490Y-61674387D01*
X33609500Y-61675951D01*
X33609500Y-62095232D01*
X33589815Y-62162271D01*
X33573181Y-62182913D01*
X33008830Y-62747263D01*
X33008830Y-62747265D01*
X32974499Y-62830144D01*
X32974499Y-62934288D01*
X32974500Y-62934297D01*
X32974500Y-63695790D01*
X32954815Y-63762829D01*
X32902011Y-63808584D01*
X32832853Y-63818528D01*
X32800414Y-63809225D01*
X32784991Y-63802415D01*
X32759865Y-63799500D01*
X32370143Y-63799500D01*
X32370117Y-63799502D01*
X32345012Y-63802413D01*
X32345008Y-63802415D01*
X32242235Y-63847793D01*
X32162794Y-63927234D01*
X32117415Y-64030006D01*
X32117415Y-64030008D01*
X32114500Y-64055131D01*
X32114500Y-65794856D01*
X32114502Y-65794882D01*
X32117413Y-65819987D01*
X32117415Y-65819991D01*
X32162793Y-65922764D01*
X32162794Y-65922765D01*
X32242235Y-66002206D01*
X32253666Y-66007253D01*
X32265585Y-66012516D01*
X32279789Y-66024513D01*
X32296703Y-66032238D01*
X32305927Y-66046590D01*
X32318962Y-66057601D01*
X32324425Y-66075374D01*
X32334477Y-66091016D01*
X32339086Y-66123073D01*
X32339490Y-66124387D01*
X32339500Y-66125951D01*
X32339500Y-66310142D01*
X32339499Y-66310156D01*
X32339499Y-66409853D01*
X32339500Y-66409858D01*
X32363772Y-66468457D01*
X32373829Y-66492735D01*
X32373830Y-66492736D01*
X32437264Y-66556170D01*
X32437265Y-66556170D01*
X32454705Y-66573610D01*
X32763181Y-66882086D01*
X32796666Y-66943409D01*
X32799500Y-66969767D01*
X32799500Y-67052727D01*
X32826793Y-67154587D01*
X32879520Y-67245913D01*
X32954087Y-67320480D01*
X33045413Y-67373207D01*
X33147273Y-67400500D01*
X33147275Y-67400500D01*
X33252725Y-67400500D01*
X33252727Y-67400500D01*
X33354587Y-67373207D01*
X33423501Y-67333419D01*
X33491399Y-67316946D01*
X33557426Y-67339798D01*
X33600617Y-67394719D01*
X33609500Y-67440806D01*
X33609500Y-68674049D01*
X33589815Y-68741088D01*
X33537011Y-68786843D01*
X33535586Y-68787483D01*
X33512240Y-68797790D01*
X33512232Y-68797796D01*
X33432794Y-68877234D01*
X33387415Y-68980006D01*
X33387415Y-68980008D01*
X33384500Y-69005131D01*
X33384500Y-70744856D01*
X33384502Y-70744882D01*
X33387413Y-70769987D01*
X33387415Y-70769991D01*
X33432793Y-70872764D01*
X33432794Y-70872765D01*
X33512235Y-70952206D01*
X33615009Y-70997585D01*
X33640135Y-71000500D01*
X34029864Y-71000499D01*
X34029879Y-71000497D01*
X34029882Y-71000497D01*
X34054987Y-70997586D01*
X34054988Y-70997585D01*
X34054991Y-70997585D01*
X34157765Y-70952206D01*
X34237206Y-70872765D01*
X34282585Y-70769991D01*
X34285500Y-70744865D01*
X34285499Y-69005136D01*
X34285499Y-69005135D01*
X34285499Y-69005131D01*
X34654500Y-69005131D01*
X34654500Y-70744856D01*
X34654502Y-70744882D01*
X34657413Y-70769987D01*
X34657415Y-70769991D01*
X34702793Y-70872764D01*
X34702794Y-70872765D01*
X34782235Y-70952206D01*
X34885009Y-70997585D01*
X34910135Y-71000500D01*
X35299864Y-71000499D01*
X35299879Y-71000497D01*
X35299882Y-71000497D01*
X35324987Y-70997586D01*
X35324988Y-70997585D01*
X35324991Y-70997585D01*
X35427765Y-70952206D01*
X35507206Y-70872765D01*
X35552585Y-70769991D01*
X35555500Y-70744865D01*
X35555499Y-69005136D01*
X35555497Y-69005117D01*
X35552586Y-68980012D01*
X35552585Y-68980011D01*
X35552585Y-68980009D01*
X35514292Y-68893284D01*
X35505221Y-68824008D01*
X35520341Y-68781199D01*
X35534615Y-68756477D01*
X35582299Y-68673886D01*
X35613000Y-68559309D01*
X35613000Y-68440691D01*
X35582299Y-68326114D01*
X35522989Y-68223387D01*
X35439113Y-68139511D01*
X35336386Y-68080201D01*
X35221809Y-68049500D01*
X35103191Y-68049500D01*
X34988614Y-68080201D01*
X34988612Y-68080201D01*
X34988612Y-68080202D01*
X34885887Y-68139511D01*
X34885884Y-68139513D01*
X34802013Y-68223384D01*
X34802011Y-68223387D01*
X34742701Y-68326114D01*
X34712000Y-68440691D01*
X34712000Y-68559309D01*
X34717076Y-68578251D01*
X34742702Y-68673889D01*
X34754950Y-68695103D01*
X34771423Y-68763003D01*
X34748570Y-68829030D01*
X34735245Y-68844783D01*
X34702794Y-68877233D01*
X34702794Y-68877234D01*
X34657415Y-68980006D01*
X34657415Y-68980008D01*
X34654500Y-69005131D01*
X34285499Y-69005131D01*
X34285499Y-69005130D01*
X34282586Y-68980012D01*
X34282585Y-68980010D01*
X34282585Y-68980009D01*
X34237206Y-68877235D01*
X34157765Y-68797794D01*
X34157763Y-68797793D01*
X34157759Y-68797790D01*
X34134414Y-68787483D01*
X34081037Y-68742397D01*
X34060510Y-68675611D01*
X34060500Y-68674049D01*
X34060500Y-66605772D01*
X34060500Y-66579857D01*
X34060501Y-66579855D01*
X34060501Y-66490146D01*
X34026170Y-66407265D01*
X34026170Y-66407264D01*
X33962736Y-66343830D01*
X33955671Y-66336765D01*
X33955664Y-66336759D01*
X33881085Y-66262180D01*
X33847600Y-66200857D01*
X33852584Y-66131165D01*
X33894456Y-66075232D01*
X33959920Y-66050815D01*
X33968766Y-66050499D01*
X34029856Y-66050499D01*
X34029864Y-66050499D01*
X34029879Y-66050497D01*
X34029882Y-66050497D01*
X34054987Y-66047586D01*
X34054988Y-66047585D01*
X34054991Y-66047585D01*
X34157765Y-66002206D01*
X34237206Y-65922765D01*
X34282585Y-65819991D01*
X34285500Y-65794865D01*
X34285500Y-65781479D01*
X34555001Y-65781479D01*
X34569835Y-65875149D01*
X34569837Y-65875155D01*
X34627356Y-65988041D01*
X34627363Y-65988050D01*
X34716949Y-66077636D01*
X34716953Y-66077639D01*
X34829855Y-66135166D01*
X34923514Y-66149999D01*
X35230000Y-66149999D01*
X35286479Y-66149999D01*
X35380149Y-66135164D01*
X35380155Y-66135162D01*
X35493041Y-66077643D01*
X35493050Y-66077636D01*
X35582636Y-65988050D01*
X35582639Y-65988046D01*
X35640166Y-65875144D01*
X35655000Y-65781486D01*
X35655000Y-65050000D01*
X35230000Y-65050000D01*
X35230000Y-66149999D01*
X34923514Y-66149999D01*
X34979999Y-66149998D01*
X34980000Y-66149998D01*
X34980000Y-65050000D01*
X34555001Y-65050000D01*
X34555001Y-65781479D01*
X34285500Y-65781479D01*
X34285499Y-64800000D01*
X34285499Y-64068513D01*
X34555000Y-64068513D01*
X34555000Y-64800000D01*
X34980000Y-64800000D01*
X35230000Y-64800000D01*
X35654999Y-64800000D01*
X35654999Y-64068520D01*
X35640164Y-63974850D01*
X35640162Y-63974844D01*
X35582643Y-63861958D01*
X35582636Y-63861949D01*
X35493050Y-63772363D01*
X35493046Y-63772360D01*
X35380144Y-63714833D01*
X35286486Y-63700000D01*
X35230000Y-63700000D01*
X35230000Y-64800000D01*
X34980000Y-64800000D01*
X34980000Y-63700000D01*
X34979999Y-63699999D01*
X34923521Y-63700000D01*
X34829849Y-63714835D01*
X34829844Y-63714837D01*
X34716958Y-63772356D01*
X34716949Y-63772363D01*
X34627363Y-63861949D01*
X34627360Y-63861953D01*
X34569833Y-63974855D01*
X34555000Y-64068513D01*
X34285499Y-64068513D01*
X34285499Y-64063647D01*
X34285499Y-64055143D01*
X34285499Y-64055136D01*
X34285497Y-64055117D01*
X34282586Y-64030012D01*
X34282585Y-64030010D01*
X34282585Y-64030009D01*
X34237206Y-63927235D01*
X34157765Y-63847794D01*
X34157763Y-63847793D01*
X34157759Y-63847790D01*
X34134414Y-63837483D01*
X34081037Y-63792397D01*
X34060510Y-63725611D01*
X34060500Y-63724049D01*
X34060500Y-63259767D01*
X34080185Y-63192728D01*
X34096819Y-63172086D01*
X34349050Y-62919855D01*
X34641170Y-62627736D01*
X34641170Y-62627734D01*
X34641172Y-62627733D01*
X34658335Y-62586295D01*
X34675500Y-62544855D01*
X34675500Y-62455146D01*
X34675500Y-61695378D01*
X34695185Y-61628339D01*
X34747989Y-61582584D01*
X34817147Y-61572640D01*
X34849580Y-61581941D01*
X34885009Y-61597585D01*
X34910135Y-61600500D01*
X35299864Y-61600499D01*
X35299879Y-61600497D01*
X35299882Y-61600497D01*
X35324987Y-61597586D01*
X35324988Y-61597585D01*
X35324991Y-61597585D01*
X35427765Y-61552206D01*
X35507206Y-61472765D01*
X35552585Y-61369991D01*
X35555500Y-61344865D01*
X35555499Y-59605136D01*
X35555489Y-59605048D01*
X35552586Y-59580012D01*
X35552585Y-59580011D01*
X35552585Y-59580009D01*
X35518033Y-59501757D01*
X35508962Y-59432482D01*
X35524080Y-59389677D01*
X35573207Y-59304587D01*
X35600500Y-59202727D01*
X35600500Y-59097273D01*
X35573207Y-58995413D01*
X35520480Y-58904087D01*
X35445913Y-58829520D01*
X35354587Y-58776793D01*
X35252727Y-58749500D01*
X35147273Y-58749500D01*
X35045413Y-58776793D01*
X35045410Y-58776794D01*
X34954085Y-58829521D01*
X34887181Y-58896426D01*
X34825858Y-58929911D01*
X34756166Y-58924927D01*
X34700233Y-58883055D01*
X34675816Y-58817591D01*
X34675500Y-58808745D01*
X34675500Y-57155146D01*
X34675498Y-57155141D01*
X34641172Y-57072266D01*
X34250850Y-56681944D01*
X34217365Y-56620621D01*
X34222349Y-56550929D01*
X34236237Y-56524178D01*
X34237202Y-56522768D01*
X34237206Y-56522765D01*
X34244500Y-56506247D01*
X34281461Y-56422537D01*
X34282585Y-56419991D01*
X34285500Y-56394865D01*
X34285500Y-56381479D01*
X34555001Y-56381479D01*
X34569835Y-56475149D01*
X34569837Y-56475155D01*
X34627356Y-56588041D01*
X34627363Y-56588050D01*
X34716949Y-56677636D01*
X34716953Y-56677639D01*
X34829855Y-56735166D01*
X34923514Y-56749999D01*
X35230000Y-56749999D01*
X35286479Y-56749999D01*
X35380149Y-56735164D01*
X35380155Y-56735162D01*
X35493041Y-56677643D01*
X35493050Y-56677636D01*
X35582636Y-56588050D01*
X35582639Y-56588046D01*
X35640166Y-56475144D01*
X35655000Y-56381486D01*
X35655000Y-55650000D01*
X35230000Y-55650000D01*
X35230000Y-56749999D01*
X34923514Y-56749999D01*
X34979999Y-56749998D01*
X34980000Y-56749998D01*
X34980000Y-55650000D01*
X34555001Y-55650000D01*
X34555001Y-56381479D01*
X34285500Y-56381479D01*
X34285499Y-55400000D01*
X34285499Y-54668513D01*
X34555000Y-54668513D01*
X34555000Y-55400000D01*
X34980000Y-55400000D01*
X35230000Y-55400000D01*
X35654999Y-55400000D01*
X35654999Y-54668520D01*
X35640164Y-54574850D01*
X35640162Y-54574844D01*
X35582643Y-54461958D01*
X35582636Y-54461949D01*
X35493050Y-54372363D01*
X35493046Y-54372360D01*
X35380144Y-54314833D01*
X35286486Y-54300000D01*
X35230000Y-54300000D01*
X35230000Y-55400000D01*
X34980000Y-55400000D01*
X34980000Y-54300000D01*
X34979999Y-54299999D01*
X34923521Y-54300000D01*
X34829849Y-54314835D01*
X34829844Y-54314837D01*
X34716958Y-54372356D01*
X34716949Y-54372363D01*
X34627363Y-54461949D01*
X34627360Y-54461953D01*
X34569833Y-54574855D01*
X34555000Y-54668513D01*
X34285499Y-54668513D01*
X34285499Y-54663647D01*
X34285499Y-54655143D01*
X34285499Y-54655136D01*
X34285497Y-54655117D01*
X34282586Y-54630012D01*
X34282585Y-54630010D01*
X34282585Y-54630009D01*
X34237206Y-54527235D01*
X34157765Y-54447794D01*
X34157763Y-54447793D01*
X34157759Y-54447790D01*
X34134414Y-54437483D01*
X34081037Y-54392397D01*
X34060510Y-54325611D01*
X34060500Y-54324049D01*
X34060500Y-53709766D01*
X34080185Y-53642727D01*
X34096815Y-53622089D01*
X34527734Y-53191170D01*
X34527736Y-53191170D01*
X34591170Y-53127736D01*
X34605390Y-53093405D01*
X34625501Y-53044854D01*
X34625501Y-52955145D01*
X34625501Y-52945156D01*
X34625500Y-52945142D01*
X34625500Y-52073301D01*
X34645185Y-52006262D01*
X34697989Y-51960507D01*
X34767147Y-51950563D01*
X34799582Y-51959865D01*
X34885009Y-51997585D01*
X34910135Y-52000500D01*
X35299864Y-52000499D01*
X35299879Y-52000497D01*
X35299882Y-52000497D01*
X35324987Y-51997586D01*
X35324988Y-51997585D01*
X35324991Y-51997585D01*
X35427765Y-51952206D01*
X35507206Y-51872765D01*
X35552585Y-51769991D01*
X35555500Y-51744865D01*
X35555499Y-50005136D01*
X35554430Y-49995914D01*
X35552586Y-49980012D01*
X35552585Y-49980011D01*
X35552585Y-49980009D01*
X35518033Y-49901757D01*
X35508962Y-49832482D01*
X35524080Y-49789677D01*
X35573207Y-49704587D01*
X35600500Y-49602727D01*
X35600500Y-49497273D01*
X35573207Y-49395413D01*
X35520480Y-49304087D01*
X35445913Y-49229520D01*
X35354587Y-49176793D01*
X35252727Y-49149500D01*
X35147273Y-49149500D01*
X35045413Y-49176793D01*
X35045410Y-49176794D01*
X34954085Y-49229521D01*
X34879522Y-49304084D01*
X34879520Y-49304086D01*
X34879520Y-49304087D01*
X34856885Y-49343291D01*
X34806320Y-49391505D01*
X34737712Y-49404727D01*
X34672848Y-49378759D01*
X34632320Y-49321845D01*
X34625500Y-49281289D01*
X34625500Y-47670772D01*
X34625500Y-47644857D01*
X34625501Y-47644855D01*
X34625501Y-47555146D01*
X34591170Y-47472265D01*
X34591170Y-47472264D01*
X34527736Y-47408830D01*
X34520671Y-47401765D01*
X34520664Y-47401759D01*
X34227119Y-47108214D01*
X34193634Y-47046891D01*
X34198618Y-46977199D01*
X34227119Y-46932852D01*
X34229438Y-46930533D01*
X34237206Y-46922765D01*
X34282585Y-46819991D01*
X34285500Y-46794865D01*
X34285500Y-46781479D01*
X34555001Y-46781479D01*
X34569835Y-46875149D01*
X34569837Y-46875155D01*
X34627356Y-46988041D01*
X34627363Y-46988050D01*
X34716949Y-47077636D01*
X34716953Y-47077639D01*
X34829855Y-47135166D01*
X34923514Y-47149999D01*
X35230000Y-47149999D01*
X35286479Y-47149999D01*
X35380149Y-47135164D01*
X35380155Y-47135162D01*
X35493041Y-47077643D01*
X35493050Y-47077636D01*
X35582636Y-46988050D01*
X35582639Y-46988046D01*
X35640166Y-46875144D01*
X35655000Y-46781486D01*
X35655000Y-46050000D01*
X35230000Y-46050000D01*
X35230000Y-47149999D01*
X34923514Y-47149999D01*
X34979999Y-47149998D01*
X34980000Y-47149998D01*
X34980000Y-46050000D01*
X34555001Y-46050000D01*
X34555001Y-46781479D01*
X34285500Y-46781479D01*
X34285499Y-45800000D01*
X34285499Y-45068513D01*
X34555000Y-45068513D01*
X34555000Y-45800000D01*
X34980000Y-45800000D01*
X35230000Y-45800000D01*
X35654999Y-45800000D01*
X35654999Y-45068520D01*
X35640164Y-44974850D01*
X35640162Y-44974844D01*
X35582643Y-44861958D01*
X35582636Y-44861949D01*
X35493050Y-44772363D01*
X35493046Y-44772360D01*
X35380144Y-44714833D01*
X35286486Y-44700000D01*
X35230000Y-44700000D01*
X35230000Y-45800000D01*
X34980000Y-45800000D01*
X34980000Y-44700000D01*
X34979999Y-44699999D01*
X34923521Y-44700000D01*
X34829849Y-44714835D01*
X34829844Y-44714837D01*
X34716958Y-44772356D01*
X34716949Y-44772363D01*
X34627363Y-44861949D01*
X34627360Y-44861953D01*
X34569833Y-44974855D01*
X34555000Y-45068513D01*
X34285499Y-45068513D01*
X34285499Y-45063647D01*
X34285499Y-45055143D01*
X34285499Y-45055136D01*
X34285497Y-45055117D01*
X34282586Y-45030012D01*
X34282585Y-45030010D01*
X34282585Y-45030009D01*
X34237206Y-44927235D01*
X34157765Y-44847794D01*
X34157763Y-44847793D01*
X34157759Y-44847790D01*
X34134414Y-44837483D01*
X34081037Y-44792397D01*
X34060510Y-44725611D01*
X34060500Y-44724049D01*
X34060500Y-44109767D01*
X34080185Y-44042728D01*
X34096819Y-44022086D01*
X34345076Y-43773829D01*
X34641170Y-43477736D01*
X34641170Y-43477734D01*
X34641172Y-43477733D01*
X34658335Y-43436295D01*
X34675500Y-43394855D01*
X34675500Y-43305146D01*
X34675500Y-42595378D01*
X34695185Y-42528339D01*
X34747989Y-42482584D01*
X34817147Y-42472640D01*
X34849580Y-42481941D01*
X34885009Y-42497585D01*
X34910135Y-42500500D01*
X35299864Y-42500499D01*
X35299879Y-42500497D01*
X35299882Y-42500497D01*
X35324987Y-42497586D01*
X35324988Y-42497585D01*
X35324991Y-42497585D01*
X35427765Y-42452206D01*
X35507206Y-42372765D01*
X35552585Y-42269991D01*
X35555500Y-42244865D01*
X35555499Y-40505136D01*
X35554735Y-40498544D01*
X35552586Y-40480012D01*
X35552585Y-40480011D01*
X35552585Y-40480009D01*
X35518033Y-40401757D01*
X35508962Y-40332482D01*
X35524080Y-40289677D01*
X35573207Y-40204587D01*
X35600500Y-40102727D01*
X35600500Y-39997273D01*
X35573207Y-39895413D01*
X35520480Y-39804087D01*
X35445913Y-39729520D01*
X35354587Y-39676793D01*
X35252727Y-39649500D01*
X35147273Y-39649500D01*
X35045413Y-39676793D01*
X35045410Y-39676794D01*
X34954085Y-39729521D01*
X34887181Y-39796426D01*
X34825858Y-39829911D01*
X34756166Y-39824927D01*
X34700233Y-39783055D01*
X34675816Y-39717591D01*
X34675500Y-39708745D01*
X34675500Y-38105146D01*
X34675498Y-38105141D01*
X34641172Y-38022266D01*
X34227119Y-37608213D01*
X34193634Y-37546890D01*
X34198618Y-37477198D01*
X34227117Y-37432853D01*
X34237206Y-37422765D01*
X34282585Y-37319991D01*
X34285500Y-37294865D01*
X34285500Y-37281479D01*
X34555001Y-37281479D01*
X34569835Y-37375149D01*
X34569837Y-37375155D01*
X34627356Y-37488041D01*
X34627363Y-37488050D01*
X34716949Y-37577636D01*
X34716953Y-37577639D01*
X34829855Y-37635166D01*
X34923514Y-37649999D01*
X35230000Y-37649999D01*
X35286479Y-37649999D01*
X35380149Y-37635164D01*
X35380155Y-37635162D01*
X35493041Y-37577643D01*
X35493050Y-37577636D01*
X35582636Y-37488050D01*
X35582639Y-37488046D01*
X35640166Y-37375144D01*
X35655000Y-37281486D01*
X35655000Y-36550000D01*
X35230000Y-36550000D01*
X35230000Y-37649999D01*
X34923514Y-37649999D01*
X34979999Y-37649998D01*
X34980000Y-37649998D01*
X34980000Y-36550000D01*
X34555001Y-36550000D01*
X34555001Y-37281479D01*
X34285500Y-37281479D01*
X34285499Y-36300000D01*
X34285499Y-35568513D01*
X34555000Y-35568513D01*
X34555000Y-36300000D01*
X34980000Y-36300000D01*
X35230000Y-36300000D01*
X35654999Y-36300000D01*
X35654999Y-35568520D01*
X35640164Y-35474850D01*
X35640162Y-35474844D01*
X35582643Y-35361958D01*
X35582636Y-35361949D01*
X35493050Y-35272363D01*
X35493046Y-35272360D01*
X35380144Y-35214833D01*
X35286486Y-35200000D01*
X35230000Y-35200000D01*
X35230000Y-36300000D01*
X34980000Y-36300000D01*
X34980000Y-35200000D01*
X34979999Y-35199999D01*
X34923521Y-35200000D01*
X34829849Y-35214835D01*
X34829844Y-35214837D01*
X34716958Y-35272356D01*
X34716949Y-35272363D01*
X34627363Y-35361949D01*
X34627360Y-35361953D01*
X34569833Y-35474855D01*
X34555000Y-35568513D01*
X34285499Y-35568513D01*
X34285499Y-35563647D01*
X34285499Y-35555143D01*
X34285499Y-35555136D01*
X34285220Y-35552726D01*
X34282586Y-35530012D01*
X34282585Y-35530010D01*
X34282585Y-35530009D01*
X34237206Y-35427235D01*
X34157765Y-35347794D01*
X34157764Y-35347793D01*
X34157763Y-35347792D01*
X34148287Y-35341301D01*
X34149231Y-35339922D01*
X34106034Y-35303430D01*
X34085510Y-35236642D01*
X34085500Y-35235087D01*
X34085500Y-32924000D01*
X34105185Y-32856961D01*
X34157989Y-32811206D01*
X34209500Y-32800000D01*
X35486138Y-32800000D01*
X35553177Y-32819685D01*
X35573819Y-32836319D01*
X36963681Y-34226181D01*
X36997166Y-34287504D01*
X37000000Y-34313862D01*
X37000000Y-70792388D01*
X36980315Y-70859427D01*
X36963681Y-70880069D01*
X35580069Y-72263681D01*
X35518746Y-72297166D01*
X35492388Y-72300000D01*
X29825898Y-72300000D01*
X29758859Y-72280315D01*
X29738217Y-72263681D01*
X29704057Y-72229521D01*
X29704056Y-72229520D01*
X29612730Y-72176793D01*
X29510870Y-72149500D01*
X29405416Y-72149500D01*
X29303556Y-72176793D01*
X29303553Y-72176794D01*
X29212228Y-72229521D01*
X29178569Y-72263181D01*
X29117246Y-72296666D01*
X29090888Y-72299500D01*
X27025862Y-72299500D01*
X26958823Y-72279815D01*
X26938181Y-72263181D01*
X25536319Y-70861319D01*
X25502834Y-70799996D01*
X25500000Y-70773638D01*
X25500000Y-69947273D01*
X26649500Y-69947273D01*
X26649500Y-70052727D01*
X26676793Y-70154587D01*
X26729520Y-70245913D01*
X26804087Y-70320480D01*
X26895413Y-70373207D01*
X26997273Y-70400500D01*
X26997275Y-70400500D01*
X27102725Y-70400500D01*
X27102727Y-70400500D01*
X27204587Y-70373207D01*
X27295913Y-70320480D01*
X27354575Y-70261818D01*
X27415899Y-70228334D01*
X27442256Y-70225500D01*
X28405143Y-70225500D01*
X28405145Y-70225501D01*
X28494855Y-70225501D01*
X28553460Y-70201225D01*
X28577736Y-70191170D01*
X28641170Y-70127736D01*
X28641170Y-70127735D01*
X28658608Y-70110297D01*
X28658609Y-70110294D01*
X29833086Y-68935819D01*
X29894409Y-68902334D01*
X29920767Y-68899500D01*
X30720500Y-68899500D01*
X30787539Y-68919185D01*
X30833294Y-68971989D01*
X30844500Y-69023500D01*
X30844501Y-69925500D01*
X30824817Y-69992539D01*
X30772013Y-70038294D01*
X30720501Y-70049500D01*
X29767255Y-70049500D01*
X29700216Y-70029815D01*
X29679574Y-70013181D01*
X29645914Y-69979521D01*
X29645913Y-69979520D01*
X29554587Y-69926793D01*
X29452727Y-69899500D01*
X29347273Y-69899500D01*
X29245413Y-69926793D01*
X29245410Y-69926794D01*
X29154085Y-69979521D01*
X29079521Y-70054085D01*
X29026794Y-70145410D01*
X29026793Y-70145413D01*
X28999500Y-70247273D01*
X28999500Y-70352727D01*
X29026793Y-70454587D01*
X29079520Y-70545913D01*
X29154087Y-70620480D01*
X29245413Y-70673207D01*
X29347273Y-70700500D01*
X29347275Y-70700500D01*
X29452725Y-70700500D01*
X29452727Y-70700500D01*
X29554587Y-70673207D01*
X29645913Y-70620480D01*
X29679574Y-70586819D01*
X29740897Y-70553334D01*
X29767255Y-70550500D01*
X30720501Y-70550500D01*
X30787540Y-70570185D01*
X30833295Y-70622989D01*
X30844501Y-70674500D01*
X30844501Y-70744856D01*
X30844502Y-70744882D01*
X30847413Y-70769987D01*
X30847415Y-70769991D01*
X30892793Y-70872764D01*
X30892794Y-70872765D01*
X30972235Y-70952206D01*
X31075009Y-70997585D01*
X31100135Y-71000500D01*
X31489864Y-71000499D01*
X31489879Y-71000497D01*
X31489882Y-71000497D01*
X31514987Y-70997586D01*
X31514988Y-70997585D01*
X31514991Y-70997585D01*
X31617765Y-70952206D01*
X31697206Y-70872765D01*
X31742585Y-70769991D01*
X31745500Y-70744865D01*
X31745499Y-69023499D01*
X31748049Y-69014814D01*
X31746761Y-69005853D01*
X31757739Y-68981812D01*
X31765184Y-68956461D01*
X31772024Y-68950533D01*
X31775786Y-68942297D01*
X31798018Y-68928009D01*
X31817987Y-68910706D01*
X31828502Y-68908418D01*
X31834564Y-68904523D01*
X31869499Y-68899500D01*
X31990500Y-68899500D01*
X32057539Y-68919185D01*
X32103294Y-68971989D01*
X32114500Y-69023500D01*
X32114500Y-70744856D01*
X32114502Y-70744882D01*
X32117413Y-70769987D01*
X32117415Y-70769991D01*
X32162793Y-70872764D01*
X32162794Y-70872765D01*
X32242235Y-70952206D01*
X32345009Y-70997585D01*
X32370135Y-71000500D01*
X32759864Y-71000499D01*
X32759879Y-71000497D01*
X32759882Y-71000497D01*
X32784987Y-70997586D01*
X32784988Y-70997585D01*
X32784991Y-70997585D01*
X32887765Y-70952206D01*
X32967206Y-70872765D01*
X33012585Y-70769991D01*
X33015500Y-70744865D01*
X33015499Y-69005136D01*
X33015497Y-69005117D01*
X33012586Y-68980012D01*
X33012585Y-68980010D01*
X33012585Y-68980009D01*
X32967206Y-68877235D01*
X32887765Y-68797794D01*
X32864413Y-68787483D01*
X32784992Y-68752415D01*
X32772803Y-68751001D01*
X32750907Y-68741715D01*
X32727671Y-68736661D01*
X32712875Y-68725585D01*
X32708479Y-68723721D01*
X32699416Y-68715511D01*
X32685667Y-68701763D01*
X32547609Y-68563705D01*
X32530169Y-68546264D01*
X32466735Y-68482830D01*
X32466734Y-68482829D01*
X32442456Y-68472772D01*
X32442456Y-68472771D01*
X32383857Y-68448500D01*
X32383855Y-68448499D01*
X32383854Y-68448499D01*
X32294144Y-68448499D01*
X32279710Y-68448499D01*
X32279702Y-68448500D01*
X29731145Y-68448500D01*
X29731143Y-68448500D01*
X29731141Y-68448501D01*
X29648266Y-68482827D01*
X29648264Y-68482829D01*
X29584829Y-68546265D01*
X28392914Y-69738181D01*
X28331591Y-69771666D01*
X28305233Y-69774500D01*
X27442256Y-69774500D01*
X27375217Y-69754815D01*
X27354575Y-69738182D01*
X27354574Y-69738181D01*
X27295913Y-69679520D01*
X27204587Y-69626793D01*
X27102727Y-69599500D01*
X26997273Y-69599500D01*
X26895413Y-69626793D01*
X26895410Y-69626794D01*
X26804085Y-69679521D01*
X26729521Y-69754085D01*
X26676794Y-69845410D01*
X26676793Y-69845413D01*
X26649500Y-69947273D01*
X25500000Y-69947273D01*
X25500000Y-68651024D01*
X26653251Y-68651024D01*
X26653251Y-68756478D01*
X26680544Y-68858338D01*
X26733271Y-68949664D01*
X26807838Y-69024231D01*
X26899164Y-69076958D01*
X27001024Y-69104251D01*
X27001026Y-69104251D01*
X27106476Y-69104251D01*
X27106478Y-69104251D01*
X27208338Y-69076958D01*
X27262194Y-69045863D01*
X27324194Y-69029251D01*
X28301392Y-69029251D01*
X28301394Y-69029252D01*
X28391104Y-69029252D01*
X28449709Y-69004976D01*
X28473985Y-68994921D01*
X28537419Y-68931487D01*
X28537419Y-68931486D01*
X28554857Y-68914048D01*
X28554859Y-68914045D01*
X31382086Y-66086818D01*
X31443409Y-66053333D01*
X31469767Y-66050499D01*
X31489856Y-66050499D01*
X31489864Y-66050499D01*
X31489879Y-66050497D01*
X31489882Y-66050497D01*
X31514987Y-66047586D01*
X31514988Y-66047585D01*
X31514991Y-66047585D01*
X31617765Y-66002206D01*
X31697206Y-65922765D01*
X31742585Y-65819991D01*
X31745500Y-65794865D01*
X31745499Y-64055136D01*
X31745497Y-64055117D01*
X31742586Y-64030012D01*
X31742585Y-64030010D01*
X31742585Y-64030009D01*
X31697206Y-63927235D01*
X31617765Y-63847794D01*
X31551484Y-63818528D01*
X31514992Y-63802415D01*
X31489865Y-63799500D01*
X31100143Y-63799500D01*
X31100117Y-63799502D01*
X31075012Y-63802413D01*
X31075008Y-63802415D01*
X30972235Y-63847793D01*
X30892794Y-63927234D01*
X30847415Y-64030006D01*
X30847415Y-64030008D01*
X30844500Y-64055131D01*
X30844500Y-65794856D01*
X30844502Y-65794882D01*
X30847413Y-65819987D01*
X30847414Y-65819989D01*
X30863243Y-65855839D01*
X30872314Y-65925118D01*
X30842489Y-65988302D01*
X30837489Y-65993605D01*
X28289163Y-68541932D01*
X28227840Y-68575417D01*
X28201482Y-68578251D01*
X27515343Y-68578251D01*
X27448304Y-68558566D01*
X27407956Y-68516252D01*
X27374231Y-68457838D01*
X27299664Y-68383271D01*
X27208338Y-68330544D01*
X27106478Y-68303251D01*
X27001024Y-68303251D01*
X26899164Y-68330544D01*
X26899161Y-68330545D01*
X26807836Y-68383272D01*
X26733272Y-68457836D01*
X26680545Y-68549161D01*
X26680544Y-68549164D01*
X26653251Y-68651024D01*
X25500000Y-68651024D01*
X25500000Y-60447273D01*
X26699500Y-60447273D01*
X26699500Y-60552727D01*
X26726793Y-60654587D01*
X26779520Y-60745913D01*
X26854087Y-60820480D01*
X26945413Y-60873207D01*
X27047273Y-60900500D01*
X27047275Y-60900500D01*
X27152725Y-60900500D01*
X27152727Y-60900500D01*
X27254587Y-60873207D01*
X27345913Y-60820480D01*
X27404575Y-60761818D01*
X27465899Y-60728334D01*
X27492256Y-60725500D01*
X28355143Y-60725500D01*
X28355145Y-60725501D01*
X28444855Y-60725501D01*
X28506003Y-60700172D01*
X28527736Y-60691170D01*
X28591170Y-60627736D01*
X28591170Y-60627735D01*
X28608608Y-60610297D01*
X28608609Y-60610294D01*
X29683086Y-59535819D01*
X29744409Y-59502334D01*
X29770767Y-59499500D01*
X30720500Y-59499500D01*
X30787539Y-59519185D01*
X30833294Y-59571989D01*
X30844500Y-59623500D01*
X30844501Y-60375500D01*
X30824817Y-60442539D01*
X30772013Y-60488294D01*
X30720501Y-60499500D01*
X29817255Y-60499500D01*
X29750216Y-60479815D01*
X29729574Y-60463181D01*
X29695914Y-60429521D01*
X29695913Y-60429520D01*
X29604587Y-60376793D01*
X29502727Y-60349500D01*
X29397273Y-60349500D01*
X29295413Y-60376793D01*
X29295410Y-60376794D01*
X29204085Y-60429521D01*
X29129521Y-60504085D01*
X29076794Y-60595410D01*
X29076793Y-60595413D01*
X29049500Y-60697273D01*
X29049500Y-60802727D01*
X29076793Y-60904587D01*
X29129520Y-60995913D01*
X29204087Y-61070480D01*
X29295413Y-61123207D01*
X29397273Y-61150500D01*
X29397275Y-61150500D01*
X29502725Y-61150500D01*
X29502727Y-61150500D01*
X29604587Y-61123207D01*
X29695913Y-61070480D01*
X29729574Y-61036819D01*
X29790897Y-61003334D01*
X29817255Y-61000500D01*
X30720501Y-61000500D01*
X30787540Y-61020185D01*
X30833295Y-61072989D01*
X30844501Y-61124500D01*
X30844501Y-61344856D01*
X30844502Y-61344882D01*
X30847413Y-61369987D01*
X30847415Y-61369991D01*
X30892793Y-61472764D01*
X30892794Y-61472765D01*
X30972235Y-61552206D01*
X31075009Y-61597585D01*
X31100135Y-61600500D01*
X31489864Y-61600499D01*
X31489879Y-61600497D01*
X31489882Y-61600497D01*
X31514987Y-61597586D01*
X31514988Y-61597585D01*
X31514991Y-61597585D01*
X31617765Y-61552206D01*
X31697206Y-61472765D01*
X31742585Y-61369991D01*
X31745500Y-61344865D01*
X31745499Y-59623499D01*
X31748049Y-59614814D01*
X31746761Y-59605853D01*
X31757739Y-59581812D01*
X31765184Y-59556461D01*
X31772024Y-59550533D01*
X31775786Y-59542297D01*
X31798018Y-59528009D01*
X31817987Y-59510706D01*
X31828502Y-59508418D01*
X31834564Y-59504523D01*
X31869499Y-59499500D01*
X31990500Y-59499500D01*
X32057539Y-59519185D01*
X32103294Y-59571989D01*
X32114500Y-59623500D01*
X32114500Y-61344856D01*
X32114502Y-61344882D01*
X32117413Y-61369987D01*
X32117415Y-61369991D01*
X32162793Y-61472764D01*
X32162794Y-61472765D01*
X32242235Y-61552206D01*
X32345009Y-61597585D01*
X32370135Y-61600500D01*
X32759864Y-61600499D01*
X32759879Y-61600497D01*
X32759882Y-61600497D01*
X32784987Y-61597586D01*
X32784988Y-61597585D01*
X32784991Y-61597585D01*
X32887765Y-61552206D01*
X32967206Y-61472765D01*
X33012585Y-61369991D01*
X33015500Y-61344865D01*
X33015499Y-59605136D01*
X33015489Y-59605048D01*
X33012586Y-59580012D01*
X33012585Y-59580010D01*
X33012585Y-59580009D01*
X32967206Y-59477235D01*
X32887765Y-59397794D01*
X32883505Y-59395913D01*
X32784992Y-59352415D01*
X32772803Y-59351001D01*
X32750907Y-59341715D01*
X32727671Y-59336661D01*
X32712875Y-59325585D01*
X32708479Y-59323721D01*
X32699416Y-59315511D01*
X32685667Y-59301763D01*
X32547609Y-59163705D01*
X32530169Y-59146264D01*
X32466735Y-59082830D01*
X32466734Y-59082829D01*
X32442456Y-59072772D01*
X32442456Y-59072771D01*
X32383857Y-59048500D01*
X32383855Y-59048499D01*
X32383854Y-59048499D01*
X32294144Y-59048499D01*
X32279710Y-59048499D01*
X32279702Y-59048500D01*
X29670857Y-59048500D01*
X29670855Y-59048499D01*
X29581146Y-59048499D01*
X29535844Y-59067264D01*
X29521427Y-59073235D01*
X29521424Y-59073236D01*
X29498264Y-59082829D01*
X29434829Y-59146265D01*
X28342914Y-60238181D01*
X28281591Y-60271666D01*
X28255233Y-60274500D01*
X27492256Y-60274500D01*
X27425217Y-60254815D01*
X27404575Y-60238182D01*
X27404574Y-60238181D01*
X27345913Y-60179520D01*
X27254587Y-60126793D01*
X27152727Y-60099500D01*
X27047273Y-60099500D01*
X26945413Y-60126793D01*
X26945410Y-60126794D01*
X26854085Y-60179521D01*
X26779521Y-60254085D01*
X26726794Y-60345410D01*
X26726793Y-60345413D01*
X26699500Y-60447273D01*
X25500000Y-60447273D01*
X25500000Y-59179116D01*
X26681343Y-59179116D01*
X26681343Y-59284570D01*
X26708636Y-59386430D01*
X26761363Y-59477756D01*
X26835930Y-59552323D01*
X26927256Y-59605050D01*
X27029116Y-59632343D01*
X27029118Y-59632343D01*
X27134568Y-59632343D01*
X27134570Y-59632343D01*
X27236430Y-59605050D01*
X27327756Y-59552323D01*
X27360894Y-59519185D01*
X27377012Y-59503068D01*
X27438335Y-59469584D01*
X27464692Y-59466750D01*
X28413893Y-59466750D01*
X28413895Y-59466751D01*
X28503605Y-59466751D01*
X28562210Y-59442475D01*
X28586486Y-59432420D01*
X28649920Y-59368986D01*
X28649920Y-59368985D01*
X28667358Y-59351547D01*
X28667360Y-59351544D01*
X31332086Y-56686818D01*
X31393409Y-56653333D01*
X31419767Y-56650499D01*
X31489856Y-56650499D01*
X31489864Y-56650499D01*
X31489879Y-56650497D01*
X31489882Y-56650497D01*
X31514987Y-56647586D01*
X31514988Y-56647585D01*
X31514991Y-56647585D01*
X31617765Y-56602206D01*
X31697206Y-56522765D01*
X31742585Y-56419991D01*
X31745500Y-56394865D01*
X31745499Y-54655136D01*
X31745497Y-54655117D01*
X31742586Y-54630012D01*
X31742585Y-54630010D01*
X31742585Y-54630009D01*
X31697206Y-54527235D01*
X31617765Y-54447794D01*
X31551484Y-54418528D01*
X31514992Y-54402415D01*
X31489865Y-54399500D01*
X31100143Y-54399500D01*
X31100117Y-54399502D01*
X31075012Y-54402413D01*
X31075008Y-54402415D01*
X30972235Y-54447793D01*
X30892794Y-54527234D01*
X30847415Y-54630006D01*
X30847415Y-54630008D01*
X30844500Y-54655131D01*
X30844500Y-56394856D01*
X30844502Y-56394882D01*
X30847413Y-56419986D01*
X30847415Y-56419993D01*
X30847926Y-56421149D01*
X30848107Y-56422537D01*
X30849864Y-56428993D01*
X30848984Y-56429232D01*
X30856999Y-56490428D01*
X30827177Y-56553613D01*
X30822174Y-56558919D01*
X28401664Y-58979431D01*
X28340341Y-59012916D01*
X28313983Y-59015750D01*
X27483506Y-59015750D01*
X27416467Y-58996065D01*
X27395825Y-58979432D01*
X27395824Y-58979431D01*
X27327756Y-58911363D01*
X27236430Y-58858636D01*
X27134570Y-58831343D01*
X27029116Y-58831343D01*
X26927256Y-58858636D01*
X26927253Y-58858637D01*
X26835928Y-58911364D01*
X26761364Y-58985928D01*
X26708637Y-59077253D01*
X26708636Y-59077256D01*
X26681343Y-59179116D01*
X25500000Y-59179116D01*
X25500000Y-50934773D01*
X26662000Y-50934773D01*
X26662000Y-51040227D01*
X26689293Y-51142087D01*
X26742020Y-51233413D01*
X26816587Y-51307980D01*
X26907913Y-51360707D01*
X27009773Y-51388000D01*
X27009775Y-51388000D01*
X27115225Y-51388000D01*
X27115227Y-51388000D01*
X27217087Y-51360707D01*
X27308413Y-51307980D01*
X27379574Y-51236819D01*
X27440897Y-51203334D01*
X27467255Y-51200500D01*
X28380143Y-51200500D01*
X28380145Y-51200501D01*
X28469855Y-51200501D01*
X28528460Y-51176225D01*
X28552736Y-51166170D01*
X28616170Y-51102736D01*
X28616170Y-51102735D01*
X28633608Y-51085297D01*
X28633609Y-51085294D01*
X29783086Y-49935819D01*
X29844409Y-49902334D01*
X29870767Y-49899500D01*
X30720500Y-49899500D01*
X30787539Y-49919185D01*
X30833294Y-49971989D01*
X30844500Y-50023500D01*
X30844501Y-50875500D01*
X30824817Y-50942539D01*
X30772013Y-50988294D01*
X30720501Y-50999500D01*
X29817255Y-50999500D01*
X29750216Y-50979815D01*
X29729574Y-50963181D01*
X29695914Y-50929521D01*
X29695913Y-50929520D01*
X29604587Y-50876793D01*
X29502727Y-50849500D01*
X29397273Y-50849500D01*
X29295413Y-50876793D01*
X29295410Y-50876794D01*
X29204085Y-50929521D01*
X29129521Y-51004085D01*
X29076794Y-51095410D01*
X29076793Y-51095413D01*
X29049500Y-51197273D01*
X29049500Y-51302727D01*
X29076793Y-51404587D01*
X29129520Y-51495913D01*
X29204087Y-51570480D01*
X29295413Y-51623207D01*
X29397273Y-51650500D01*
X29397275Y-51650500D01*
X29502725Y-51650500D01*
X29502727Y-51650500D01*
X29604587Y-51623207D01*
X29695913Y-51570480D01*
X29729574Y-51536819D01*
X29790897Y-51503334D01*
X29817255Y-51500500D01*
X30720501Y-51500500D01*
X30787540Y-51520185D01*
X30833295Y-51572989D01*
X30844501Y-51624500D01*
X30844501Y-51744856D01*
X30844502Y-51744882D01*
X30847413Y-51769987D01*
X30847415Y-51769991D01*
X30892793Y-51872764D01*
X30892794Y-51872765D01*
X30972235Y-51952206D01*
X31075009Y-51997585D01*
X31100135Y-52000500D01*
X31489864Y-52000499D01*
X31489879Y-52000497D01*
X31489882Y-52000497D01*
X31514987Y-51997586D01*
X31514988Y-51997585D01*
X31514991Y-51997585D01*
X31617765Y-51952206D01*
X31697206Y-51872765D01*
X31742585Y-51769991D01*
X31745500Y-51744865D01*
X31745499Y-50023499D01*
X31748049Y-50014814D01*
X31746761Y-50005853D01*
X31757739Y-49981812D01*
X31765184Y-49956461D01*
X31772024Y-49950533D01*
X31775786Y-49942297D01*
X31798018Y-49928009D01*
X31817987Y-49910706D01*
X31828502Y-49908418D01*
X31834564Y-49904523D01*
X31869499Y-49899500D01*
X31990500Y-49899500D01*
X32057539Y-49919185D01*
X32103294Y-49971989D01*
X32114500Y-50023500D01*
X32114500Y-51744856D01*
X32114502Y-51744882D01*
X32117413Y-51769987D01*
X32117415Y-51769991D01*
X32162793Y-51872764D01*
X32162794Y-51872765D01*
X32242235Y-51952206D01*
X32345009Y-51997585D01*
X32370135Y-52000500D01*
X32759864Y-52000499D01*
X32759879Y-52000497D01*
X32759882Y-52000497D01*
X32784987Y-51997586D01*
X32784988Y-51997585D01*
X32784991Y-51997585D01*
X32887765Y-51952206D01*
X32967206Y-51872765D01*
X33012585Y-51769991D01*
X33015500Y-51744865D01*
X33015499Y-50005136D01*
X33014430Y-49995914D01*
X33012586Y-49980012D01*
X33012585Y-49980010D01*
X33012585Y-49980009D01*
X32967206Y-49877235D01*
X32887765Y-49797794D01*
X32883505Y-49795913D01*
X32784992Y-49752415D01*
X32772803Y-49751001D01*
X32750907Y-49741715D01*
X32727671Y-49736661D01*
X32712875Y-49725585D01*
X32708479Y-49723721D01*
X32699416Y-49715511D01*
X32685667Y-49701763D01*
X32547609Y-49563705D01*
X32530169Y-49546264D01*
X32466735Y-49482830D01*
X32466734Y-49482829D01*
X32442456Y-49472772D01*
X32442456Y-49472771D01*
X32383857Y-49448500D01*
X32383855Y-49448499D01*
X32383854Y-49448499D01*
X32294144Y-49448499D01*
X32279710Y-49448499D01*
X32279702Y-49448500D01*
X29785297Y-49448500D01*
X29785289Y-49448499D01*
X29770855Y-49448499D01*
X29681145Y-49448499D01*
X29681143Y-49448499D01*
X29646813Y-49462719D01*
X29622539Y-49472774D01*
X29622537Y-49472774D01*
X29598264Y-49482829D01*
X29534829Y-49546265D01*
X28367914Y-50713181D01*
X28306591Y-50746666D01*
X28280233Y-50749500D01*
X27442255Y-50749500D01*
X27375216Y-50729815D01*
X27354574Y-50713181D01*
X27308414Y-50667021D01*
X27308413Y-50667020D01*
X27217087Y-50614293D01*
X27115227Y-50587000D01*
X27009773Y-50587000D01*
X26907913Y-50614293D01*
X26907910Y-50614294D01*
X26816585Y-50667021D01*
X26742021Y-50741585D01*
X26689294Y-50832910D01*
X26689293Y-50832913D01*
X26662000Y-50934773D01*
X25500000Y-50934773D01*
X25500000Y-49697273D01*
X26649500Y-49697273D01*
X26649500Y-49802727D01*
X26676793Y-49904587D01*
X26729520Y-49995913D01*
X26804087Y-50070480D01*
X26895413Y-50123207D01*
X26997273Y-50150500D01*
X26997275Y-50150500D01*
X27102725Y-50150500D01*
X27102727Y-50150500D01*
X27204587Y-50123207D01*
X27295913Y-50070480D01*
X27370480Y-49995913D01*
X27370480Y-49995912D01*
X27376227Y-49990166D01*
X27377911Y-49991850D01*
X27424523Y-49957813D01*
X27466476Y-49950500D01*
X28380143Y-49950500D01*
X28380145Y-49950501D01*
X28469855Y-49950501D01*
X28535747Y-49923207D01*
X28552736Y-49916170D01*
X28616170Y-49852736D01*
X28616170Y-49852735D01*
X28633608Y-49835297D01*
X28633610Y-49835294D01*
X31382086Y-47086818D01*
X31443409Y-47053333D01*
X31469767Y-47050499D01*
X31489856Y-47050499D01*
X31489864Y-47050499D01*
X31489879Y-47050497D01*
X31489882Y-47050497D01*
X31514987Y-47047586D01*
X31514988Y-47047585D01*
X31514991Y-47047585D01*
X31617765Y-47002206D01*
X31697206Y-46922765D01*
X31742585Y-46819991D01*
X31745500Y-46794865D01*
X31745499Y-45055136D01*
X31745497Y-45055117D01*
X31742586Y-45030012D01*
X31742585Y-45030010D01*
X31742585Y-45030009D01*
X31697206Y-44927235D01*
X31617765Y-44847794D01*
X31617756Y-44847790D01*
X31514992Y-44802415D01*
X31489865Y-44799500D01*
X31100143Y-44799500D01*
X31100117Y-44799502D01*
X31075012Y-44802413D01*
X31075008Y-44802415D01*
X30972235Y-44847793D01*
X30892794Y-44927234D01*
X30847415Y-45030006D01*
X30847415Y-45030008D01*
X30844500Y-45055131D01*
X30844500Y-46794856D01*
X30844502Y-46794882D01*
X30847413Y-46819987D01*
X30847414Y-46819989D01*
X30863243Y-46855839D01*
X30872314Y-46925118D01*
X30842489Y-46988302D01*
X30837489Y-46993605D01*
X28367914Y-49463181D01*
X28306591Y-49496666D01*
X28280233Y-49499500D01*
X27417255Y-49499500D01*
X27350216Y-49479815D01*
X27329574Y-49463181D01*
X27295914Y-49429521D01*
X27295913Y-49429520D01*
X27204587Y-49376793D01*
X27102727Y-49349500D01*
X26997273Y-49349500D01*
X26895413Y-49376793D01*
X26895410Y-49376794D01*
X26804085Y-49429521D01*
X26729521Y-49504085D01*
X26676794Y-49595410D01*
X26676793Y-49595413D01*
X26649500Y-49697273D01*
X25500000Y-49697273D01*
X25500000Y-41472273D01*
X26674500Y-41472273D01*
X26674500Y-41577727D01*
X26701793Y-41679587D01*
X26754520Y-41770913D01*
X26829087Y-41845480D01*
X26920413Y-41898207D01*
X27022273Y-41925500D01*
X27022275Y-41925500D01*
X27127725Y-41925500D01*
X27127727Y-41925500D01*
X27229587Y-41898207D01*
X27320913Y-41845480D01*
X27379575Y-41786818D01*
X27440899Y-41753334D01*
X27467256Y-41750500D01*
X28230143Y-41750500D01*
X28230145Y-41750501D01*
X28319855Y-41750501D01*
X28378460Y-41726225D01*
X28402736Y-41716170D01*
X28466170Y-41652736D01*
X28466170Y-41652735D01*
X28483608Y-41635297D01*
X28483609Y-41635294D01*
X29857086Y-40261819D01*
X29918409Y-40228334D01*
X29944767Y-40225500D01*
X30769491Y-40225500D01*
X30836530Y-40245185D01*
X30882285Y-40297989D01*
X30892229Y-40367147D01*
X30882925Y-40399587D01*
X30847415Y-40480006D01*
X30847415Y-40480008D01*
X30844500Y-40505131D01*
X30844500Y-40505137D01*
X30844501Y-41445681D01*
X30824817Y-41512720D01*
X30772013Y-41558475D01*
X30720501Y-41569681D01*
X29747074Y-41569681D01*
X29680035Y-41549996D01*
X29659393Y-41533362D01*
X29625733Y-41499702D01*
X29625732Y-41499701D01*
X29534406Y-41446974D01*
X29432546Y-41419681D01*
X29327092Y-41419681D01*
X29225232Y-41446974D01*
X29225229Y-41446975D01*
X29133904Y-41499702D01*
X29059340Y-41574266D01*
X29006613Y-41665591D01*
X29006612Y-41665594D01*
X28979319Y-41767454D01*
X28979319Y-41872908D01*
X29006612Y-41974768D01*
X29059339Y-42066094D01*
X29133906Y-42140661D01*
X29225232Y-42193388D01*
X29327092Y-42220681D01*
X29327094Y-42220681D01*
X29432544Y-42220681D01*
X29432546Y-42220681D01*
X29534406Y-42193388D01*
X29625732Y-42140661D01*
X29659393Y-42107000D01*
X29720716Y-42073515D01*
X29747074Y-42070681D01*
X30720501Y-42070681D01*
X30787540Y-42090366D01*
X30833295Y-42143170D01*
X30844501Y-42194681D01*
X30844501Y-42244856D01*
X30844502Y-42244882D01*
X30847413Y-42269987D01*
X30847415Y-42269991D01*
X30892793Y-42372764D01*
X30892794Y-42372765D01*
X30972235Y-42452206D01*
X31075009Y-42497585D01*
X31100135Y-42500500D01*
X31489864Y-42500499D01*
X31489879Y-42500497D01*
X31489882Y-42500497D01*
X31514987Y-42497586D01*
X31514988Y-42497585D01*
X31514991Y-42497585D01*
X31617765Y-42452206D01*
X31697206Y-42372765D01*
X31742585Y-42269991D01*
X31745500Y-42244865D01*
X31745499Y-40505136D01*
X31744565Y-40497086D01*
X31741838Y-40473564D01*
X31753668Y-40404703D01*
X31800850Y-40353170D01*
X31868402Y-40335325D01*
X31934878Y-40356835D01*
X31952693Y-40371598D01*
X32078181Y-40497086D01*
X32111666Y-40558409D01*
X32114500Y-40584767D01*
X32114500Y-42244856D01*
X32114502Y-42244882D01*
X32117413Y-42269987D01*
X32117415Y-42269991D01*
X32162793Y-42372764D01*
X32162794Y-42372765D01*
X32242235Y-42452206D01*
X32345009Y-42497585D01*
X32370135Y-42500500D01*
X32759864Y-42500499D01*
X32759879Y-42500497D01*
X32759882Y-42500497D01*
X32784987Y-42497586D01*
X32784988Y-42497585D01*
X32784991Y-42497585D01*
X32887765Y-42452206D01*
X32967206Y-42372765D01*
X33012585Y-42269991D01*
X33015500Y-42244865D01*
X33015499Y-40505136D01*
X33014735Y-40498544D01*
X33012586Y-40480012D01*
X33012585Y-40480010D01*
X33012585Y-40480009D01*
X32967206Y-40377235D01*
X32887765Y-40297794D01*
X32873060Y-40291301D01*
X32784992Y-40252415D01*
X32759868Y-40249500D01*
X32759865Y-40249500D01*
X32519767Y-40249500D01*
X32452728Y-40229815D01*
X32432086Y-40213181D01*
X32108610Y-39889705D01*
X32091170Y-39872264D01*
X32027736Y-39808830D01*
X32027735Y-39808829D01*
X32003457Y-39798772D01*
X32003457Y-39798771D01*
X31944858Y-39774500D01*
X31944856Y-39774499D01*
X31944855Y-39774499D01*
X31855145Y-39774499D01*
X31840711Y-39774499D01*
X31840703Y-39774500D01*
X29859297Y-39774500D01*
X29859289Y-39774499D01*
X29844855Y-39774499D01*
X29755146Y-39774499D01*
X29755144Y-39774499D01*
X29755142Y-39774500D01*
X29706594Y-39794609D01*
X29672265Y-39808828D01*
X29656167Y-39824927D01*
X29608830Y-39872264D01*
X29608829Y-39872265D01*
X28896328Y-40584767D01*
X28217914Y-41263181D01*
X28156591Y-41296666D01*
X28130233Y-41299500D01*
X27467256Y-41299500D01*
X27400217Y-41279815D01*
X27379575Y-41263182D01*
X27379574Y-41263181D01*
X27320913Y-41204520D01*
X27229587Y-41151793D01*
X27127727Y-41124500D01*
X27022273Y-41124500D01*
X26920413Y-41151793D01*
X26920410Y-41151794D01*
X26829085Y-41204521D01*
X26754521Y-41279085D01*
X26701794Y-41370410D01*
X26701793Y-41370413D01*
X26674500Y-41472273D01*
X25500000Y-41472273D01*
X25500000Y-40291228D01*
X26543455Y-40291228D01*
X26543455Y-40396682D01*
X26570748Y-40498542D01*
X26623475Y-40589868D01*
X26698042Y-40664435D01*
X26789368Y-40717162D01*
X26891228Y-40744455D01*
X26891230Y-40744455D01*
X26996680Y-40744455D01*
X26996682Y-40744455D01*
X27098542Y-40717162D01*
X27189868Y-40664435D01*
X27248530Y-40605773D01*
X27309854Y-40572289D01*
X27336211Y-40569455D01*
X28011188Y-40569455D01*
X28011190Y-40569456D01*
X28100900Y-40569456D01*
X28159505Y-40545180D01*
X28183781Y-40535125D01*
X28247215Y-40471691D01*
X28247215Y-40471690D01*
X28264653Y-40454252D01*
X28264655Y-40454249D01*
X31132086Y-37586818D01*
X31193409Y-37553333D01*
X31219767Y-37550499D01*
X31489856Y-37550499D01*
X31489864Y-37550499D01*
X31489879Y-37550497D01*
X31489882Y-37550497D01*
X31514987Y-37547586D01*
X31514988Y-37547585D01*
X31514991Y-37547585D01*
X31617765Y-37502206D01*
X31697206Y-37422765D01*
X31742585Y-37319991D01*
X31745500Y-37294865D01*
X31745499Y-35555136D01*
X31745220Y-35552726D01*
X31742586Y-35530012D01*
X31742585Y-35530010D01*
X31742585Y-35530009D01*
X31697206Y-35427235D01*
X31617765Y-35347794D01*
X31545498Y-35315885D01*
X31514992Y-35302415D01*
X31489865Y-35299500D01*
X31100143Y-35299500D01*
X31100117Y-35299502D01*
X31075012Y-35302413D01*
X31075008Y-35302415D01*
X30972235Y-35347793D01*
X30892794Y-35427234D01*
X30847415Y-35530006D01*
X30847415Y-35530008D01*
X30844500Y-35555131D01*
X30844500Y-37185232D01*
X30824815Y-37252271D01*
X30808181Y-37272913D01*
X27998959Y-40082136D01*
X27937636Y-40115621D01*
X27911278Y-40118455D01*
X27336211Y-40118455D01*
X27269172Y-40098770D01*
X27248530Y-40082137D01*
X27248529Y-40082136D01*
X27189868Y-40023475D01*
X27098542Y-39970748D01*
X26996682Y-39943455D01*
X26891228Y-39943455D01*
X26789368Y-39970748D01*
X26789365Y-39970749D01*
X26698040Y-40023476D01*
X26623476Y-40098040D01*
X26570749Y-40189365D01*
X26570748Y-40189368D01*
X26543455Y-40291228D01*
X25500000Y-40291228D01*
X25500000Y-34301362D01*
X25519685Y-34234323D01*
X25536319Y-34213681D01*
X26913681Y-32836319D01*
X26975004Y-32802834D01*
X27001362Y-32800000D01*
X29025500Y-32800000D01*
X29092539Y-32819685D01*
G37*
G04 #@! TD.AperFunction*
G04 #@! TD*
M02*
