M48
; DRILL file {KiCad 9.0.4} date 2025-09-01T18:06:31-0400
; FORMAT={-:-/ absolute / metric / decimal}
; #@! TF.CreationDate,2025-09-01T18:06:31-04:00
; #@! TF.GenerationSoftware,Kicad,Pcbnew,9.0.4
; #@! TF.FileFunction,Plated,1,2,PTH
FMAT,2
METRIC
; #@! TA.AperFunction,Plated,PTH,ViaDrill
T1C0.300
; #@! TA.AperFunction,Plated,PTH,ComponentDrill
T2C0.300
; #@! TA.AperFunction,Plated,PTH,ComponentDrill
T3C0.760
; #@! TA.AperFunction,Plated,PTH,ComponentDrill
T4C1.000
; #@! TA.AperFunction,Plated,PTH,ComponentDrill
T5C1.200
%
G90
G05
T1
X2.9Y-13.76
X3.256Y-37.576
X3.3Y-15.51
X3.65Y-11.9
X3.7Y-34.95
X3.716Y-37.116
X4.75Y-49.25
X5.15Y-43.65
X5.6Y-12.6
X8.925Y-50.91
X9.295Y-70.896
X9.335Y-52.107
X9.55Y-50.91
X9.6Y-39.823
X9.6Y-70.35
X10.281Y-70.35
X10.602Y-70.886
X11.45Y-60.41
X11.5Y-66.4
X12.19Y-52.11
X12.295Y-46.95
X12.95Y-52.88
X12.95Y-54.26
X12.96Y-51.51
X13.04Y-44.11
X13.4Y-66.4
X14.35Y-52.88
X14.35Y-54.26
X14.36Y-51.51
X14.5Y-55.05
X14.5Y-57.56
X14.845Y-47.16
X14.845Y-47.76
X14.85Y-50.75
X15.05Y-43.25
X15.7Y-52.88
X15.7Y-54.26
X15.71Y-51.51
X15.9Y-59.31
X16.0Y-43.25
X16.075Y-58.271
X16.36Y-60.43
X16.5Y-52.26
X16.7Y-58.28
X16.85Y-43.25
X17.445Y-47.46
X17.445Y-48.06
X17.45Y-14.05
X17.5Y-32.0
X17.75Y-19.9
X18.193Y-48.904
X18.55Y-32.0
X18.8Y-19.9
X19.0Y-52.26
X19.05Y-53.4
X19.65Y-32.0
X19.65Y-53.675
X19.8Y-19.9
X19.9Y-57.31
X20.55Y-51.15
X20.55Y-53.61
X20.9Y-44.9
X20.9Y-45.75
X21.65Y-14.05
X21.9Y-62.6
X22.6Y-53.8
X22.65Y-44.4
X23.15Y-37.7
X23.247Y-56.6
X23.258Y-47.1
X23.75Y-64.55
X23.85Y-24.75
X24.5Y-17.4
X24.95Y-18.25
X24.959Y-20.624
X25.0Y-21.6
X26.032Y-72.142
X26.55Y-22.7
X26.8Y-80.15
X26.8Y-86.3
X26.944Y-40.344
X27.05Y-49.75
X27.05Y-70.0
X27.054Y-68.704
X27.062Y-50.987
X27.075Y-41.525
X27.082Y-59.232
X27.1Y-60.5
X27.4Y-18.248
X27.7Y-80.15
X27.7Y-86.3
X29.3Y-14.05
X29.38Y-41.82
X29.4Y-35.5
X29.4Y-70.3
X29.45Y-51.25
X29.45Y-60.75
X29.458Y-72.55
X29.8Y-32.1
X33.1Y-38.5
X33.15Y-48.0
X33.2Y-57.4
X33.2Y-67.0
X34.35Y-14.05
X35.163Y-68.5
X35.2Y-40.05
X35.2Y-49.55
X35.2Y-59.15
X37.5Y-14.05
X39.567Y-15.74
X40.027Y-15.281
T2
X6.451Y-23.177
X6.451Y-24.377
X7.651Y-23.177
X7.651Y-24.377
X8.951Y-23.177
X8.951Y-24.377
X10.051Y-23.177
X10.051Y-24.377
T3
X11.11Y-14.05
X12.38Y-11.51
X13.65Y-14.05
X14.92Y-11.51
X16.19Y-14.05
X17.46Y-11.51
X18.73Y-14.05
X20.0Y-11.51
X28.01Y-14.05
X29.28Y-11.51
X30.55Y-14.05
X31.82Y-11.51
X33.09Y-14.05
X34.36Y-11.51
X35.63Y-14.05
X36.9Y-11.51
T4
X2.5Y-17.7
X3.7Y-54.01
X3.7Y-56.55
X3.7Y-59.09
X3.7Y-63.8
X3.7Y-66.34
X3.7Y-68.88
X5.04Y-17.7
X7.65Y-54.05
X7.65Y-56.59
X7.65Y-59.13
X7.65Y-61.67
X9.33Y-36.9
X11.87Y-36.9
X14.41Y-36.9
X16.95Y-36.9
X32.65Y-74.65
X32.65Y-77.19
X32.65Y-79.73
X32.65Y-82.27
X35.19Y-74.65
X35.19Y-77.19
X35.19Y-79.73
X35.19Y-82.27
X37.73Y-74.65
X37.73Y-77.19
X37.73Y-79.73
X37.73Y-82.27
X38.55Y-28.66
X38.55Y-31.16
T5
X39.75Y-46.66
X39.75Y-50.16
X39.75Y-56.205
X39.75Y-59.705
X39.75Y-65.71
X39.75Y-69.21
X39.76Y-19.12
X39.76Y-22.62
X39.77Y-37.13
X39.77Y-40.63
M30
